{
	"asset":{
		"generator":"Khronos glTF Blender I/O v5.0.21",
		"version":"2.0"
	},
	"scene":0,
	"scenes":[
		{
			"extras":{
				"NEXUS_ASSET_METADATA":{
					"asset_id":"asset_9321e65d-425b-4711-8e7a-6d638ac7211b",
					"asset_name":"SM_Wall_Inner_80dm_Arch_01",
					"export_type":"ASSET",
					"root_type":"STATIC",
					"script_path":"",
					"godot_groups":[],
					"collision_layer":1,
					"collision_mask":131,
					"physics_material_path":"",
					"nexus_metadata":{},
					"nexus_light_bake_mode":1
				}
			},
			"name":"SM_Wall_Inner_80dm_Arch_01",
			"nodes":[
				0,
				1,
				2,
				3,
				4
			]
		}
	],
	"nodes":[
		{
			"extras":{
				"MaxHandle":"3988",
				"NEXUS_NODE_METADATA":{
					"uuid":"obj_867e5624-a76c-437a-b420-85232f992809",
					"discard_mesh":false
				}
			},
			"mesh":0,
			"name":"SM_Wall_Inner_80dm_Arch_01"
		},
		{
			"extras":{
				"MaxHandle":"3988",
				"NEXUS_NODE_METADATA":{
					"uuid":"obj_57fd596f-ca8b-4dee-8c70-f2f6d44c5316",
					"discard_mesh":true,
					"nexus_mesh_collision_shape":"TRIMESH",
					"nexus_collision_dims":{
						"shape":"TRIMESH",
						"margin":1.0,
						"size_x":4.0,
						"size_y":0.5,
						"size_z":0.0995,
						"radius":0.0,
						"height":0.0,
						"offset_x":-0.0,
						"offset_y":2.5,
						"offset_z":0.0005
					}
				}
			},
			"mesh":1,
			"name":"SM_Wall_Inner_80dm_Arch_01.col001"
		},
		{
			"extras":{
				"MaxHandle":"3988",
				"NEXUS_NODE_METADATA":{
					"uuid":"obj_e33b57f1-9f80-4248-a032-b6cdc6b5e6a9",
					"discard_mesh":true,
					"nexus_collision_dims":{
						"shape":"BOX",
						"margin":1.0,
						"size_x":0.1361,
						"size_y":1.0,
						"size_z":0.118,
						"radius":0.0,
						"height":0.0,
						"offset_x":-3.8639,
						"offset_y":1.0,
						"offset_z":0.0005
					}
				}
			},
			"mesh":2,
			"name":"SM_Wall_Inner_80dm_Arch_01.col002"
		},
		{
			"extras":{
				"MaxHandle":"3988",
				"NEXUS_NODE_METADATA":{
					"uuid":"obj_7f6de9e3-47d9-4885-b287-8e8dcdf28c1d",
					"discard_mesh":true,
					"nexus_collision_dims":{
						"shape":"BOX",
						"margin":1.0,
						"size_x":0.1361,
						"size_y":1.0,
						"size_z":0.118,
						"radius":0.0,
						"height":0.0,
						"offset_x":3.8639,
						"offset_y":1.0,
						"offset_z":0.0005
					}
				}
			},
			"mesh":3,
			"name":"SM_Wall_Inner_80dm_Arch_01.col003"
		},
		{
			"extras":{
				"MaxHandle":"3988",
				"NEXUS_NODE_METADATA":{
					"uuid":"obj_867e5624-a76c-437a-b420-85232f992809",
					"discard_mesh":true,
					"nexus_mesh_collision_shape":"RESONANCE_STATIC",
					"nexus_resonance_material_path":"res://addons/nexus_resonance/materials/brick.tres"
				}
			},
			"mesh":4,
			"name":"SM_Wall_Inner_80dm_Arch_01_reso"
		}
	],
	"materials":[
		{
			"doubleSided":true,
			"extras":{
				"nexus_material_id":"mat_7ba39fa3-600c-4376-aff8-ce6ccd502ff3"
			},
			"name":"DUMMY_M_WallFrame_01_mat_",
			"pbrMetallicRoughness":{
				"baseColorFactor":[
					0.800000011920929,
					0.800000011920929,
					0.800000011920929,
					1
				],
				"metallicFactor":0,
				"roughnessFactor":0.5
			}
		},
		{
			"doubleSided":true,
			"extras":{
				"nexus_material_id":"mat_59751b64-fe1b-4bf7-b2d9-ba6c90f52e34"
			},
			"name":"DUMMY_M_WallPaper_01_mat_",
			"pbrMetallicRoughness":{
				"baseColorFactor":[
					0.800000011920929,
					0.800000011920929,
					0.800000011920929,
					1
				],
				"metallicFactor":0,
				"roughnessFactor":0.5
			}
		}
	],
	"meshes":[
		{
			"name":"SM_Wall_Inner_Half_Arch_01",
			"primitives":[
				{
					"attributes":{
						"POSITION":0,
						"NORMAL":1,
						"TEXCOORD_0":2,
						"TEXCOORD_1":3
					},
					"indices":4,
					"material":0
				},
				{
					"attributes":{
						"POSITION":5,
						"NORMAL":6,
						"TEXCOORD_0":7,
						"TEXCOORD_1":8
					},
					"indices":9,
					"material":1
				},
				{
					"attributes":{
						"POSITION":10,
						"NORMAL":11,
						"TEXCOORD_0":12,
						"TEXCOORD_1":13
					},
					"indices":14,
					"material":1
				}
			]
		},
		{
			"name":"SM_Wall_Inner_Half_Arch_01.001",
			"primitives":[
				{
					"attributes":{
						"POSITION":15,
						"NORMAL":16,
						"TEXCOORD_0":17,
						"TEXCOORD_1":18
					},
					"indices":19,
					"material":1
				},
				{
					"attributes":{
						"POSITION":20,
						"NORMAL":21,
						"TEXCOORD_0":22,
						"TEXCOORD_1":23
					},
					"indices":24,
					"material":1
				}
			]
		},
		{
			"name":"SM_Wall_Inner_Half_Arch_01.002",
			"primitives":[
				{
					"attributes":{
						"POSITION":25,
						"NORMAL":26,
						"TEXCOORD_0":27,
						"TEXCOORD_1":28
					},
					"indices":29,
					"material":0
				},
				{
					"attributes":{
						"POSITION":30,
						"NORMAL":31,
						"TEXCOORD_0":32,
						"TEXCOORD_1":33
					},
					"indices":34,
					"material":1
				},
				{
					"attributes":{
						"POSITION":35,
						"NORMAL":36,
						"TEXCOORD_0":37,
						"TEXCOORD_1":38
					},
					"indices":39,
					"material":1
				}
			]
		},
		{
			"name":"SM_Wall_Inner_Half_Arch_01.003",
			"primitives":[
				{
					"attributes":{
						"POSITION":40,
						"NORMAL":41,
						"TEXCOORD_0":42,
						"TEXCOORD_1":43
					},
					"indices":44,
					"material":0
				},
				{
					"attributes":{
						"POSITION":45,
						"NORMAL":46,
						"TEXCOORD_0":47,
						"TEXCOORD_1":48
					},
					"indices":49,
					"material":1
				},
				{
					"attributes":{
						"POSITION":50,
						"NORMAL":51,
						"TEXCOORD_0":52,
						"TEXCOORD_1":53
					},
					"indices":54,
					"material":1
				}
			]
		},
		{
			"name":"SM_Wall_Inner_Half_Arch_01.004",
			"primitives":[
				{
					"attributes":{
						"POSITION":55,
						"NORMAL":56,
						"TEXCOORD_0":57,
						"TEXCOORD_1":58
					},
					"indices":4,
					"material":0
				},
				{
					"attributes":{
						"POSITION":59,
						"NORMAL":60,
						"TEXCOORD_0":61,
						"TEXCOORD_1":62
					},
					"indices":9,
					"material":1
				},
				{
					"attributes":{
						"POSITION":63,
						"NORMAL":64,
						"TEXCOORD_0":65,
						"TEXCOORD_1":66
					},
					"indices":14,
					"material":1
				}
			]
		}
	],
	"accessors":[
		{
			"bufferView":0,
			"componentType":5126,
			"count":74,
			"max":[
				3.999969482421875,
				0.12262618541717529,
				0.11854131519794464
			],
			"min":[
				-4.0000152587890625,
				-7.258561160350796e-18,
				-0.11754222959280014
			],
			"type":"VEC3"
		},
		{
			"bufferView":1,
			"componentType":5126,
			"count":74,
			"type":"VEC3"
		},
		{
			"bufferView":2,
			"componentType":5126,
			"count":74,
			"type":"VEC2"
		},
		{
			"bufferView":3,
			"componentType":5126,
			"count":74,
			"type":"VEC2"
		},
		{
			"bufferView":4,
			"componentType":5123,
			"count":108,
			"type":"SCALAR"
		},
		{
			"bufferView":5,
			"componentType":5126,
			"count":78,
			"max":[
				3.999969482421875,
				3,
				0.10000845789909363
			],
			"min":[
				-4.000014305114746,
				0.12262618541717529,
				-0.09900880604982376
			],
			"type":"VEC3"
		},
		{
			"bufferView":6,
			"componentType":5126,
			"count":78,
			"type":"VEC3"
		},
		{
			"bufferView":7,
			"componentType":5126,
			"count":78,
			"type":"VEC2"
		},
		{
			"bufferView":8,
			"componentType":5126,
			"count":78,
			"type":"VEC2"
		},
		{
			"bufferView":9,
			"componentType":5123,
			"count":210,
			"type":"SCALAR"
		},
		{
			"bufferView":10,
			"componentType":5126,
			"count":28,
			"max":[
				3.9999682903289795,
				3.00000262260437,
				-0.09900858998298645
			],
			"min":[
				-4.0000152587890625,
				0.12262618541717529,
				-0.09900897741317749
			],
			"type":"VEC3"
		},
		{
			"bufferView":11,
			"componentType":5126,
			"count":28,
			"type":"VEC3"
		},
		{
			"bufferView":12,
			"componentType":5126,
			"count":28,
			"type":"VEC2"
		},
		{
			"bufferView":13,
			"componentType":5126,
			"count":28,
			"type":"VEC2"
		},
		{
			"bufferView":14,
			"componentType":5123,
			"count":78,
			"type":"SCALAR"
		},
		{
			"bufferView":15,
			"componentType":5126,
			"count":72,
			"max":[
				3.999969482421875,
				3,
				0.10000845789909363
			],
			"min":[
				-4.000014305114746,
				1.9999994039535522,
				-0.099008709192276
			],
			"type":"VEC3"
		},
		{
			"bufferView":16,
			"componentType":5126,
			"count":72,
			"type":"VEC3"
		},
		{
			"bufferView":17,
			"componentType":5126,
			"count":72,
			"type":"VEC2"
		},
		{
			"bufferView":18,
			"componentType":5126,
			"count":72,
			"type":"VEC2"
		},
		{
			"bufferView":19,
			"componentType":5123,
			"count":192,
			"type":"SCALAR"
		},
		{
			"bufferView":20,
			"componentType":5126,
			"count":26,
			"max":[
				3.9999682903289795,
				3.00000262260437,
				-0.09900858998298645
			],
			"min":[
				-4.0000152587890625,
				1.9999994039535522,
				-0.09900897741317749
			],
			"type":"VEC3"
		},
		{
			"bufferView":21,
			"componentType":5126,
			"count":26,
			"type":"VEC3"
		},
		{
			"bufferView":22,
			"componentType":5126,
			"count":26,
			"type":"VEC2"
		},
		{
			"bufferView":23,
			"componentType":5126,
			"count":26,
			"type":"VEC2"
		},
		{
			"bufferView":24,
			"componentType":5123,
			"count":72,
			"type":"SCALAR"
		},
		{
			"bufferView":25,
			"componentType":5126,
			"count":38,
			"max":[
				-3.727792263031006,
				0.12262618541717529,
				0.11854130774736404
			],
			"min":[
				-4.0000152587890625,
				-7.258561160350796e-18,
				-0.11754217743873596
			],
			"type":"VEC3"
		},
		{
			"bufferView":26,
			"componentType":5126,
			"count":38,
			"type":"VEC3"
		},
		{
			"bufferView":27,
			"componentType":5126,
			"count":38,
			"type":"VEC2"
		},
		{
			"bufferView":28,
			"componentType":5126,
			"count":38,
			"type":"VEC2"
		},
		{
			"bufferView":29,
			"componentType":5123,
			"count":54,
			"type":"SCALAR"
		},
		{
			"bufferView":30,
			"componentType":5126,
			"count":7,
			"max":[
				-3.7470409870147705,
				1.9999994039535522,
				0.10000832378864288
			],
			"min":[
				-4.000014305114746,
				0.12262618541717529,
				-0.09900880604982376
			],
			"type":"VEC3"
		},
		{
			"bufferView":31,
			"componentType":5126,
			"count":7,
			"type":"VEC3"
		},
		{
			"bufferView":32,
			"componentType":5126,
			"count":7,
			"type":"VEC2"
		},
		{
			"bufferView":33,
			"componentType":5126,
			"count":7,
			"type":"VEC2"
		},
		{
			"bufferView":34,
			"componentType":5123,
			"count":9,
			"type":"SCALAR"
		},
		{
			"bufferView":35,
			"componentType":5126,
			"count":3,
			"max":[
				-3.7472941875457764,
				1.9999994039535522,
				-0.099008709192276
			],
			"min":[
				-4.0000152587890625,
				0.12262618541717529,
				-0.09900880604982376
			],
			"type":"VEC3"
		},
		{
			"bufferView":36,
			"componentType":5126,
			"count":3,
			"type":"VEC3"
		},
		{
			"bufferView":37,
			"componentType":5126,
			"count":3,
			"type":"VEC2"
		},
		{
			"bufferView":38,
			"componentType":5126,
			"count":3,
			"type":"VEC2"
		},
		{
			"bufferView":39,
			"componentType":5123,
			"count":3,
			"type":"SCALAR"
		},
		{
			"bufferView":40,
			"componentType":5126,
			"count":36,
			"max":[
				3.999969482421875,
				0.12262618541717529,
				0.11854131519794464
			],
			"min":[
				3.7277464866638184,
				-7.258561160350796e-18,
				-0.11754222959280014
			],
			"type":"VEC3"
		},
		{
			"bufferView":41,
			"componentType":5126,
			"count":36,
			"type":"VEC3"
		},
		{
			"bufferView":42,
			"componentType":5126,
			"count":36,
			"type":"VEC2"
		},
		{
			"bufferView":43,
			"componentType":5126,
			"count":36,
			"type":"VEC2"
		},
		{
			"bufferView":44,
			"componentType":5123,
			"count":54,
			"type":"SCALAR"
		},
		{
			"bufferView":45,
			"componentType":5126,
			"count":7,
			"max":[
				3.9999682903289795,
				2,
				0.10000832378864288
			],
			"min":[
				3.746995210647583,
				0.12262618541717529,
				-0.09900880604982376
			],
			"type":"VEC3"
		},
		{
			"bufferView":46,
			"componentType":5126,
			"count":7,
			"type":"VEC3"
		},
		{
			"bufferView":47,
			"componentType":5126,
			"count":7,
			"type":"VEC2"
		},
		{
			"bufferView":48,
			"componentType":5126,
			"count":7,
			"type":"VEC2"
		},
		{
			"bufferView":49,
			"componentType":5123,
			"count":9,
			"type":"SCALAR"
		},
		{
			"bufferView":50,
			"componentType":5126,
			"count":3,
			"max":[
				3.9999682903289795,
				2,
				-0.099008709192276
			],
			"min":[
				3.746995210647583,
				0.12262618541717529,
				-0.09900880604982376
			],
			"type":"VEC3"
		},
		{
			"bufferView":51,
			"componentType":5126,
			"count":3,
			"type":"VEC3"
		},
		{
			"bufferView":52,
			"componentType":5126,
			"count":3,
			"type":"VEC2"
		},
		{
			"bufferView":53,
			"componentType":5126,
			"count":3,
			"type":"VEC2"
		},
		{
			"bufferView":54,
			"componentType":5123,
			"count":3,
			"type":"SCALAR"
		},
		{
			"bufferView":55,
			"componentType":5126,
			"count":74,
			"max":[
				3.999969482421875,
				0.12262618541717529,
				0.11854131519794464
			],
			"min":[
				-4.0000152587890625,
				-7.258561160350796e-18,
				-0.11754222959280014
			],
			"type":"VEC3"
		},
		{
			"bufferView":56,
			"componentType":5126,
			"count":74,
			"type":"VEC3"
		},
		{
			"bufferView":57,
			"componentType":5126,
			"count":74,
			"type":"VEC2"
		},
		{
			"bufferView":58,
			"componentType":5126,
			"count":74,
			"type":"VEC2"
		},
		{
			"bufferView":59,
			"componentType":5126,
			"count":78,
			"max":[
				3.999969482421875,
				3,
				0.10000845789909363
			],
			"min":[
				-4.000014305114746,
				0.12262618541717529,
				-0.09900880604982376
			],
			"type":"VEC3"
		},
		{
			"bufferView":60,
			"componentType":5126,
			"count":78,
			"type":"VEC3"
		},
		{
			"bufferView":61,
			"componentType":5126,
			"count":78,
			"type":"VEC2"
		},
		{
			"bufferView":62,
			"componentType":5126,
			"count":78,
			"type":"VEC2"
		},
		{
			"bufferView":63,
			"componentType":5126,
			"count":28,
			"max":[
				3.9999682903289795,
				3.00000262260437,
				-0.09900858998298645
			],
			"min":[
				-4.0000152587890625,
				0.12262618541717529,
				-0.09900897741317749
			],
			"type":"VEC3"
		},
		{
			"bufferView":64,
			"componentType":5126,
			"count":28,
			"type":"VEC3"
		},
		{
			"bufferView":65,
			"componentType":5126,
			"count":28,
			"type":"VEC2"
		},
		{
			"bufferView":66,
			"componentType":5126,
			"count":28,
			"type":"VEC2"
		}
	],
	"bufferViews":[
		{
			"buffer":0,
			"byteLength":888,
			"byteOffset":0,
			"target":34962
		},
		{
			"buffer":0,
			"byteLength":888,
			"byteOffset":888,
			"target":34962
		},
		{
			"buffer":0,
			"byteLength":592,
			"byteOffset":1776,
			"target":34962
		},
		{
			"buffer":0,
			"byteLength":592,
			"byteOffset":2368,
			"target":34962
		},
		{
			"buffer":0,
			"byteLength":216,
			"byteOffset":2960,
			"target":34963
		},
		{
			"buffer":0,
			"byteLength":936,
			"byteOffset":3176,
			"target":34962
		},
		{
			"buffer":0,
			"byteLength":936,
			"byteOffset":4112,
			"target":34962
		},
		{
			"buffer":0,
			"byteLength":624,
			"byteOffset":5048,
			"target":34962
		},
		{
			"buffer":0,
			"byteLength":624,
			"byteOffset":5672,
			"target":34962
		},
		{
			"buffer":0,
			"byteLength":420,
			"byteOffset":6296,
			"target":34963
		},
		{
			"buffer":0,
			"byteLength":336,
			"byteOffset":6716,
			"target":34962
		},
		{
			"buffer":0,
			"byteLength":336,
			"byteOffset":7052,
			"target":34962
		},
		{
			"buffer":0,
			"byteLength":224,
			"byteOffset":7388,
			"target":34962
		},
		{
			"buffer":0,
			"byteLength":224,
			"byteOffset":7612,
			"target":34962
		},
		{
			"buffer":0,
			"byteLength":156,
			"byteOffset":7836,
			"target":34963
		},
		{
			"buffer":0,
			"byteLength":864,
			"byteOffset":7992,
			"target":34962
		},
		{
			"buffer":0,
			"byteLength":864,
			"byteOffset":8856,
			"target":34962
		},
		{
			"buffer":0,
			"byteLength":576,
			"byteOffset":9720,
			"target":34962
		},
		{
			"buffer":0,
			"byteLength":576,
			"byteOffset":10296,
			"target":34962
		},
		{
			"buffer":0,
			"byteLength":384,
			"byteOffset":10872,
			"target":34963
		},
		{
			"buffer":0,
			"byteLength":312,
			"byteOffset":11256,
			"target":34962
		},
		{
			"buffer":0,
			"byteLength":312,
			"byteOffset":11568,
			"target":34962
		},
		{
			"buffer":0,
			"byteLength":208,
			"byteOffset":11880,
			"target":34962
		},
		{
			"buffer":0,
			"byteLength":208,
			"byteOffset":12088,
			"target":34962
		},
		{
			"buffer":0,
			"byteLength":144,
			"byteOffset":12296,
			"target":34963
		},
		{
			"buffer":0,
			"byteLength":456,
			"byteOffset":12440,
			"target":34962
		},
		{
			"buffer":0,
			"byteLength":456,
			"byteOffset":12896,
			"target":34962
		},
		{
			"buffer":0,
			"byteLength":304,
			"byteOffset":13352,
			"target":34962
		},
		{
			"buffer":0,
			"byteLength":304,
			"byteOffset":13656,
			"target":34962
		},
		{
			"buffer":0,
			"byteLength":108,
			"byteOffset":13960,
			"target":34963
		},
		{
			"buffer":0,
			"byteLength":84,
			"byteOffset":14068,
			"target":34962
		},
		{
			"buffer":0,
			"byteLength":84,
			"byteOffset":14152,
			"target":34962
		},
		{
			"buffer":0,
			"byteLength":56,
			"byteOffset":14236,
			"target":34962
		},
		{
			"buffer":0,
			"byteLength":56,
			"byteOffset":14292,
			"target":34962
		},
		{
			"buffer":0,
			"byteLength":18,
			"byteOffset":14348,
			"target":34963
		},
		{
			"buffer":0,
			"byteLength":36,
			"byteOffset":14368,
			"target":34962
		},
		{
			"buffer":0,
			"byteLength":36,
			"byteOffset":14404,
			"target":34962
		},
		{
			"buffer":0,
			"byteLength":24,
			"byteOffset":14440,
			"target":34962
		},
		{
			"buffer":0,
			"byteLength":24,
			"byteOffset":14464,
			"target":34962
		},
		{
			"buffer":0,
			"byteLength":6,
			"byteOffset":14488,
			"target":34963
		},
		{
			"buffer":0,
			"byteLength":432,
			"byteOffset":14496,
			"target":34962
		},
		{
			"buffer":0,
			"byteLength":432,
			"byteOffset":14928,
			"target":34962
		},
		{
			"buffer":0,
			"byteLength":288,
			"byteOffset":15360,
			"target":34962
		},
		{
			"buffer":0,
			"byteLength":288,
			"byteOffset":15648,
			"target":34962
		},
		{
			"buffer":0,
			"byteLength":108,
			"byteOffset":15936,
			"target":34963
		},
		{
			"buffer":0,
			"byteLength":84,
			"byteOffset":16044,
			"target":34962
		},
		{
			"buffer":0,
			"byteLength":84,
			"byteOffset":16128,
			"target":34962
		},
		{
			"buffer":0,
			"byteLength":56,
			"byteOffset":16212,
			"target":34962
		},
		{
			"buffer":0,
			"byteLength":56,
			"byteOffset":16268,
			"target":34962
		},
		{
			"buffer":0,
			"byteLength":18,
			"byteOffset":16324,
			"target":34963
		},
		{
			"buffer":0,
			"byteLength":36,
			"byteOffset":16344,
			"target":34962
		},
		{
			"buffer":0,
			"byteLength":36,
			"byteOffset":16380,
			"target":34962
		},
		{
			"buffer":0,
			"byteLength":24,
			"byteOffset":16416,
			"target":34962
		},
		{
			"buffer":0,
			"byteLength":24,
			"byteOffset":16440,
			"target":34962
		},
		{
			"buffer":0,
			"byteLength":6,
			"byteOffset":16464,
			"target":34963
		},
		{
			"buffer":0,
			"byteLength":888,
			"byteOffset":16472,
			"target":34962
		},
		{
			"buffer":0,
			"byteLength":888,
			"byteOffset":17360,
			"target":34962
		},
		{
			"buffer":0,
			"byteLength":592,
			"byteOffset":18248,
			"target":34962
		},
		{
			"buffer":0,
			"byteLength":592,
			"byteOffset":18840,
			"target":34962
		},
		{
			"buffer":0,
			"byteLength":936,
			"byteOffset":19432,
			"target":34962
		},
		{
			"buffer":0,
			"byteLength":936,
			"byteOffset":20368,
			"target":34962
		},
		{
			"buffer":0,
			"byteLength":624,
			"byteOffset":21304,
			"target":34962
		},
		{
			"buffer":0,
			"byteLength":624,
			"byteOffset":21928,
			"target":34962
		},
		{
			"buffer":0,
			"byteLength":336,
			"byteOffset":22552,
			"target":34962
		},
		{
			"buffer":0,
			"byteLength":336,
			"byteOffset":22888,
			"target":34962
		},
		{
			"buffer":0,
			"byteLength":224,
			"byteOffset":23224,
			"target":34962
		},
		{
			"buffer":0,
			"byteLength":224,
			"byteOffset":23448,
			"target":34962
		}
	],
	"buffers":[
		{
			"byteLength":23672,
			"uri":"SM_Wall_Inner_80dm_Arch_01.bin"
		}
	]
}
