{
	"asset":{
		"generator":"Khronos glTF Blender I/O v5.0.21",
		"version":"2.0"
	},
	"scene":0,
	"scenes":[
		{
			"extras":{
				"NEXUS_ASSET_METADATA":{
					"asset_id":"asset_b6256045-d89b-4dc8-a437-58b84302b56f",
					"asset_name":"SM_DoorFrame",
					"export_type":"ASSET",
					"root_type":"STATIC",
					"script_path":"",
					"godot_groups":[],
					"collision_layer":1,
					"collision_mask":1,
					"physics_material_path":"",
					"nexus_metadata":{},
					"nexus_light_bake_mode":1
				}
			},
			"name":"SM_DoorFrame",
			"nodes":[
				0,
				1,
				2,
				3
			]
		}
	],
	"nodes":[
		{
			"extras":{
				"nexus_visibility_range":{
					"begin":0.0,
					"begin_margin":0.0,
					"end":50.0,
					"end_margin":5.0
				},
				"NEXUS_NODE_METADATA":{
					"uuid":"obj_090f7df6-13bd-4fb6-9dd2-be1066ebaa39",
					"discard_mesh":false
				}
			},
			"mesh":0,
			"name":"SM_DoorFrame"
		},
		{
			"extras":{
				"nexus_visibility_range":{
					"begin":0.0,
					"begin_margin":0.0,
					"end":50.0,
					"end_margin":5.0
				},
				"NEXUS_NODE_METADATA":{
					"uuid":"obj_2c7bb043-c733-4a75-ab0c-8faecefa7037",
					"discard_mesh":true,
					"nexus_collision_dims":{
						"shape":"BOX",
						"margin":1.0,
						"size_x":0.4923,
						"size_y":0.0528,
						"size_z":0.0629,
						"radius":0.0,
						"height":0.0,
						"offset_x":0.4025,
						"offset_y":2.0456,
						"offset_z":0.0257
					}
				}
			},
			"mesh":1,
			"name":"SM_DoorFrame_col.002"
		},
		{
			"extras":{
				"nexus_visibility_range":{
					"begin":0.0,
					"begin_margin":0.0,
					"end":50.0,
					"end_margin":5.0
				},
				"NEXUS_NODE_METADATA":{
					"uuid":"obj_2c8bbfb9-562a-48ad-a488-8d87ca8332d7",
					"discard_mesh":true,
					"nexus_collision_dims":{
						"shape":"BOX",
						"margin":1.0,
						"size_x":0.0504,
						"size_y":1.0492,
						"size_z":0.0629,
						"radius":0.0,
						"height":0.0,
						"offset_x":-0.0436,
						"offset_y":1.0492,
						"offset_z":0.0257
					}
				}
			},
			"mesh":2,
			"name":"SM_DoorFrame_col.003"
		},
		{
			"extras":{
				"nexus_visibility_range":{
					"begin":0.0,
					"begin_margin":0.0,
					"end":50.0,
					"end_margin":5.0
				},
				"NEXUS_NODE_METADATA":{
					"uuid":"obj_090f7df6-13bd-4fb6-9dd2-be1066ebaa39",
					"discard_mesh":true,
					"nexus_collision_dims":{
						"shape":"BOX",
						"margin":1.0,
						"size_x":0.0504,
						"size_y":1.0471,
						"size_z":0.0629,
						"radius":0.0,
						"height":0.0,
						"offset_x":0.8486,
						"offset_y":1.0472,
						"offset_z":0.0257
					}
				}
			},
			"mesh":3,
			"name":"SM_DoorFrame_col.001"
		}
	],
	"materials":[
		{
			"doubleSided":true,
			"extras":{
				"nexus_material_id":"mat_e9fd9be7-4379-4d3f-9653-f275b2226ab8"
			},
			"name":"DUMMY_M_DoorFrame_mat_",
			"pbrMetallicRoughness":{
				"baseColorFactor":[
					0.800000011920929,
					0.800000011920929,
					0.800000011920929,
					1
				],
				"metallicFactor":0,
				"roughnessFactor":0.5
			}
		}
	],
	"meshes":[
		{
			"name":"SM_DoorFrame",
			"primitives":[
				{
					"attributes":{
						"POSITION":0,
						"NORMAL":1,
						"TEXCOORD_0":2,
						"TEXCOORD_1":3
					},
					"indices":4,
					"material":0
				}
			]
		},
		{
			"name":"SM_DoorFrame.002",
			"primitives":[
				{
					"attributes":{
						"POSITION":5,
						"NORMAL":6,
						"TEXCOORD_0":7,
						"TEXCOORD_1":8
					},
					"indices":9,
					"material":0
				}
			]
		},
		{
			"name":"SM_DoorFrame.003",
			"primitives":[
				{
					"attributes":{
						"POSITION":10,
						"NORMAL":11,
						"TEXCOORD_0":12,
						"TEXCOORD_1":13
					},
					"indices":14,
					"material":0
				}
			]
		},
		{
			"name":"SM_DoorFrame.005",
			"primitives":[
				{
					"attributes":{
						"POSITION":15,
						"NORMAL":16,
						"TEXCOORD_0":17,
						"TEXCOORD_1":18
					},
					"indices":19,
					"material":0
				}
			]
		}
	],
	"accessors":[
		{
			"bufferView":0,
			"componentType":5126,
			"count":198,
			"max":[
				0.8989400863647461,
				2.0983943939208984,
				0.08861974626779556
			],
			"min":[
				-0.0939362496137619,
				5.4773990996181965e-05,
				-0.03724706545472145
			],
			"type":"VEC3"
		},
		{
			"bufferView":1,
			"componentType":5126,
			"count":198,
			"type":"VEC3"
		},
		{
			"bufferView":2,
			"componentType":5126,
			"count":198,
			"type":"VEC2"
		},
		{
			"bufferView":3,
			"componentType":5126,
			"count":198,
			"type":"VEC2"
		},
		{
			"bufferView":4,
			"componentType":5123,
			"count":330,
			"type":"SCALAR"
		},
		{
			"bufferView":5,
			"componentType":5126,
			"count":52,
			"max":[
				0.8948093056678772,
				2.0983943939208984,
				0.08861974626779556
			],
			"min":[
				-0.08980519324541092,
				1.992754340171814,
				-0.03724706545472145
			],
			"type":"VEC3"
		},
		{
			"bufferView":6,
			"componentType":5126,
			"count":52,
			"type":"VEC3"
		},
		{
			"bufferView":7,
			"componentType":5126,
			"count":52,
			"type":"VEC2"
		},
		{
			"bufferView":8,
			"componentType":5126,
			"count":52,
			"type":"VEC2"
		},
		{
			"bufferView":9,
			"componentType":5123,
			"count":78,
			"type":"SCALAR"
		},
		{
			"bufferView":10,
			"componentType":5126,
			"count":81,
			"max":[
				0.0068212514743208885,
				2.0983941555023193,
				0.08861974626779556
			],
			"min":[
				-0.0939362496137619,
				5.4773990996181965e-05,
				-0.03724706545472145
			],
			"type":"VEC3"
		},
		{
			"bufferView":11,
			"componentType":5126,
			"count":81,
			"type":"VEC3"
		},
		{
			"bufferView":12,
			"componentType":5126,
			"count":81,
			"type":"VEC2"
		},
		{
			"bufferView":13,
			"componentType":5126,
			"count":81,
			"type":"VEC2"
		},
		{
			"bufferView":14,
			"componentType":5123,
			"count":126,
			"type":"SCALAR"
		},
		{
			"bufferView":15,
			"componentType":5126,
			"count":54,
			"max":[
				0.8989400863647461,
				2.094263792037964,
				0.08861974626779556
			],
			"min":[
				0.7981827259063721,
				5.4773990996181965e-05,
				-0.03724706545472145
			],
			"type":"VEC3"
		},
		{
			"bufferView":16,
			"componentType":5126,
			"count":54,
			"type":"VEC3"
		},
		{
			"bufferView":17,
			"componentType":5126,
			"count":54,
			"type":"VEC2"
		},
		{
			"bufferView":18,
			"componentType":5126,
			"count":54,
			"type":"VEC2"
		},
		{
			"bufferView":19,
			"componentType":5123,
			"count":78,
			"type":"SCALAR"
		}
	],
	"bufferViews":[
		{
			"buffer":0,
			"byteLength":2376,
			"byteOffset":0,
			"target":34962
		},
		{
			"buffer":0,
			"byteLength":2376,
			"byteOffset":2376,
			"target":34962
		},
		{
			"buffer":0,
			"byteLength":1584,
			"byteOffset":4752,
			"target":34962
		},
		{
			"buffer":0,
			"byteLength":1584,
			"byteOffset":6336,
			"target":34962
		},
		{
			"buffer":0,
			"byteLength":660,
			"byteOffset":7920,
			"target":34963
		},
		{
			"buffer":0,
			"byteLength":624,
			"byteOffset":8580,
			"target":34962
		},
		{
			"buffer":0,
			"byteLength":624,
			"byteOffset":9204,
			"target":34962
		},
		{
			"buffer":0,
			"byteLength":416,
			"byteOffset":9828,
			"target":34962
		},
		{
			"buffer":0,
			"byteLength":416,
			"byteOffset":10244,
			"target":34962
		},
		{
			"buffer":0,
			"byteLength":156,
			"byteOffset":10660,
			"target":34963
		},
		{
			"buffer":0,
			"byteLength":972,
			"byteOffset":10816,
			"target":34962
		},
		{
			"buffer":0,
			"byteLength":972,
			"byteOffset":11788,
			"target":34962
		},
		{
			"buffer":0,
			"byteLength":648,
			"byteOffset":12760,
			"target":34962
		},
		{
			"buffer":0,
			"byteLength":648,
			"byteOffset":13408,
			"target":34962
		},
		{
			"buffer":0,
			"byteLength":252,
			"byteOffset":14056,
			"target":34963
		},
		{
			"buffer":0,
			"byteLength":648,
			"byteOffset":14308,
			"target":34962
		},
		{
			"buffer":0,
			"byteLength":648,
			"byteOffset":14956,
			"target":34962
		},
		{
			"buffer":0,
			"byteLength":432,
			"byteOffset":15604,
			"target":34962
		},
		{
			"buffer":0,
			"byteLength":432,
			"byteOffset":16036,
			"target":34962
		},
		{
			"buffer":0,
			"byteLength":156,
			"byteOffset":16468,
			"target":34963
		}
	],
	"buffers":[
		{
			"byteLength":16624,
			"uri":"SM_DoorFrame.bin"
		}
	]
}
