{
	"asset":{
		"generator":"Khronos glTF Blender I/O v5.0.21",
		"version":"2.0"
	},
	"scene":0,
	"scenes":[
		{
			"extras":{
				"NEXUS_ASSET_METADATA":{
					"asset_id":"asset_cd4f40b7-f6c3-4284-bf0e-aaf022e4197f",
					"asset_name":"SM_Stairs_01",
					"export_type":"ASSET",
					"root_type":"STATIC",
					"script_path":"",
					"godot_groups":[],
					"collision_layer":1,
					"collision_mask":1,
					"physics_material_path":"",
					"nexus_metadata":{},
					"nexus_light_bake_mode":1
				}
			},
			"name":"SM_Stairs_01",
			"nodes":[
				0,
				1,
				2,
				3
			]
		}
	],
	"nodes":[
		{
			"extras":{
				"NEXUS_NODE_METADATA":{
					"uuid":"obj_350836af-9f3c-4937-bf10-c8e4e3e39da9",
					"discard_mesh":false
				}
			},
			"mesh":0,
			"name":"SM_Stairs_Mesh_01"
		},
		{
			"extras":{
				"NEXUS_NODE_METADATA":{
					"uuid":"obj_d93286de-0d82-425a-ab72-994d596777bc",
					"discard_mesh":false
				}
			},
			"mesh":1,
			"name":"SM_StairCase_Mesh_01",
			"translation":[
				0,
				0.75,
				0
			]
		},
		{
			"extras":{
				"NEXUS_NODE_METADATA":{
					"uuid":"obj_b7018a5f-9dbd-4e91-b0fa-e3f1491a9a86",
					"discard_mesh":true,
					"nexus_mesh_collision_shape":"TRIMESH",
					"nexus_collision_dims":{
						"shape":"TRIMESH",
						"margin":1.0,
						"size_x":0.0,
						"size_y":0.0,
						"size_z":0.0,
						"radius":0.0,
						"height":0.0,
						"offset_x":0.0,
						"offset_y":0.0,
						"offset_z":0.0
					}
				}
			},
			"mesh":2,
			"name":"SM_StairCase_Mesh_01_col",
			"translation":[
				0,
				0.75,
				0
			]
		},
		{
			"extras":{
				"NEXUS_NODE_METADATA":{
					"uuid":"obj_d93286de-0d82-425a-ab72-994d596777bc",
					"discard_mesh":false,
					"nexus_mesh_collision_shape":"RESONANCE_STATIC",
					"nexus_resonance_material_path":"res://addons/nexus_resonance/materials/concrete.tres"
				}
			},
			"mesh":3,
			"name":"SM_StairCase_Mesh_01.reso",
			"translation":[
				0,
				0.75,
				0
			]
		}
	],
	"materials":[
		{
			"doubleSided":true,
			"extras":{
				"nexus_material_id":"mat_7ba39fa3-600c-4376-aff8-ce6ccd502ff3"
			},
			"name":"DUMMY_M_WallFrame_01_mat_",
			"pbrMetallicRoughness":{
				"baseColorFactor":[
					0.800000011920929,
					0.800000011920929,
					0.800000011920929,
					1
				],
				"metallicFactor":0,
				"roughnessFactor":0.5
			}
		},
		{
			"doubleSided":true,
			"extras":{
				"nexus_material_id":"mat_59751b64-fe1b-4bf7-b2d9-ba6c90f52e34"
			},
			"name":"DUMMY_M_WallPaper_01_mat_",
			"pbrMetallicRoughness":{
				"baseColorFactor":[
					0.800000011920929,
					0.800000011920929,
					0.800000011920929,
					1
				],
				"metallicFactor":0,
				"roughnessFactor":0.5
			}
		}
	],
	"meshes":[
		{
			"name":"Cube",
			"primitives":[
				{
					"attributes":{
						"POSITION":0,
						"NORMAL":1,
						"TEXCOORD_0":2
					},
					"indices":3,
					"material":0
				}
			]
		},
		{
			"name":"Cube.001",
			"primitives":[
				{
					"attributes":{
						"POSITION":4,
						"NORMAL":5,
						"TEXCOORD_0":6
					},
					"indices":7,
					"material":1
				}
			]
		},
		{
			"name":"Cube.002",
			"primitives":[
				{
					"attributes":{
						"POSITION":8,
						"NORMAL":9,
						"TEXCOORD_0":10
					},
					"indices":11
				}
			]
		},
		{
			"name":"Cube.005",
			"primitives":[
				{
					"attributes":{
						"POSITION":12,
						"NORMAL":13,
						"TEXCOORD_0":14
					},
					"indices":7,
					"material":1
				}
			]
		}
	],
	"accessors":[
		{
			"bufferView":0,
			"componentType":5126,
			"count":5095,
			"max":[
				0.44350290298461914,
				3.0245094299316406,
				0.7853068709373474
			],
			"min":[
				-4.236375331878662,
				0.21638831496238708,
				-0.7916295528411865
			],
			"type":"VEC3"
		},
		{
			"bufferView":1,
			"componentType":5126,
			"count":5095,
			"type":"VEC3"
		},
		{
			"bufferView":2,
			"componentType":5126,
			"count":5095,
			"type":"VEC2"
		},
		{
			"bufferView":3,
			"componentType":5123,
			"count":10140,
			"type":"SCALAR"
		},
		{
			"bufferView":4,
			"componentType":5126,
			"count":120,
			"max":[
				0.3499999940395355,
				2.25,
				0.75
			],
			"min":[
				-4.199999809265137,
				-0.75,
				-0.75
			],
			"type":"VEC3"
		},
		{
			"bufferView":5,
			"componentType":5126,
			"count":120,
			"type":"VEC3"
		},
		{
			"bufferView":6,
			"componentType":5126,
			"count":120,
			"type":"VEC2"
		},
		{
			"bufferView":7,
			"componentType":5123,
			"count":264,
			"type":"SCALAR"
		},
		{
			"bufferView":8,
			"componentType":5126,
			"count":172,
			"max":[
				0.3499999940395355,
				2.2680935859680176,
				0.75
			],
			"min":[
				-4.199999809265137,
				-0.75,
				-0.75
			],
			"type":"VEC3"
		},
		{
			"bufferView":9,
			"componentType":5126,
			"count":172,
			"type":"VEC3"
		},
		{
			"bufferView":10,
			"componentType":5126,
			"count":172,
			"type":"VEC2"
		},
		{
			"bufferView":11,
			"componentType":5123,
			"count":348,
			"type":"SCALAR"
		},
		{
			"bufferView":12,
			"componentType":5126,
			"count":120,
			"max":[
				0.3499999940395355,
				2.25,
				0.75
			],
			"min":[
				-4.199999809265137,
				-0.75,
				-0.75
			],
			"type":"VEC3"
		},
		{
			"bufferView":13,
			"componentType":5126,
			"count":120,
			"type":"VEC3"
		},
		{
			"bufferView":14,
			"componentType":5126,
			"count":120,
			"type":"VEC2"
		}
	],
	"bufferViews":[
		{
			"buffer":0,
			"byteLength":61140,
			"byteOffset":0,
			"target":34962
		},
		{
			"buffer":0,
			"byteLength":61140,
			"byteOffset":61140,
			"target":34962
		},
		{
			"buffer":0,
			"byteLength":40760,
			"byteOffset":122280,
			"target":34962
		},
		{
			"buffer":0,
			"byteLength":20280,
			"byteOffset":163040,
			"target":34963
		},
		{
			"buffer":0,
			"byteLength":1440,
			"byteOffset":183320,
			"target":34962
		},
		{
			"buffer":0,
			"byteLength":1440,
			"byteOffset":184760,
			"target":34962
		},
		{
			"buffer":0,
			"byteLength":960,
			"byteOffset":186200,
			"target":34962
		},
		{
			"buffer":0,
			"byteLength":528,
			"byteOffset":187160,
			"target":34963
		},
		{
			"buffer":0,
			"byteLength":2064,
			"byteOffset":187688,
			"target":34962
		},
		{
			"buffer":0,
			"byteLength":2064,
			"byteOffset":189752,
			"target":34962
		},
		{
			"buffer":0,
			"byteLength":1376,
			"byteOffset":191816,
			"target":34962
		},
		{
			"buffer":0,
			"byteLength":696,
			"byteOffset":193192,
			"target":34963
		},
		{
			"buffer":0,
			"byteLength":1440,
			"byteOffset":193888,
			"target":34962
		},
		{
			"buffer":0,
			"byteLength":1440,
			"byteOffset":195328,
			"target":34962
		},
		{
			"buffer":0,
			"byteLength":960,
			"byteOffset":196768,
			"target":34962
		}
	],
	"buffers":[
		{
			"byteLength":197728,
			"uri":"SM_Stairs_01.bin"
		}
	]
}
