{
	"asset":{
		"generator":"Khronos glTF Blender I/O v5.0.21",
		"version":"2.0"
	},
	"scene":0,
	"scenes":[
		{
			"extras":{
				"NEXUS_ASSET_METADATA":{
					"asset_id":"asset_7542a4d8-e9a7-4821-8063-b670ece4bbb3",
					"asset_name":"SM_Wall_Inner_20dm_Door_01",
					"export_type":"ASSET",
					"root_type":"STATIC",
					"script_path":"",
					"godot_groups":[],
					"collision_layer":1,
					"collision_mask":131,
					"physics_material_path":"",
					"nexus_metadata":{},
					"nexus_light_bake_mode":1
				}
			},
			"name":"SM_Wall_Inner_20dm_Door_01",
			"nodes":[
				0,
				1,
				2,
				3,
				4
			]
		}
	],
	"nodes":[
		{
			"extras":{
				"MaxHandle":"3918",
				"NEXUS_NODE_METADATA":{
					"uuid":"obj_cb49899f-c6f1-437a-920f-e5dd763260c8",
					"discard_mesh":false
				}
			},
			"mesh":0,
			"name":"SM_Wall_Inner_20dm_Door_01"
		},
		{
			"extras":{
				"MaxHandle":"3918",
				"NEXUS_NODE_METADATA":{
					"uuid":"obj_e9e35387-a152-46e2-a03b-f8464cc260c2",
					"discard_mesh":true,
					"nexus_collision_dims":{
						"shape":"BOX",
						"margin":1.0,
						"size_x":1.0,
						"size_y":0.3036,
						"size_z":0.118,
						"radius":0.0,
						"height":0.0,
						"offset_x":-0.0,
						"offset_y":2.6965,
						"offset_z":0.0004
					}
				}
			},
			"mesh":1,
			"name":"SM_Wall_Inner_20dm_Door_01.col001"
		},
		{
			"extras":{
				"MaxHandle":"3918",
				"NEXUS_NODE_METADATA":{
					"uuid":"obj_0ff22cde-8736-40de-b9f0-18c87f67aec1",
					"discard_mesh":true,
					"nexus_collision_dims":{
						"shape":"BOX",
						"margin":1.0,
						"size_x":0.1749,
						"size_y":1.2464,
						"size_z":0.118,
						"radius":0.0,
						"height":0.0,
						"offset_x":0.8251,
						"offset_y":1.2462,
						"offset_z":0.0004
					}
				}
			},
			"mesh":2,
			"name":"SM_Wall_Inner_20dm_Door_01.col002"
		},
		{
			"extras":{
				"MaxHandle":"3918",
				"NEXUS_NODE_METADATA":{
					"uuid":"obj_43b8f429-c914-4559-b0a7-6712da4a58ef",
					"discard_mesh":true,
					"nexus_collision_dims":{
						"shape":"BOX",
						"margin":1.0,
						"size_x":0.1821,
						"size_y":1.2463,
						"size_z":0.118,
						"radius":0.0,
						"height":0.0,
						"offset_x":-0.8179,
						"offset_y":1.2462,
						"offset_z":0.0004
					}
				}
			},
			"mesh":3,
			"name":"SM_Wall_Inner_20dm_Door_01.col003"
		},
		{
			"extras":{
				"MaxHandle":"3918",
				"NEXUS_NODE_METADATA":{
					"uuid":"obj_cb49899f-c6f1-437a-920f-e5dd763260c8",
					"discard_mesh":true,
					"nexus_mesh_collision_shape":"RESONANCE_STATIC",
					"nexus_resonance_material_path":"res://addons/nexus_resonance/materials/brick.tres"
				}
			},
			"mesh":4,
			"name":"SM_Wall_Inner_20dm_Door_01_reso"
		}
	],
	"materials":[
		{
			"doubleSided":true,
			"extras":{
				"nexus_material_id":"mat_7ba39fa3-600c-4376-aff8-ce6ccd502ff3"
			},
			"name":"DUMMY_M_WallFrame_01_mat_",
			"pbrMetallicRoughness":{
				"baseColorFactor":[
					0.800000011920929,
					0.800000011920929,
					0.800000011920929,
					1
				],
				"metallicFactor":0,
				"roughnessFactor":0.5
			}
		},
		{
			"doubleSided":true,
			"extras":{
				"nexus_material_id":"mat_59751b64-fe1b-4bf7-b2d9-ba6c90f52e34"
			},
			"name":"DUMMY_M_WallPaper_01_mat_",
			"pbrMetallicRoughness":{
				"baseColorFactor":[
					0.800000011920929,
					0.800000011920929,
					0.800000011920929,
					1
				],
				"metallicFactor":0,
				"roughnessFactor":0.5
			}
		}
	],
	"meshes":[
		{
			"name":"SM_Wall_Inner_8th_Door_01",
			"primitives":[
				{
					"attributes":{
						"POSITION":0,
						"NORMAL":1,
						"TEXCOORD_0":2,
						"TEXCOORD_1":3
					},
					"indices":4,
					"material":0
				},
				{
					"attributes":{
						"POSITION":5,
						"NORMAL":6,
						"TEXCOORD_0":7,
						"TEXCOORD_1":8
					},
					"indices":9,
					"material":1
				},
				{
					"attributes":{
						"POSITION":10,
						"NORMAL":11,
						"TEXCOORD_0":12,
						"TEXCOORD_1":13
					},
					"indices":9,
					"material":1
				}
			]
		},
		{
			"name":"SM_Wall_Inner_8th_Door_01.001",
			"primitives":[
				{
					"attributes":{
						"POSITION":14,
						"NORMAL":15,
						"TEXCOORD_0":16,
						"TEXCOORD_1":17
					},
					"indices":18,
					"material":0
				},
				{
					"attributes":{
						"POSITION":19,
						"NORMAL":20,
						"TEXCOORD_0":21,
						"TEXCOORD_1":22
					},
					"indices":23,
					"material":1
				},
				{
					"attributes":{
						"POSITION":24,
						"NORMAL":25,
						"TEXCOORD_0":26,
						"TEXCOORD_1":27
					},
					"indices":23,
					"material":1
				}
			]
		},
		{
			"name":"SM_Wall_Inner_8th_Door_01.002",
			"primitives":[
				{
					"attributes":{
						"POSITION":28,
						"NORMAL":29,
						"TEXCOORD_0":30,
						"TEXCOORD_1":31
					},
					"indices":32,
					"material":0
				},
				{
					"attributes":{
						"POSITION":33,
						"NORMAL":34,
						"TEXCOORD_0":35,
						"TEXCOORD_1":36
					},
					"indices":37,
					"material":1
				},
				{
					"attributes":{
						"POSITION":38,
						"NORMAL":39,
						"TEXCOORD_0":40,
						"TEXCOORD_1":41
					},
					"indices":42,
					"material":1
				}
			]
		},
		{
			"name":"SM_Wall_Inner_8th_Door_01.003",
			"primitives":[
				{
					"attributes":{
						"POSITION":43,
						"NORMAL":44,
						"TEXCOORD_0":45,
						"TEXCOORD_1":46
					},
					"indices":47,
					"material":0
				},
				{
					"attributes":{
						"POSITION":48,
						"NORMAL":49,
						"TEXCOORD_0":50,
						"TEXCOORD_1":51
					},
					"indices":42,
					"material":1
				},
				{
					"attributes":{
						"POSITION":52,
						"NORMAL":53,
						"TEXCOORD_0":54,
						"TEXCOORD_1":55
					},
					"indices":37,
					"material":1
				}
			]
		},
		{
			"name":"SM_Wall_Inner_8th_Door_01.004",
			"primitives":[
				{
					"attributes":{
						"POSITION":56,
						"NORMAL":57,
						"TEXCOORD_0":58,
						"TEXCOORD_1":59
					},
					"indices":4,
					"material":0
				},
				{
					"attributes":{
						"POSITION":60,
						"NORMAL":61,
						"TEXCOORD_0":62,
						"TEXCOORD_1":63
					},
					"indices":9,
					"material":1
				},
				{
					"attributes":{
						"POSITION":64,
						"NORMAL":65,
						"TEXCOORD_0":66,
						"TEXCOORD_1":67
					},
					"indices":9,
					"material":1
				}
			]
		}
	],
	"accessors":[
		{
			"bufferView":0,
			"componentType":5126,
			"count":206,
			"max":[
				1,
				2.4925448894500732,
				0.11843160539865494
			],
			"min":[
				-1.0000016689300537,
				-0.00016143798711709678,
				-0.11754221469163895
			],
			"type":"VEC3"
		},
		{
			"bufferView":1,
			"componentType":5126,
			"count":206,
			"type":"VEC3"
		},
		{
			"bufferView":2,
			"componentType":5126,
			"count":206,
			"type":"VEC2"
		},
		{
			"bufferView":3,
			"componentType":5126,
			"count":206,
			"type":"VEC2"
		},
		{
			"bufferView":4,
			"componentType":5123,
			"count":330,
			"type":"SCALAR"
		},
		{
			"bufferView":5,
			"componentType":5126,
			"count":8,
			"max":[
				1,
				3.0001235008239746,
				-0.10000117868185043
			],
			"min":[
				-1.0000015497207642,
				0.12237884104251862,
				-0.10000118613243103
			],
			"type":"VEC3"
		},
		{
			"bufferView":6,
			"componentType":5126,
			"count":8,
			"type":"VEC3"
		},
		{
			"bufferView":7,
			"componentType":5126,
			"count":8,
			"type":"VEC2"
		},
		{
			"bufferView":8,
			"componentType":5126,
			"count":8,
			"type":"VEC2"
		},
		{
			"bufferView":9,
			"componentType":5123,
			"count":18,
			"type":"SCALAR"
		},
		{
			"bufferView":10,
			"componentType":5126,
			"count":8,
			"max":[
				0.9999998807907104,
				3.0001235008239746,
				0.10000116378068924
			],
			"min":[
				-1.0000016689300537,
				0.12237884104251862,
				0.10000116378068924
			],
			"type":"VEC3"
		},
		{
			"bufferView":11,
			"componentType":5126,
			"count":8,
			"type":"VEC3"
		},
		{
			"bufferView":12,
			"componentType":5126,
			"count":8,
			"type":"VEC2"
		},
		{
			"bufferView":13,
			"componentType":5126,
			"count":8,
			"type":"VEC2"
		},
		{
			"bufferView":14,
			"componentType":5126,
			"count":52,
			"max":[
				0.749695897102356,
				2.4925448894500732,
				0.11843061447143555
			],
			"min":[
				-0.7347369194030762,
				2.392838954925537,
				-0.11754129827022552
			],
			"type":"VEC3"
		},
		{
			"bufferView":15,
			"componentType":5126,
			"count":52,
			"type":"VEC3"
		},
		{
			"bufferView":16,
			"componentType":5126,
			"count":52,
			"type":"VEC2"
		},
		{
			"bufferView":17,
			"componentType":5126,
			"count":52,
			"type":"VEC2"
		},
		{
			"bufferView":18,
			"componentType":5123,
			"count":78,
			"type":"SCALAR"
		},
		{
			"bufferView":19,
			"componentType":5126,
			"count":4,
			"max":[
				1,
				3.0001235008239746,
				-0.10000117868185043
			],
			"min":[
				-1.0000015497207642,
				2.4924652576446533,
				-0.10000118613243103
			],
			"type":"VEC3"
		},
		{
			"bufferView":20,
			"componentType":5126,
			"count":4,
			"type":"VEC3"
		},
		{
			"bufferView":21,
			"componentType":5126,
			"count":4,
			"type":"VEC2"
		},
		{
			"bufferView":22,
			"componentType":5126,
			"count":4,
			"type":"VEC2"
		},
		{
			"bufferView":23,
			"componentType":5123,
			"count":6,
			"type":"SCALAR"
		},
		{
			"bufferView":24,
			"componentType":5126,
			"count":4,
			"max":[
				0.9999998807907104,
				3.0001235008239746,
				0.10000116378068924
			],
			"min":[
				-1.0000016689300537,
				2.4924540519714355,
				0.10000116378068924
			],
			"type":"VEC3"
		},
		{
			"bufferView":25,
			"componentType":5126,
			"count":4,
			"type":"VEC3"
		},
		{
			"bufferView":26,
			"componentType":5126,
			"count":4,
			"type":"VEC2"
		},
		{
			"bufferView":27,
			"componentType":5126,
			"count":4,
			"type":"VEC2"
		},
		{
			"bufferView":28,
			"componentType":5126,
			"count":76,
			"max":[
				1,
				2.4925448894500732,
				0.11843160539865494
			],
			"min":[
				0.6501542329788208,
				-0.00016143798711709678,
				-0.11754221469163895
			],
			"type":"VEC3"
		},
		{
			"bufferView":29,
			"componentType":5126,
			"count":76,
			"type":"VEC3"
		},
		{
			"bufferView":30,
			"componentType":5126,
			"count":76,
			"type":"VEC2"
		},
		{
			"bufferView":31,
			"componentType":5126,
			"count":76,
			"type":"VEC2"
		},
		{
			"bufferView":32,
			"componentType":5123,
			"count":126,
			"type":"SCALAR"
		},
		{
			"bufferView":33,
			"componentType":5126,
			"count":3,
			"max":[
				1,
				2.4925339221954346,
				-0.10000117868185043
			],
			"min":[
				0.7496905326843262,
				0.12237884104251862,
				-0.10000117868185043
			],
			"type":"VEC3"
		},
		{
			"bufferView":34,
			"componentType":5126,
			"count":3,
			"type":"VEC3"
		},
		{
			"bufferView":35,
			"componentType":5126,
			"count":3,
			"type":"VEC2"
		},
		{
			"bufferView":36,
			"componentType":5126,
			"count":3,
			"type":"VEC2"
		},
		{
			"bufferView":37,
			"componentType":5123,
			"count":3,
			"type":"SCALAR"
		},
		{
			"bufferView":38,
			"componentType":5126,
			"count":3,
			"max":[
				0.9999998807907104,
				2.4925448894500732,
				0.10000116378068924
			],
			"min":[
				0.749695897102356,
				0.12257827818393707,
				0.10000116378068924
			],
			"type":"VEC3"
		},
		{
			"bufferView":39,
			"componentType":5126,
			"count":3,
			"type":"VEC3"
		},
		{
			"bufferView":40,
			"componentType":5126,
			"count":3,
			"type":"VEC2"
		},
		{
			"bufferView":41,
			"componentType":5126,
			"count":3,
			"type":"VEC2"
		},
		{
			"bufferView":42,
			"componentType":5123,
			"count":3,
			"type":"SCALAR"
		},
		{
			"bufferView":43,
			"componentType":5126,
			"count":78,
			"max":[
				-0.6357073187828064,
				2.4924652576446533,
				0.11843141913414001
			],
			"min":[
				-1.0000016689300537,
				-0.00012374877405818552,
				-0.11754221469163895
			],
			"type":"VEC3"
		},
		{
			"bufferView":44,
			"componentType":5126,
			"count":78,
			"type":"VEC3"
		},
		{
			"bufferView":45,
			"componentType":5126,
			"count":78,
			"type":"VEC2"
		},
		{
			"bufferView":46,
			"componentType":5126,
			"count":78,
			"type":"VEC2"
		},
		{
			"bufferView":47,
			"componentType":5123,
			"count":126,
			"type":"SCALAR"
		},
		{
			"bufferView":48,
			"componentType":5126,
			"count":3,
			"max":[
				-0.7347357273101807,
				2.4924652576446533,
				-0.10000117868185043
			],
			"min":[
				-1.0000015497207642,
				0.12257827818393707,
				-0.10000117868185043
			],
			"type":"VEC3"
		},
		{
			"bufferView":49,
			"componentType":5126,
			"count":3,
			"type":"VEC3"
		},
		{
			"bufferView":50,
			"componentType":5126,
			"count":3,
			"type":"VEC2"
		},
		{
			"bufferView":51,
			"componentType":5126,
			"count":3,
			"type":"VEC2"
		},
		{
			"bufferView":52,
			"componentType":5126,
			"count":3,
			"max":[
				-0.7347366213798523,
				2.4924540519714355,
				0.10000116378068924
			],
			"min":[
				-1.0000016689300537,
				0.12237884104251862,
				0.10000116378068924
			],
			"type":"VEC3"
		},
		{
			"bufferView":53,
			"componentType":5126,
			"count":3,
			"type":"VEC3"
		},
		{
			"bufferView":54,
			"componentType":5126,
			"count":3,
			"type":"VEC2"
		},
		{
			"bufferView":55,
			"componentType":5126,
			"count":3,
			"type":"VEC2"
		},
		{
			"bufferView":56,
			"componentType":5126,
			"count":206,
			"max":[
				1,
				2.4925448894500732,
				0.11843160539865494
			],
			"min":[
				-1.0000016689300537,
				-0.00016143798711709678,
				-0.11754221469163895
			],
			"type":"VEC3"
		},
		{
			"bufferView":57,
			"componentType":5126,
			"count":206,
			"type":"VEC3"
		},
		{
			"bufferView":58,
			"componentType":5126,
			"count":206,
			"type":"VEC2"
		},
		{
			"bufferView":59,
			"componentType":5126,
			"count":206,
			"type":"VEC2"
		},
		{
			"bufferView":60,
			"componentType":5126,
			"count":8,
			"max":[
				1,
				3.0001235008239746,
				-0.10000117868185043
			],
			"min":[
				-1.0000015497207642,
				0.12237884104251862,
				-0.10000118613243103
			],
			"type":"VEC3"
		},
		{
			"bufferView":61,
			"componentType":5126,
			"count":8,
			"type":"VEC3"
		},
		{
			"bufferView":62,
			"componentType":5126,
			"count":8,
			"type":"VEC2"
		},
		{
			"bufferView":63,
			"componentType":5126,
			"count":8,
			"type":"VEC2"
		},
		{
			"bufferView":64,
			"componentType":5126,
			"count":8,
			"max":[
				0.9999998807907104,
				3.0001235008239746,
				0.10000116378068924
			],
			"min":[
				-1.0000016689300537,
				0.12237884104251862,
				0.10000116378068924
			],
			"type":"VEC3"
		},
		{
			"bufferView":65,
			"componentType":5126,
			"count":8,
			"type":"VEC3"
		},
		{
			"bufferView":66,
			"componentType":5126,
			"count":8,
			"type":"VEC2"
		},
		{
			"bufferView":67,
			"componentType":5126,
			"count":8,
			"type":"VEC2"
		}
	],
	"bufferViews":[
		{
			"buffer":0,
			"byteLength":2472,
			"byteOffset":0,
			"target":34962
		},
		{
			"buffer":0,
			"byteLength":2472,
			"byteOffset":2472,
			"target":34962
		},
		{
			"buffer":0,
			"byteLength":1648,
			"byteOffset":4944,
			"target":34962
		},
		{
			"buffer":0,
			"byteLength":1648,
			"byteOffset":6592,
			"target":34962
		},
		{
			"buffer":0,
			"byteLength":660,
			"byteOffset":8240,
			"target":34963
		},
		{
			"buffer":0,
			"byteLength":96,
			"byteOffset":8900,
			"target":34962
		},
		{
			"buffer":0,
			"byteLength":96,
			"byteOffset":8996,
			"target":34962
		},
		{
			"buffer":0,
			"byteLength":64,
			"byteOffset":9092,
			"target":34962
		},
		{
			"buffer":0,
			"byteLength":64,
			"byteOffset":9156,
			"target":34962
		},
		{
			"buffer":0,
			"byteLength":36,
			"byteOffset":9220,
			"target":34963
		},
		{
			"buffer":0,
			"byteLength":96,
			"byteOffset":9256,
			"target":34962
		},
		{
			"buffer":0,
			"byteLength":96,
			"byteOffset":9352,
			"target":34962
		},
		{
			"buffer":0,
			"byteLength":64,
			"byteOffset":9448,
			"target":34962
		},
		{
			"buffer":0,
			"byteLength":64,
			"byteOffset":9512,
			"target":34962
		},
		{
			"buffer":0,
			"byteLength":624,
			"byteOffset":9576,
			"target":34962
		},
		{
			"buffer":0,
			"byteLength":624,
			"byteOffset":10200,
			"target":34962
		},
		{
			"buffer":0,
			"byteLength":416,
			"byteOffset":10824,
			"target":34962
		},
		{
			"buffer":0,
			"byteLength":416,
			"byteOffset":11240,
			"target":34962
		},
		{
			"buffer":0,
			"byteLength":156,
			"byteOffset":11656,
			"target":34963
		},
		{
			"buffer":0,
			"byteLength":48,
			"byteOffset":11812,
			"target":34962
		},
		{
			"buffer":0,
			"byteLength":48,
			"byteOffset":11860,
			"target":34962
		},
		{
			"buffer":0,
			"byteLength":32,
			"byteOffset":11908,
			"target":34962
		},
		{
			"buffer":0,
			"byteLength":32,
			"byteOffset":11940,
			"target":34962
		},
		{
			"buffer":0,
			"byteLength":12,
			"byteOffset":11972,
			"target":34963
		},
		{
			"buffer":0,
			"byteLength":48,
			"byteOffset":11984,
			"target":34962
		},
		{
			"buffer":0,
			"byteLength":48,
			"byteOffset":12032,
			"target":34962
		},
		{
			"buffer":0,
			"byteLength":32,
			"byteOffset":12080,
			"target":34962
		},
		{
			"buffer":0,
			"byteLength":32,
			"byteOffset":12112,
			"target":34962
		},
		{
			"buffer":0,
			"byteLength":912,
			"byteOffset":12144,
			"target":34962
		},
		{
			"buffer":0,
			"byteLength":912,
			"byteOffset":13056,
			"target":34962
		},
		{
			"buffer":0,
			"byteLength":608,
			"byteOffset":13968,
			"target":34962
		},
		{
			"buffer":0,
			"byteLength":608,
			"byteOffset":14576,
			"target":34962
		},
		{
			"buffer":0,
			"byteLength":252,
			"byteOffset":15184,
			"target":34963
		},
		{
			"buffer":0,
			"byteLength":36,
			"byteOffset":15436,
			"target":34962
		},
		{
			"buffer":0,
			"byteLength":36,
			"byteOffset":15472,
			"target":34962
		},
		{
			"buffer":0,
			"byteLength":24,
			"byteOffset":15508,
			"target":34962
		},
		{
			"buffer":0,
			"byteLength":24,
			"byteOffset":15532,
			"target":34962
		},
		{
			"buffer":0,
			"byteLength":6,
			"byteOffset":15556,
			"target":34963
		},
		{
			"buffer":0,
			"byteLength":36,
			"byteOffset":15564,
			"target":34962
		},
		{
			"buffer":0,
			"byteLength":36,
			"byteOffset":15600,
			"target":34962
		},
		{
			"buffer":0,
			"byteLength":24,
			"byteOffset":15636,
			"target":34962
		},
		{
			"buffer":0,
			"byteLength":24,
			"byteOffset":15660,
			"target":34962
		},
		{
			"buffer":0,
			"byteLength":6,
			"byteOffset":15684,
			"target":34963
		},
		{
			"buffer":0,
			"byteLength":936,
			"byteOffset":15692,
			"target":34962
		},
		{
			"buffer":0,
			"byteLength":936,
			"byteOffset":16628,
			"target":34962
		},
		{
			"buffer":0,
			"byteLength":624,
			"byteOffset":17564,
			"target":34962
		},
		{
			"buffer":0,
			"byteLength":624,
			"byteOffset":18188,
			"target":34962
		},
		{
			"buffer":0,
			"byteLength":252,
			"byteOffset":18812,
			"target":34963
		},
		{
			"buffer":0,
			"byteLength":36,
			"byteOffset":19064,
			"target":34962
		},
		{
			"buffer":0,
			"byteLength":36,
			"byteOffset":19100,
			"target":34962
		},
		{
			"buffer":0,
			"byteLength":24,
			"byteOffset":19136,
			"target":34962
		},
		{
			"buffer":0,
			"byteLength":24,
			"byteOffset":19160,
			"target":34962
		},
		{
			"buffer":0,
			"byteLength":36,
			"byteOffset":19184,
			"target":34962
		},
		{
			"buffer":0,
			"byteLength":36,
			"byteOffset":19220,
			"target":34962
		},
		{
			"buffer":0,
			"byteLength":24,
			"byteOffset":19256,
			"target":34962
		},
		{
			"buffer":0,
			"byteLength":24,
			"byteOffset":19280,
			"target":34962
		},
		{
			"buffer":0,
			"byteLength":2472,
			"byteOffset":19304,
			"target":34962
		},
		{
			"buffer":0,
			"byteLength":2472,
			"byteOffset":21776,
			"target":34962
		},
		{
			"buffer":0,
			"byteLength":1648,
			"byteOffset":24248,
			"target":34962
		},
		{
			"buffer":0,
			"byteLength":1648,
			"byteOffset":25896,
			"target":34962
		},
		{
			"buffer":0,
			"byteLength":96,
			"byteOffset":27544,
			"target":34962
		},
		{
			"buffer":0,
			"byteLength":96,
			"byteOffset":27640,
			"target":34962
		},
		{
			"buffer":0,
			"byteLength":64,
			"byteOffset":27736,
			"target":34962
		},
		{
			"buffer":0,
			"byteLength":64,
			"byteOffset":27800,
			"target":34962
		},
		{
			"buffer":0,
			"byteLength":96,
			"byteOffset":27864,
			"target":34962
		},
		{
			"buffer":0,
			"byteLength":96,
			"byteOffset":27960,
			"target":34962
		},
		{
			"buffer":0,
			"byteLength":64,
			"byteOffset":28056,
			"target":34962
		},
		{
			"buffer":0,
			"byteLength":64,
			"byteOffset":28120,
			"target":34962
		}
	],
	"buffers":[
		{
			"byteLength":28184,
			"uri":"SM_Wall_Inner_20dm_Door_01.bin"
		}
	]
}
