{
	"asset":{
		"generator":"Khronos glTF Blender I/O v5.0.21",
		"version":"2.0"
	},
	"scene":0,
	"scenes":[
		{
			"extras":{
				"NEXUS_ASSET_METADATA":{
					"asset_id":"asset_5a7ea4d9-3dc3-4c7e-9c11-5277ae88fcb7",
					"asset_name":"SM_kommode",
					"export_type":"ASSET",
					"root_type":"STATIC",
					"script_path":"",
					"godot_groups":[
						"prop"
					],
					"collision_layer":2,
					"collision_mask":131,
					"physics_material_path":"",
					"nexus_metadata":{},
					"nexus_light_bake_mode":1
				}
			},
			"name":"SM_kommode",
			"nodes":[
				0,
				1,
				2
			]
		}
	],
	"nodes":[
		{
			"extras":{
				"NEXUS_NODE_METADATA":{
					"uuid":"obj_a95d09d4-95a0-437c-923c-87d6e468438a",
					"discard_mesh":false,
					"nexus_collision_dims":{
						"shape":"BOX",
						"margin":1.0,
						"size_x":0.5,
						"size_y":0.45,
						"size_z":0.2,
						"radius":0.0,
						"height":0.0,
						"offset_x":0.0,
						"offset_y":0.5,
						"offset_z":-0.0
					}
				}
			},
			"mesh":0,
			"name":"kommode"
		},
		{
			"extras":{
				"NEXUS_NODE_METADATA":{
					"uuid":"obj_a95d09d4-95a0-437c-923c-87d6e468438a",
					"discard_mesh":false,
					"nexus_mesh_collision_shape":"RESONANCE_STATIC",
					"nexus_resonance_material_path":"res://addons/nexus_resonance/materials/wood.tres"
				}
			},
			"mesh":1,
			"name":"kommode_reso"
		},
		{
			"extras":{
				"NEXUS_NODE_METADATA":{
					"uuid":"obj_8ccb3290-e2ee-48d6-bf20-d33f13061190",
					"discard_mesh":false
				}
			},
			"mesh":2,
			"name":"Plane"
		}
	],
	"materials":[
		{
			"doubleSided":true,
			"extras":{
				"nexus_material_id":"mat_cf188f34-99ae-4dc8-ae0b-0bd57fa5d8ad"
			},
			"name":"DUMMY_Material_mat_",
			"pbrMetallicRoughness":{
				"baseColorFactor":[
					0.800000011920929,
					0.800000011920929,
					0.800000011920929,
					1
				],
				"metallicFactor":0,
				"roughnessFactor":0.5
			}
		},
		{
			"doubleSided":true,
			"extras":{
				"nexus_material_id":"mat_c4591640-0ecd-4632-9306-2703521a31eb"
			},
			"name":"DUMMY_Metal_mat_",
			"pbrMetallicRoughness":{
				"baseColorFactor":[
					0.800000011920929,
					0.800000011920929,
					0.800000011920929,
					1
				],
				"metallicFactor":0,
				"roughnessFactor":0.5
			}
		}
	],
	"meshes":[
		{
			"name":"Cube",
			"primitives":[
				{
					"attributes":{
						"POSITION":0,
						"NORMAL":1,
						"TEXCOORD_0":2
					},
					"indices":3,
					"material":0
				}
			]
		},
		{
			"name":"Cube.003",
			"primitives":[
				{
					"attributes":{
						"POSITION":4,
						"NORMAL":5,
						"TEXCOORD_0":6
					},
					"indices":3,
					"material":0
				}
			]
		},
		{
			"name":"Plane",
			"primitives":[
				{
					"attributes":{
						"POSITION":7,
						"NORMAL":8,
						"TEXCOORD_0":9
					},
					"indices":10,
					"material":1
				}
			]
		}
	],
	"accessors":[
		{
			"bufferView":0,
			"componentType":5126,
			"count":96,
			"max":[
				0.5,
				0.949999988079071,
				0.19999998807907104
			],
			"min":[
				-0.5,
				0.05000000074505806,
				-0.20000000298023224
			],
			"type":"VEC3"
		},
		{
			"bufferView":1,
			"componentType":5126,
			"count":96,
			"type":"VEC3"
		},
		{
			"bufferView":2,
			"componentType":5126,
			"count":96,
			"type":"VEC2"
		},
		{
			"bufferView":3,
			"componentType":5123,
			"count":222,
			"type":"SCALAR"
		},
		{
			"bufferView":4,
			"componentType":5126,
			"count":96,
			"max":[
				0.5,
				0.949999988079071,
				0.19999998807907104
			],
			"min":[
				-0.5,
				0.05000000074505806,
				-0.20000000298023224
			],
			"type":"VEC3"
		},
		{
			"bufferView":5,
			"componentType":5126,
			"count":96,
			"type":"VEC3"
		},
		{
			"bufferView":6,
			"componentType":5126,
			"count":96,
			"type":"VEC2"
		},
		{
			"bufferView":7,
			"componentType":5126,
			"count":548,
			"max":[
				0.4957088828086853,
				0.04984259232878685,
				0.19808754324913025
			],
			"min":[
				-0.4957088828086853,
				0,
				-0.19808754324913025
			],
			"type":"VEC3"
		},
		{
			"bufferView":8,
			"componentType":5126,
			"count":548,
			"type":"VEC3"
		},
		{
			"bufferView":9,
			"componentType":5126,
			"count":548,
			"type":"VEC2"
		},
		{
			"bufferView":10,
			"componentType":5123,
			"count":984,
			"type":"SCALAR"
		}
	],
	"bufferViews":[
		{
			"buffer":0,
			"byteLength":1152,
			"byteOffset":0,
			"target":34962
		},
		{
			"buffer":0,
			"byteLength":1152,
			"byteOffset":1152,
			"target":34962
		},
		{
			"buffer":0,
			"byteLength":768,
			"byteOffset":2304,
			"target":34962
		},
		{
			"buffer":0,
			"byteLength":444,
			"byteOffset":3072,
			"target":34963
		},
		{
			"buffer":0,
			"byteLength":1152,
			"byteOffset":3516,
			"target":34962
		},
		{
			"buffer":0,
			"byteLength":1152,
			"byteOffset":4668,
			"target":34962
		},
		{
			"buffer":0,
			"byteLength":768,
			"byteOffset":5820,
			"target":34962
		},
		{
			"buffer":0,
			"byteLength":6576,
			"byteOffset":6588,
			"target":34962
		},
		{
			"buffer":0,
			"byteLength":6576,
			"byteOffset":13164,
			"target":34962
		},
		{
			"buffer":0,
			"byteLength":4384,
			"byteOffset":19740,
			"target":34962
		},
		{
			"buffer":0,
			"byteLength":1968,
			"byteOffset":24124,
			"target":34963
		}
	],
	"buffers":[
		{
			"byteLength":26092,
			"uri":"SM_kommode.bin"
		}
	]
}
