{
	"asset":{
		"generator":"Khronos glTF Blender I/O v5.0.21",
		"version":"2.0"
	},
	"scene":0,
	"scenes":[
		{
			"extras":{
				"NEXUS_ASSET_METADATA":{
					"asset_id":"asset_19899808-b943-487a-a7c6-7e47972f0700",
					"asset_name":"SM_Wall_Inner_TCorner_01",
					"export_type":"ASSET",
					"root_type":"STATIC",
					"script_path":"",
					"godot_groups":[],
					"collision_layer":1,
					"collision_mask":131,
					"physics_material_path":"",
					"nexus_metadata":{},
					"nexus_light_bake_mode":1
				}
			},
			"name":"SM_Wall_Inner_TCorner_01",
			"nodes":[
				0,
				1,
				2,
				3
			]
		}
	],
	"nodes":[
		{
			"extras":{
				"MaxHandle":"3980",
				"NEXUS_NODE_METADATA":{
					"uuid":"obj_e14ced88-b735-4802-ae09-3ec47de0a4e1",
					"discard_mesh":false
				}
			},
			"mesh":0,
			"name":"SM_Wall_Inner_TCorner_01_mesh"
		},
		{
			"extras":{
				"MaxHandle":"3980",
				"NEXUS_NODE_METADATA":{
					"uuid":"obj_e14ced88-b735-4802-ae09-3ec47de0a4e1",
					"discard_mesh":true,
					"nexus_collision_dims":{
						"shape":"BOX",
						"margin":1.0,
						"size_x":0.118,
						"size_y":1.5,
						"size_z":0.5,
						"radius":0.0,
						"height":0.0,
						"offset_x":0.0005,
						"offset_y":1.5,
						"offset_z":0.0
					}
				}
			},
			"mesh":1,
			"name":"SM_Wall_Inner_TCorner_01_col001"
		},
		{
			"extras":{
				"MaxHandle":"3980",
				"NEXUS_NODE_METADATA":{
					"uuid":"obj_e14ced88-b735-4802-ae09-3ec47de0a4e1",
					"discard_mesh":true,
					"nexus_collision_dims":{
						"shape":"BOX",
						"margin":1.0,
						"size_x":0.2,
						"size_y":1.5,
						"size_z":0.1182,
						"radius":0.0,
						"height":0.0,
						"offset_x":0.3,
						"offset_y":1.5,
						"offset_z":0.0004
					}
				}
			},
			"mesh":2,
			"name":"SM_Wall_Inner_TCorner_01_col002"
		},
		{
			"extras":{
				"MaxHandle":"3980",
				"NEXUS_NODE_METADATA":{
					"uuid":"obj_e14ced88-b735-4802-ae09-3ec47de0a4e1",
					"discard_mesh":false,
					"nexus_mesh_collision_shape":"RESONANCE_STATIC",
					"nexus_resonance_material_path":"res://addons/nexus_resonance/materials/brick.tres"
				}
			},
			"mesh":3,
			"name":"SM_Wall_Inner_TCorner_01_reso"
		}
	],
	"materials":[
		{
			"doubleSided":true,
			"extras":{
				"nexus_material_id":"mat_7ba39fa3-600c-4376-aff8-ce6ccd502ff3"
			},
			"name":"DUMMY_M_WallFrame_01_mat_",
			"pbrMetallicRoughness":{
				"baseColorFactor":[
					0.800000011920929,
					0.800000011920929,
					0.800000011920929,
					1
				],
				"metallicFactor":0,
				"roughnessFactor":0.5
			}
		},
		{
			"doubleSided":true,
			"extras":{
				"nexus_material_id":"mat_59751b64-fe1b-4bf7-b2d9-ba6c90f52e34"
			},
			"name":"DUMMY_M_WallPaper_01_mat_",
			"pbrMetallicRoughness":{
				"baseColorFactor":[
					0.800000011920929,
					0.800000011920929,
					0.800000011920929,
					1
				],
				"metallicFactor":0,
				"roughnessFactor":0.5
			}
		}
	],
	"meshes":[
		{
			"name":"SM_Wall_Inner_16th_01.002",
			"primitives":[
				{
					"attributes":{
						"POSITION":0,
						"NORMAL":1,
						"TEXCOORD_0":2,
						"TEXCOORD_1":3
					},
					"indices":4,
					"material":0
				},
				{
					"attributes":{
						"POSITION":5,
						"NORMAL":6,
						"TEXCOORD_0":7,
						"TEXCOORD_1":8
					},
					"indices":9,
					"material":1
				}
			]
		},
		{
			"name":"SM_Wall_Inner_16th_01.013",
			"primitives":[
				{
					"attributes":{
						"POSITION":10,
						"NORMAL":11,
						"TEXCOORD_0":12,
						"TEXCOORD_1":13
					},
					"indices":14,
					"material":0
				},
				{
					"attributes":{
						"POSITION":15,
						"NORMAL":16,
						"TEXCOORD_0":17,
						"TEXCOORD_1":18
					},
					"indices":19,
					"material":1
				}
			]
		},
		{
			"name":"SM_Wall_Inner_16th_01.014",
			"primitives":[
				{
					"attributes":{
						"POSITION":20,
						"NORMAL":21,
						"TEXCOORD_0":22,
						"TEXCOORD_1":23
					},
					"indices":24,
					"material":0
				},
				{
					"attributes":{
						"POSITION":25,
						"NORMAL":26,
						"TEXCOORD_0":27,
						"TEXCOORD_1":28
					},
					"indices":29,
					"material":1
				}
			]
		},
		{
			"name":"SM_Wall_Inner_16th_01.006",
			"primitives":[
				{
					"attributes":{
						"POSITION":30,
						"NORMAL":31,
						"TEXCOORD_0":32,
						"TEXCOORD_1":33
					},
					"indices":4,
					"material":0
				},
				{
					"attributes":{
						"POSITION":34,
						"NORMAL":35,
						"TEXCOORD_0":36,
						"TEXCOORD_1":37
					},
					"indices":9,
					"material":1
				}
			]
		}
	],
	"accessors":[
		{
			"bufferView":0,
			"componentType":5126,
			"count":72,
			"max":[
				0.5000001192092896,
				0.12262618541717529,
				0.5000039935112
			],
			"min":[
				-0.11754216998815536,
				-3.556343214979486e-15,
				-0.5000002980232239
			],
			"type":"VEC3"
		},
		{
			"bufferView":1,
			"componentType":5126,
			"count":72,
			"type":"VEC3"
		},
		{
			"bufferView":2,
			"componentType":5126,
			"count":72,
			"type":"VEC2"
		},
		{
			"bufferView":3,
			"componentType":5126,
			"count":72,
			"type":"VEC2"
		},
		{
			"bufferView":4,
			"componentType":5123,
			"count":126,
			"type":"SCALAR"
		},
		{
			"bufferView":5,
			"componentType":5126,
			"count":24,
			"max":[
				0.5000000596046448,
				2.9999990463256836,
				0.5000039935112
			],
			"min":[
				-0.10000335425138474,
				0.12262618541717529,
				-0.5000002384185791
			],
			"type":"VEC3"
		},
		{
			"bufferView":6,
			"componentType":5126,
			"count":24,
			"type":"VEC3"
		},
		{
			"bufferView":7,
			"componentType":5126,
			"count":24,
			"type":"VEC2"
		},
		{
			"bufferView":8,
			"componentType":5126,
			"count":24,
			"type":"VEC2"
		},
		{
			"bufferView":9,
			"componentType":5123,
			"count":42,
			"type":"SCALAR"
		},
		{
			"bufferView":10,
			"componentType":5126,
			"count":48,
			"max":[
				0.11854684352874756,
				0.12262618541717529,
				0.5000039935112
			],
			"min":[
				-0.11754216998815536,
				-3.556343214979486e-15,
				-0.5000002980232239
			],
			"type":"VEC3"
		},
		{
			"bufferView":11,
			"componentType":5126,
			"count":48,
			"type":"VEC3"
		},
		{
			"bufferView":12,
			"componentType":5126,
			"count":48,
			"type":"VEC2"
		},
		{
			"bufferView":13,
			"componentType":5126,
			"count":48,
			"type":"VEC2"
		},
		{
			"bufferView":14,
			"componentType":5123,
			"count":90,
			"type":"SCALAR"
		},
		{
			"bufferView":15,
			"componentType":5126,
			"count":16,
			"max":[
				0.09999952465295792,
				2.9999990463256836,
				0.5000039935112
			],
			"min":[
				-0.10000335425138474,
				0.12262618541717529,
				-0.5000002384185791
			],
			"type":"VEC3"
		},
		{
			"bufferView":16,
			"componentType":5126,
			"count":16,
			"type":"VEC3"
		},
		{
			"bufferView":17,
			"componentType":5126,
			"count":16,
			"type":"VEC2"
		},
		{
			"bufferView":18,
			"componentType":5126,
			"count":16,
			"type":"VEC2"
		},
		{
			"bufferView":19,
			"componentType":5123,
			"count":30,
			"type":"SCALAR"
		},
		{
			"bufferView":20,
			"componentType":5126,
			"count":24,
			"max":[
				0.5000001192092896,
				0.12262618541717529,
				0.11854690313339233
			],
			"min":[
				0.09999950230121613,
				-3.556343214979486e-15,
				-0.11779247224330902
			],
			"type":"VEC3"
		},
		{
			"bufferView":21,
			"componentType":5126,
			"count":24,
			"type":"VEC3"
		},
		{
			"bufferView":22,
			"componentType":5126,
			"count":24,
			"type":"VEC2"
		},
		{
			"bufferView":23,
			"componentType":5126,
			"count":24,
			"type":"VEC2"
		},
		{
			"bufferView":24,
			"componentType":5123,
			"count":36,
			"type":"SCALAR"
		},
		{
			"bufferView":25,
			"componentType":5126,
			"count":8,
			"max":[
				0.5000000596046448,
				2.9999990463256836,
				0.09999954700469971
			],
			"min":[
				0.09999950230121613,
				0.12262618541717529,
				-0.10000336170196533
			],
			"type":"VEC3"
		},
		{
			"bufferView":26,
			"componentType":5126,
			"count":8,
			"type":"VEC3"
		},
		{
			"bufferView":27,
			"componentType":5126,
			"count":8,
			"type":"VEC2"
		},
		{
			"bufferView":28,
			"componentType":5126,
			"count":8,
			"type":"VEC2"
		},
		{
			"bufferView":29,
			"componentType":5123,
			"count":12,
			"type":"SCALAR"
		},
		{
			"bufferView":30,
			"componentType":5126,
			"count":72,
			"max":[
				0.5000001192092896,
				0.12262618541717529,
				0.5000039935112
			],
			"min":[
				-0.11754216998815536,
				-3.556343214979486e-15,
				-0.5000002980232239
			],
			"type":"VEC3"
		},
		{
			"bufferView":31,
			"componentType":5126,
			"count":72,
			"type":"VEC3"
		},
		{
			"bufferView":32,
			"componentType":5126,
			"count":72,
			"type":"VEC2"
		},
		{
			"bufferView":33,
			"componentType":5126,
			"count":72,
			"type":"VEC2"
		},
		{
			"bufferView":34,
			"componentType":5126,
			"count":24,
			"max":[
				0.5000000596046448,
				2.9999990463256836,
				0.5000039935112
			],
			"min":[
				-0.10000335425138474,
				0.12262618541717529,
				-0.5000002384185791
			],
			"type":"VEC3"
		},
		{
			"bufferView":35,
			"componentType":5126,
			"count":24,
			"type":"VEC3"
		},
		{
			"bufferView":36,
			"componentType":5126,
			"count":24,
			"type":"VEC2"
		},
		{
			"bufferView":37,
			"componentType":5126,
			"count":24,
			"type":"VEC2"
		}
	],
	"bufferViews":[
		{
			"buffer":0,
			"byteLength":864,
			"byteOffset":0,
			"target":34962
		},
		{
			"buffer":0,
			"byteLength":864,
			"byteOffset":864,
			"target":34962
		},
		{
			"buffer":0,
			"byteLength":576,
			"byteOffset":1728,
			"target":34962
		},
		{
			"buffer":0,
			"byteLength":576,
			"byteOffset":2304,
			"target":34962
		},
		{
			"buffer":0,
			"byteLength":252,
			"byteOffset":2880,
			"target":34963
		},
		{
			"buffer":0,
			"byteLength":288,
			"byteOffset":3132,
			"target":34962
		},
		{
			"buffer":0,
			"byteLength":288,
			"byteOffset":3420,
			"target":34962
		},
		{
			"buffer":0,
			"byteLength":192,
			"byteOffset":3708,
			"target":34962
		},
		{
			"buffer":0,
			"byteLength":192,
			"byteOffset":3900,
			"target":34962
		},
		{
			"buffer":0,
			"byteLength":84,
			"byteOffset":4092,
			"target":34963
		},
		{
			"buffer":0,
			"byteLength":576,
			"byteOffset":4176,
			"target":34962
		},
		{
			"buffer":0,
			"byteLength":576,
			"byteOffset":4752,
			"target":34962
		},
		{
			"buffer":0,
			"byteLength":384,
			"byteOffset":5328,
			"target":34962
		},
		{
			"buffer":0,
			"byteLength":384,
			"byteOffset":5712,
			"target":34962
		},
		{
			"buffer":0,
			"byteLength":180,
			"byteOffset":6096,
			"target":34963
		},
		{
			"buffer":0,
			"byteLength":192,
			"byteOffset":6276,
			"target":34962
		},
		{
			"buffer":0,
			"byteLength":192,
			"byteOffset":6468,
			"target":34962
		},
		{
			"buffer":0,
			"byteLength":128,
			"byteOffset":6660,
			"target":34962
		},
		{
			"buffer":0,
			"byteLength":128,
			"byteOffset":6788,
			"target":34962
		},
		{
			"buffer":0,
			"byteLength":60,
			"byteOffset":6916,
			"target":34963
		},
		{
			"buffer":0,
			"byteLength":288,
			"byteOffset":6976,
			"target":34962
		},
		{
			"buffer":0,
			"byteLength":288,
			"byteOffset":7264,
			"target":34962
		},
		{
			"buffer":0,
			"byteLength":192,
			"byteOffset":7552,
			"target":34962
		},
		{
			"buffer":0,
			"byteLength":192,
			"byteOffset":7744,
			"target":34962
		},
		{
			"buffer":0,
			"byteLength":72,
			"byteOffset":7936,
			"target":34963
		},
		{
			"buffer":0,
			"byteLength":96,
			"byteOffset":8008,
			"target":34962
		},
		{
			"buffer":0,
			"byteLength":96,
			"byteOffset":8104,
			"target":34962
		},
		{
			"buffer":0,
			"byteLength":64,
			"byteOffset":8200,
			"target":34962
		},
		{
			"buffer":0,
			"byteLength":64,
			"byteOffset":8264,
			"target":34962
		},
		{
			"buffer":0,
			"byteLength":24,
			"byteOffset":8328,
			"target":34963
		},
		{
			"buffer":0,
			"byteLength":864,
			"byteOffset":8352,
			"target":34962
		},
		{
			"buffer":0,
			"byteLength":864,
			"byteOffset":9216,
			"target":34962
		},
		{
			"buffer":0,
			"byteLength":576,
			"byteOffset":10080,
			"target":34962
		},
		{
			"buffer":0,
			"byteLength":576,
			"byteOffset":10656,
			"target":34962
		},
		{
			"buffer":0,
			"byteLength":288,
			"byteOffset":11232,
			"target":34962
		},
		{
			"buffer":0,
			"byteLength":288,
			"byteOffset":11520,
			"target":34962
		},
		{
			"buffer":0,
			"byteLength":192,
			"byteOffset":11808,
			"target":34962
		},
		{
			"buffer":0,
			"byteLength":192,
			"byteOffset":12000,
			"target":34962
		}
	],
	"buffers":[
		{
			"byteLength":12192,
			"uri":"SM_Wall_Inner_TCorner_01.bin"
		}
	]
}
