{
	"asset":{
		"generator":"Khronos glTF Blender I/O v5.0.21",
		"version":"2.0"
	},
	"scene":0,
	"scenes":[
		{
			"extras":{
				"NEXUS_ASSET_METADATA":{
					"asset_id":"asset_75f3ef6d-bf62-412e-b96e-f73f708f80d5",
					"asset_name":"SM_StairsHandle_01",
					"export_type":"ASSET",
					"root_type":"STATIC",
					"script_path":"",
					"godot_groups":[],
					"collision_layer":1,
					"collision_mask":131,
					"physics_material_path":"",
					"nexus_metadata":{},
					"nexus_light_bake_mode":1
				}
			},
			"name":"SM_StairsHandle_01",
			"nodes":[
				0,
				1,
				2
			]
		}
	],
	"nodes":[
		{
			"extras":{
				"NEXUS_NODE_METADATA":{
					"uuid":"obj_d4502333-765c-46b7-bff7-6e0b83dcd9c9",
					"discard_mesh":false
				}
			},
			"mesh":0,
			"name":"Plane"
		},
		{
			"extras":{
				"NEXUS_NODE_METADATA":{
					"uuid":"obj_f71d3b03-57e3-4508-8b0e-87d3ebb18374",
					"discard_mesh":true,
					"nexus_mesh_collision_shape":"TRIMESH",
					"nexus_collision_dims":{
						"shape":"TRIMESH",
						"margin":1.0,
						"size_x":0.0,
						"size_y":0.0,
						"size_z":0.0,
						"radius":0.0,
						"height":0.0,
						"offset_x":0.0,
						"offset_y":0.0,
						"offset_z":0.0
					}
				}
			},
			"mesh":0,
			"name":"Plane_col"
		},
		{
			"extras":{
				"NEXUS_NODE_METADATA":{
					"uuid":"obj_d4502333-765c-46b7-bff7-6e0b83dcd9c9",
					"discard_mesh":false,
					"nexus_mesh_collision_shape":"RESONANCE_STATIC",
					"nexus_resonance_material_path":"res://addons/nexus_resonance/materials/wood.tres"
				}
			},
			"mesh":1,
			"name":"Plane_reso"
		}
	],
	"materials":[
		{
			"doubleSided":true,
			"extras":{
				"nexus_material_id":"mat_7ba39fa3-600c-4376-aff8-ce6ccd502ff3"
			},
			"name":"DUMMY_M_WallFrame_01_mat_",
			"pbrMetallicRoughness":{
				"baseColorFactor":[
					0.800000011920929,
					0.800000011920929,
					0.800000011920929,
					1
				],
				"metallicFactor":0,
				"roughnessFactor":0.5
			}
		}
	],
	"meshes":[
		{
			"name":"Plane",
			"primitives":[
				{
					"attributes":{
						"POSITION":0,
						"NORMAL":1,
						"TEXCOORD_0":2
					},
					"indices":3,
					"material":0
				}
			]
		},
		{
			"name":"Plane.003",
			"primitives":[
				{
					"attributes":{
						"POSITION":4,
						"NORMAL":5,
						"TEXCOORD_0":6
					},
					"indices":3,
					"material":0
				}
			]
		}
	],
	"accessors":[
		{
			"bufferView":0,
			"componentType":5126,
			"count":230,
			"max":[
				0.18313121795654297,
				0.10400949418544769,
				0.055087409913539886
			],
			"min":[
				-3.9830188751220703,
				-2.708280324935913,
				-0.061500824987888336
			],
			"type":"VEC3"
		},
		{
			"bufferView":1,
			"componentType":5126,
			"count":230,
			"type":"VEC3"
		},
		{
			"bufferView":2,
			"componentType":5126,
			"count":230,
			"type":"VEC2"
		},
		{
			"bufferView":3,
			"componentType":5123,
			"count":408,
			"type":"SCALAR"
		},
		{
			"bufferView":4,
			"componentType":5126,
			"count":230,
			"max":[
				0.18313121795654297,
				0.10400949418544769,
				0.055087409913539886
			],
			"min":[
				-3.9830188751220703,
				-2.708280324935913,
				-0.061500824987888336
			],
			"type":"VEC3"
		},
		{
			"bufferView":5,
			"componentType":5126,
			"count":230,
			"type":"VEC3"
		},
		{
			"bufferView":6,
			"componentType":5126,
			"count":230,
			"type":"VEC2"
		}
	],
	"bufferViews":[
		{
			"buffer":0,
			"byteLength":2760,
			"byteOffset":0,
			"target":34962
		},
		{
			"buffer":0,
			"byteLength":2760,
			"byteOffset":2760,
			"target":34962
		},
		{
			"buffer":0,
			"byteLength":1840,
			"byteOffset":5520,
			"target":34962
		},
		{
			"buffer":0,
			"byteLength":816,
			"byteOffset":7360,
			"target":34963
		},
		{
			"buffer":0,
			"byteLength":2760,
			"byteOffset":8176,
			"target":34962
		},
		{
			"buffer":0,
			"byteLength":2760,
			"byteOffset":10936,
			"target":34962
		},
		{
			"buffer":0,
			"byteLength":1840,
			"byteOffset":13696,
			"target":34962
		}
	],
	"buffers":[
		{
			"byteLength":15536,
			"uri":"SM_StairsHandle_01.bin"
		}
	]
}
