{
	"asset":{
		"generator":"Khronos glTF Blender I/O v5.0.21",
		"version":"2.0"
	},
	"scene":0,
	"scenes":[
		{
			"extras":{
				"NEXUS_ASSET_METADATA":{
					"asset_id":"asset_93f53a81-58ad-4bf6-9f22-fbf7f8d6fe3e",
					"asset_name":"SM_Door",
					"export_type":"ASSET",
					"root_type":"ANIMATABLE",
					"script_path":"",
					"godot_groups":[],
					"collision_layer":1,
					"collision_mask":1,
					"physics_material_path":"",
					"nexus_metadata":{},
					"animatable_sync_to_physics":false,
					"nexus_light_bake_mode":0
				}
			},
			"name":"SM_Door",
			"nodes":[
				0,
				1,
				2,
				3
			]
		}
	],
	"nodes":[
		{
			"extras":{
				"NEXUS_NODE_METADATA":{
					"uuid":"obj_3e41e70d-7515-4520-9676-085133cce061",
					"discard_mesh":false
				}
			},
			"mesh":0,
			"name":"SM_Door_mesh"
		},
		{
			"extras":{
				"NEXUS_NODE_METADATA":{
					"uuid":"obj_d49b76c3-8ad5-4885-a50a-7a3f4992d339",
					"discard_mesh":true,
					"nexus_collision_dims":{
						"shape":"BOX",
						"margin":1.0,
						"size_x":0.6526,
						"size_y":1.2,
						"size_z":0.0432,
						"radius":0.0,
						"height":0.0,
						"offset_x":0.6452,
						"offset_y":1.1997,
						"offset_z":0.0193
					}
				}
			},
			"mesh":1,
			"name":"SM_Door_collision"
		},
		{
			"extras":{
				"NEXUS_NODE_METADATA":{
					"uuid":"obj_6f656aa4-8784-4dee-9355-720294c7fb92",
					"discard_mesh":true,
					"nexus_collision_dims":{
						"shape":"BOX",
						"margin":1.0,
						"size_x":0.0913,
						"size_y":0.0333,
						"size_z":0.0948,
						"radius":0.0,
						"height":0.0,
						"offset_x":1.1799,
						"offset_y":1.2001,
						"offset_z":0.0305
					}
				}
			},
			"mesh":2,
			"name":"SM_Door_knob_collision"
		},
		{
			"extras":{
				"NEXUS_NODE_METADATA":{
					"uuid":"obj_0ed4e93a-ca9e-4906-86f3-1ecd0e0d6828",
					"discard_mesh":true,
					"nexus_mesh_collision_shape":"RESONANCE_DYNAMIC",
					"nexus_resonance_material_path":"res://addons/nexus_resonance/materials/wood.tres"
				}
			},
			"mesh":3,
			"name":"SM_Door_reso"
		}
	],
	"materials":[
		{
			"doubleSided":true,
			"extras":{
				"nexus_material_id":"mat_bc2ee97c-f087-411e-9a5e-3f4dd09fb400"
			},
			"name":"DUMMY_M_Door_mat_",
			"pbrMetallicRoughness":{
				"baseColorFactor":[
					0.800000011920929,
					0.800000011920929,
					0.800000011920929,
					1
				],
				"metallicFactor":0,
				"roughnessFactor":0.5
			}
		},
		{
			"doubleSided":true,
			"extras":{
				"nexus_material_id":"mat_49d77fa6-98dc-4da2-a920-135d68c1ab9a"
			},
			"name":"DUMMY_M_Door_Metal_mat_",
			"pbrMetallicRoughness":{
				"baseColorFactor":[
					0.800000011920929,
					0.800000011920929,
					0.800000011920929,
					1
				],
				"metallicFactor":0,
				"roughnessFactor":0.5
			}
		}
	],
	"meshes":[
		{
			"name":"SM_Door",
			"primitives":[
				{
					"attributes":{
						"POSITION":0,
						"NORMAL":1,
						"TEXCOORD_0":2,
						"TEXCOORD_1":3
					},
					"indices":4,
					"material":0
				},
				{
					"attributes":{
						"POSITION":5,
						"NORMAL":6,
						"TEXCOORD_0":7,
						"TEXCOORD_1":8
					},
					"indices":9,
					"material":1
				}
			]
		},
		{
			"name":"SM_Door.001",
			"primitives":[
				{
					"attributes":{
						"POSITION":10,
						"NORMAL":11,
						"TEXCOORD_0":12,
						"TEXCOORD_1":13
					},
					"indices":14
				}
			]
		},
		{
			"name":"SM_Door.002",
			"primitives":[
				{
					"attributes":{
						"POSITION":15,
						"NORMAL":16,
						"TEXCOORD_0":17,
						"TEXCOORD_1":18
					},
					"indices":19
				}
			]
		},
		{
			"name":"Cube",
			"primitives":[
				{
					"attributes":{
						"POSITION":20,
						"NORMAL":21,
						"TEXCOORD_0":22
					},
					"indices":23
				}
			]
		}
	],
	"accessors":[
		{
			"bufferView":0,
			"componentType":5126,
			"count":296,
			"max":[
				1.3015997409820557,
				2.399686574935913,
				0.05387899652123451
			],
			"min":[
				-9.729690646054223e-05,
				-0.0003133850113954395,
				0.007383707445114851
			],
			"type":"VEC3"
		},
		{
			"bufferView":1,
			"componentType":5126,
			"count":296,
			"type":"VEC3"
		},
		{
			"bufferView":2,
			"componentType":5126,
			"count":296,
			"type":"VEC2"
		},
		{
			"bufferView":3,
			"componentType":5126,
			"count":296,
			"type":"VEC2"
		},
		{
			"bufferView":4,
			"componentType":5123,
			"count":564,
			"type":"SCALAR"
		},
		{
			"bufferView":5,
			"componentType":5126,
			"count":5759,
			"max":[
				1.2706037759780884,
				2.220301866531372,
				0.12525640428066254
			],
			"min":[
				-0.007373359519988298,
				0.49740180373191833,
				-0.06427034735679626
			],
			"type":"VEC3"
		},
		{
			"bufferView":6,
			"componentType":5126,
			"count":5759,
			"type":"VEC3"
		},
		{
			"bufferView":7,
			"componentType":5126,
			"count":5759,
			"type":"VEC2"
		},
		{
			"bufferView":8,
			"componentType":5126,
			"count":5759,
			"type":"VEC2"
		},
		{
			"bufferView":9,
			"componentType":5123,
			"count":13644,
			"type":"SCALAR"
		},
		{
			"bufferView":10,
			"componentType":5126,
			"count":4549,
			"max":[
				1.297741174697876,
				2.399686574935913,
				0.06243496760725975
			],
			"min":[
				-0.007373359519988298,
				-0.0003133850113954395,
				-0.02387707680463791
			],
			"type":"VEC3"
		},
		{
			"bufferView":11,
			"componentType":5126,
			"count":4549,
			"type":"VEC3"
		},
		{
			"bufferView":12,
			"componentType":5126,
			"count":4549,
			"type":"VEC2"
		},
		{
			"bufferView":13,
			"componentType":5126,
			"count":4549,
			"type":"VEC2"
		},
		{
			"bufferView":14,
			"componentType":5123,
			"count":8520,
			"type":"SCALAR"
		},
		{
			"bufferView":15,
			"componentType":5126,
			"count":1506,
			"max":[
				1.2711842060089111,
				1.2333794832229614,
				0.12525640428066254
			],
			"min":[
				1.0886672735214233,
				1.1668541431427002,
				-0.06427034735679626
			],
			"type":"VEC3"
		},
		{
			"bufferView":16,
			"componentType":5126,
			"count":1506,
			"type":"VEC3"
		},
		{
			"bufferView":17,
			"componentType":5126,
			"count":1506,
			"type":"VEC2"
		},
		{
			"bufferView":18,
			"componentType":5126,
			"count":1506,
			"type":"VEC2"
		},
		{
			"bufferView":19,
			"componentType":5123,
			"count":5688,
			"type":"SCALAR"
		},
		{
			"bufferView":20,
			"componentType":5126,
			"count":24,
			"max":[
				1.2994298934936523,
				2.4000000953674316,
				0.06495310366153717
			],
			"min":[
				0,
				0,
				0.001478661666624248
			],
			"type":"VEC3"
		},
		{
			"bufferView":21,
			"componentType":5126,
			"count":24,
			"type":"VEC3"
		},
		{
			"bufferView":22,
			"componentType":5126,
			"count":24,
			"type":"VEC2"
		},
		{
			"bufferView":23,
			"componentType":5123,
			"count":36,
			"type":"SCALAR"
		}
	],
	"bufferViews":[
		{
			"buffer":0,
			"byteLength":3552,
			"byteOffset":0,
			"target":34962
		},
		{
			"buffer":0,
			"byteLength":3552,
			"byteOffset":3552,
			"target":34962
		},
		{
			"buffer":0,
			"byteLength":2368,
			"byteOffset":7104,
			"target":34962
		},
		{
			"buffer":0,
			"byteLength":2368,
			"byteOffset":9472,
			"target":34962
		},
		{
			"buffer":0,
			"byteLength":1128,
			"byteOffset":11840,
			"target":34963
		},
		{
			"buffer":0,
			"byteLength":69108,
			"byteOffset":12968,
			"target":34962
		},
		{
			"buffer":0,
			"byteLength":69108,
			"byteOffset":82076,
			"target":34962
		},
		{
			"buffer":0,
			"byteLength":46072,
			"byteOffset":151184,
			"target":34962
		},
		{
			"buffer":0,
			"byteLength":46072,
			"byteOffset":197256,
			"target":34962
		},
		{
			"buffer":0,
			"byteLength":27288,
			"byteOffset":243328,
			"target":34963
		},
		{
			"buffer":0,
			"byteLength":54588,
			"byteOffset":270616,
			"target":34962
		},
		{
			"buffer":0,
			"byteLength":54588,
			"byteOffset":325204,
			"target":34962
		},
		{
			"buffer":0,
			"byteLength":36392,
			"byteOffset":379792,
			"target":34962
		},
		{
			"buffer":0,
			"byteLength":36392,
			"byteOffset":416184,
			"target":34962
		},
		{
			"buffer":0,
			"byteLength":17040,
			"byteOffset":452576,
			"target":34963
		},
		{
			"buffer":0,
			"byteLength":18072,
			"byteOffset":469616,
			"target":34962
		},
		{
			"buffer":0,
			"byteLength":18072,
			"byteOffset":487688,
			"target":34962
		},
		{
			"buffer":0,
			"byteLength":12048,
			"byteOffset":505760,
			"target":34962
		},
		{
			"buffer":0,
			"byteLength":12048,
			"byteOffset":517808,
			"target":34962
		},
		{
			"buffer":0,
			"byteLength":11376,
			"byteOffset":529856,
			"target":34963
		},
		{
			"buffer":0,
			"byteLength":288,
			"byteOffset":541232,
			"target":34962
		},
		{
			"buffer":0,
			"byteLength":288,
			"byteOffset":541520,
			"target":34962
		},
		{
			"buffer":0,
			"byteLength":192,
			"byteOffset":541808,
			"target":34962
		},
		{
			"buffer":0,
			"byteLength":72,
			"byteOffset":542000,
			"target":34963
		}
	],
	"buffers":[
		{
			"byteLength":542072,
			"uri":"SM_Door.bin"
		}
	]
}
