{
	"asset":{
		"generator":"Khronos glTF Blender I/O v5.0.21",
		"version":"2.0"
	},
	"scene":0,
	"scenes":[
		{
			"extras":{
				"NEXUS_ASSET_METADATA":{
					"asset_id":"asset_ec1c927c-998e-4da6-9b46-c9a32fddd2ed",
					"asset_name":"SM_Wall_Inner_40dm_Door_01",
					"export_type":"ASSET",
					"root_type":"STATIC",
					"script_path":"",
					"godot_groups":[],
					"collision_layer":1,
					"collision_mask":131,
					"physics_material_path":"",
					"nexus_metadata":{},
					"nexus_light_bake_mode":1
				}
			},
			"name":"SM_Wall_Inner_40dm_Door_01",
			"nodes":[
				0,
				1,
				2,
				3,
				4
			]
		}
	],
	"nodes":[
		{
			"extras":{
				"MaxHandle":"4003",
				"NEXUS_NODE_METADATA":{
					"uuid":"obj_dd30a11e-1ee6-4198-9955-3322081adb75",
					"discard_mesh":false
				}
			},
			"mesh":0,
			"name":"SM_Wall_Inner_40dm_Door_01"
		},
		{
			"extras":{
				"MaxHandle":"4003",
				"NEXUS_NODE_METADATA":{
					"uuid":"obj_804d34f8-f657-457d-a587-d8d58e4b8a1f",
					"discard_mesh":true,
					"nexus_collision_dims":{
						"shape":"BOX",
						"margin":1.0,
						"size_x":2.0,
						"size_y":0.3036,
						"size_z":0.118,
						"radius":0.0,
						"height":0.0,
						"offset_x":0.0,
						"offset_y":2.6965,
						"offset_z":0.0004
					}
				}
			},
			"mesh":1,
			"name":"SM_Wall_Inner_40dm_Door_01.col001"
		},
		{
			"extras":{
				"MaxHandle":"4003",
				"NEXUS_NODE_METADATA":{
					"uuid":"obj_5c1a1874-d2b5-40e3-8edd-928a5216b16a",
					"discard_mesh":true,
					"nexus_collision_dims":{
						"shape":"BOX",
						"margin":1.0,
						"size_x":0.6749,
						"size_y":1.2464,
						"size_z":0.118,
						"radius":0.0,
						"height":0.0,
						"offset_x":1.3251,
						"offset_y":1.2462,
						"offset_z":0.0004
					}
				}
			},
			"mesh":2,
			"name":"SM_Wall_Inner_40dm_Door_01.col002"
		},
		{
			"extras":{
				"MaxHandle":"4003",
				"NEXUS_NODE_METADATA":{
					"uuid":"obj_32ee6b42-5c8c-4451-ac9a-e5ab9e980fc5",
					"discard_mesh":true,
					"nexus_collision_dims":{
						"shape":"BOX",
						"margin":1.0,
						"size_x":0.6821,
						"size_y":1.2463,
						"size_z":0.118,
						"radius":0.0,
						"height":0.0,
						"offset_x":-1.3179,
						"offset_y":1.2462,
						"offset_z":0.0004
					}
				}
			},
			"mesh":3,
			"name":"SM_Wall_Inner_40dm_Door_01.col003"
		},
		{
			"extras":{
				"MaxHandle":"4003",
				"NEXUS_NODE_METADATA":{
					"uuid":"obj_dd30a11e-1ee6-4198-9955-3322081adb75",
					"discard_mesh":true,
					"nexus_mesh_collision_shape":"RESONANCE_STATIC",
					"nexus_resonance_material_path":"res://addons/nexus_resonance/materials/brick.tres"
				}
			},
			"mesh":4,
			"name":"SM_Wall_Inner_40dm_Door_01_reso"
		}
	],
	"materials":[
		{
			"doubleSided":true,
			"extras":{
				"nexus_material_id":"mat_7ba39fa3-600c-4376-aff8-ce6ccd502ff3"
			},
			"name":"DUMMY_M_WallFrame_01_mat_",
			"pbrMetallicRoughness":{
				"baseColorFactor":[
					0.800000011920929,
					0.800000011920929,
					0.800000011920929,
					1
				],
				"metallicFactor":0,
				"roughnessFactor":0.5
			}
		},
		{
			"doubleSided":true,
			"extras":{
				"nexus_material_id":"mat_59751b64-fe1b-4bf7-b2d9-ba6c90f52e34"
			},
			"name":"DUMMY_M_WallPaper_01_mat_",
			"pbrMetallicRoughness":{
				"baseColorFactor":[
					0.800000011920929,
					0.800000011920929,
					0.800000011920929,
					1
				],
				"metallicFactor":0,
				"roughnessFactor":0.5
			}
		}
	],
	"meshes":[
		{
			"name":"SM_Wall_Inner_Quart_Door_01",
			"primitives":[
				{
					"attributes":{
						"POSITION":0,
						"NORMAL":1,
						"TEXCOORD_0":2,
						"TEXCOORD_1":3
					},
					"indices":4,
					"material":0
				},
				{
					"attributes":{
						"POSITION":5,
						"NORMAL":6,
						"TEXCOORD_0":7,
						"TEXCOORD_1":8
					},
					"indices":9,
					"material":1
				},
				{
					"attributes":{
						"POSITION":10,
						"NORMAL":11,
						"TEXCOORD_0":12,
						"TEXCOORD_1":13
					},
					"indices":9,
					"material":1
				}
			]
		},
		{
			"name":"SM_Wall_Inner_Quart_Door_01.001",
			"primitives":[
				{
					"attributes":{
						"POSITION":14,
						"NORMAL":15,
						"TEXCOORD_0":16,
						"TEXCOORD_1":17
					},
					"indices":18,
					"material":0
				},
				{
					"attributes":{
						"POSITION":19,
						"NORMAL":20,
						"TEXCOORD_0":21,
						"TEXCOORD_1":22
					},
					"indices":23,
					"material":1
				},
				{
					"attributes":{
						"POSITION":24,
						"NORMAL":25,
						"TEXCOORD_0":26,
						"TEXCOORD_1":27
					},
					"indices":23,
					"material":1
				}
			]
		},
		{
			"name":"SM_Wall_Inner_Quart_Door_01.002",
			"primitives":[
				{
					"attributes":{
						"POSITION":28,
						"NORMAL":29,
						"TEXCOORD_0":30,
						"TEXCOORD_1":31
					},
					"indices":32,
					"material":0
				},
				{
					"attributes":{
						"POSITION":33,
						"NORMAL":34,
						"TEXCOORD_0":35,
						"TEXCOORD_1":36
					},
					"indices":37,
					"material":1
				},
				{
					"attributes":{
						"POSITION":38,
						"NORMAL":39,
						"TEXCOORD_0":40,
						"TEXCOORD_1":41
					},
					"indices":37,
					"material":1
				}
			]
		},
		{
			"name":"SM_Wall_Inner_Quart_Door_01.003",
			"primitives":[
				{
					"attributes":{
						"POSITION":42,
						"NORMAL":43,
						"TEXCOORD_0":44,
						"TEXCOORD_1":45
					},
					"indices":46,
					"material":0
				},
				{
					"attributes":{
						"POSITION":47,
						"NORMAL":48,
						"TEXCOORD_0":49,
						"TEXCOORD_1":50
					},
					"indices":37,
					"material":1
				},
				{
					"attributes":{
						"POSITION":51,
						"NORMAL":52,
						"TEXCOORD_0":53,
						"TEXCOORD_1":54
					},
					"indices":37,
					"material":1
				}
			]
		},
		{
			"name":"SM_Wall_Inner_Quart_Door_01.004",
			"primitives":[
				{
					"attributes":{
						"POSITION":55,
						"NORMAL":56,
						"TEXCOORD_0":57,
						"TEXCOORD_1":58
					},
					"indices":4,
					"material":0
				},
				{
					"attributes":{
						"POSITION":59,
						"NORMAL":60,
						"TEXCOORD_0":61,
						"TEXCOORD_1":62
					},
					"indices":9,
					"material":1
				},
				{
					"attributes":{
						"POSITION":63,
						"NORMAL":64,
						"TEXCOORD_0":65,
						"TEXCOORD_1":66
					},
					"indices":9,
					"material":1
				}
			]
		}
	],
	"accessors":[
		{
			"bufferView":0,
			"componentType":5126,
			"count":209,
			"max":[
				2,
				2.4925448894500732,
				0.11843155324459076
			],
			"min":[
				-2,
				-0.00016143798711709678,
				-0.11754221469163895
			],
			"type":"VEC3"
		},
		{
			"bufferView":1,
			"componentType":5126,
			"count":209,
			"type":"VEC3"
		},
		{
			"bufferView":2,
			"componentType":5126,
			"count":209,
			"type":"VEC2"
		},
		{
			"bufferView":3,
			"componentType":5126,
			"count":209,
			"type":"VEC2"
		},
		{
			"bufferView":4,
			"componentType":5123,
			"count":330,
			"type":"SCALAR"
		},
		{
			"bufferView":5,
			"componentType":5126,
			"count":9,
			"max":[
				2.000000238418579,
				3.0000619888305664,
				-0.10000117868185043
			],
			"min":[
				-2,
				0.12240578979253769,
				-0.10000118613243103
			],
			"type":"VEC3"
		},
		{
			"bufferView":6,
			"componentType":5126,
			"count":9,
			"type":"VEC3"
		},
		{
			"bufferView":7,
			"componentType":5126,
			"count":9,
			"type":"VEC2"
		},
		{
			"bufferView":8,
			"componentType":5126,
			"count":9,
			"type":"VEC2"
		},
		{
			"bufferView":9,
			"componentType":5123,
			"count":21,
			"type":"SCALAR"
		},
		{
			"bufferView":10,
			"componentType":5126,
			"count":9,
			"max":[
				2,
				3.000061511993408,
				0.10000116378068924
			],
			"min":[
				-2,
				0.12240566313266754,
				0.10000114887952805
			],
			"type":"VEC3"
		},
		{
			"bufferView":11,
			"componentType":5126,
			"count":9,
			"type":"VEC3"
		},
		{
			"bufferView":12,
			"componentType":5126,
			"count":9,
			"type":"VEC2"
		},
		{
			"bufferView":13,
			"componentType":5126,
			"count":9,
			"type":"VEC2"
		},
		{
			"bufferView":14,
			"componentType":5126,
			"count":52,
			"max":[
				0.749695897102356,
				2.4925448894500732,
				0.11843061447143555
			],
			"min":[
				-0.7347369194030762,
				2.392838954925537,
				-0.11754129827022552
			],
			"type":"VEC3"
		},
		{
			"bufferView":15,
			"componentType":5126,
			"count":52,
			"type":"VEC3"
		},
		{
			"bufferView":16,
			"componentType":5126,
			"count":52,
			"type":"VEC2"
		},
		{
			"bufferView":17,
			"componentType":5126,
			"count":52,
			"type":"VEC2"
		},
		{
			"bufferView":18,
			"componentType":5123,
			"count":78,
			"type":"SCALAR"
		},
		{
			"bufferView":19,
			"componentType":5126,
			"count":4,
			"max":[
				2.000000238418579,
				3.0000619888305664,
				-0.10000117868185043
			],
			"min":[
				-2,
				2.4924652576446533,
				-0.10000118613243103
			],
			"type":"VEC3"
		},
		{
			"bufferView":20,
			"componentType":5126,
			"count":4,
			"type":"VEC3"
		},
		{
			"bufferView":21,
			"componentType":5126,
			"count":4,
			"type":"VEC2"
		},
		{
			"bufferView":22,
			"componentType":5126,
			"count":4,
			"type":"VEC2"
		},
		{
			"bufferView":23,
			"componentType":5123,
			"count":6,
			"type":"SCALAR"
		},
		{
			"bufferView":24,
			"componentType":5126,
			"count":4,
			"max":[
				1.999999761581421,
				3.000061511993408,
				0.10000116378068924
			],
			"min":[
				-2,
				2.4924540519714355,
				0.10000116378068924
			],
			"type":"VEC3"
		},
		{
			"bufferView":25,
			"componentType":5126,
			"count":4,
			"type":"VEC3"
		},
		{
			"bufferView":26,
			"componentType":5126,
			"count":4,
			"type":"VEC2"
		},
		{
			"bufferView":27,
			"componentType":5126,
			"count":4,
			"type":"VEC2"
		},
		{
			"bufferView":28,
			"componentType":5126,
			"count":78,
			"max":[
				2,
				2.4925448894500732,
				0.11843155324459076
			],
			"min":[
				0.6501542329788208,
				-0.00016143798711709678,
				-0.11754221469163895
			],
			"type":"VEC3"
		},
		{
			"bufferView":29,
			"componentType":5126,
			"count":78,
			"type":"VEC3"
		},
		{
			"bufferView":30,
			"componentType":5126,
			"count":78,
			"type":"VEC2"
		},
		{
			"bufferView":31,
			"componentType":5126,
			"count":78,
			"type":"VEC2"
		},
		{
			"bufferView":32,
			"componentType":5123,
			"count":126,
			"type":"SCALAR"
		},
		{
			"bufferView":33,
			"componentType":5126,
			"count":3,
			"max":[
				2,
				2.4925339221954346,
				-0.10000117868185043
			],
			"min":[
				0.7496905326843262,
				0.12240578979253769,
				-0.10000118613243103
			],
			"type":"VEC3"
		},
		{
			"bufferView":34,
			"componentType":5126,
			"count":3,
			"type":"VEC3"
		},
		{
			"bufferView":35,
			"componentType":5126,
			"count":3,
			"type":"VEC2"
		},
		{
			"bufferView":36,
			"componentType":5126,
			"count":3,
			"type":"VEC2"
		},
		{
			"bufferView":37,
			"componentType":5123,
			"count":3,
			"type":"SCALAR"
		},
		{
			"bufferView":38,
			"componentType":5126,
			"count":3,
			"max":[
				2,
				2.4925448894500732,
				0.10000116378068924
			],
			"min":[
				0.749695897102356,
				0.12257827818393707,
				0.10000114887952805
			],
			"type":"VEC3"
		},
		{
			"bufferView":39,
			"componentType":5126,
			"count":3,
			"type":"VEC3"
		},
		{
			"bufferView":40,
			"componentType":5126,
			"count":3,
			"type":"VEC2"
		},
		{
			"bufferView":41,
			"componentType":5126,
			"count":3,
			"type":"VEC2"
		},
		{
			"bufferView":42,
			"componentType":5126,
			"count":79,
			"max":[
				-0.6357073187828064,
				2.4924652576446533,
				0.11843139678239822
			],
			"min":[
				-2,
				-0.00012374877405818552,
				-0.11754221469163895
			],
			"type":"VEC3"
		},
		{
			"bufferView":43,
			"componentType":5126,
			"count":79,
			"type":"VEC3"
		},
		{
			"bufferView":44,
			"componentType":5126,
			"count":79,
			"type":"VEC2"
		},
		{
			"bufferView":45,
			"componentType":5126,
			"count":79,
			"type":"VEC2"
		},
		{
			"bufferView":46,
			"componentType":5123,
			"count":126,
			"type":"SCALAR"
		},
		{
			"bufferView":47,
			"componentType":5126,
			"count":3,
			"max":[
				-0.7347357273101807,
				2.4924652576446533,
				-0.10000117868185043
			],
			"min":[
				-2,
				0.12257827818393707,
				-0.10000118613243103
			],
			"type":"VEC3"
		},
		{
			"bufferView":48,
			"componentType":5126,
			"count":3,
			"type":"VEC3"
		},
		{
			"bufferView":49,
			"componentType":5126,
			"count":3,
			"type":"VEC2"
		},
		{
			"bufferView":50,
			"componentType":5126,
			"count":3,
			"type":"VEC2"
		},
		{
			"bufferView":51,
			"componentType":5126,
			"count":3,
			"max":[
				-0.7347366213798523,
				2.4924540519714355,
				0.10000116378068924
			],
			"min":[
				-2,
				0.12240566313266754,
				0.10000114887952805
			],
			"type":"VEC3"
		},
		{
			"bufferView":52,
			"componentType":5126,
			"count":3,
			"type":"VEC3"
		},
		{
			"bufferView":53,
			"componentType":5126,
			"count":3,
			"type":"VEC2"
		},
		{
			"bufferView":54,
			"componentType":5126,
			"count":3,
			"type":"VEC2"
		},
		{
			"bufferView":55,
			"componentType":5126,
			"count":209,
			"max":[
				2,
				2.4925448894500732,
				0.11843155324459076
			],
			"min":[
				-2,
				-0.00016143798711709678,
				-0.11754221469163895
			],
			"type":"VEC3"
		},
		{
			"bufferView":56,
			"componentType":5126,
			"count":209,
			"type":"VEC3"
		},
		{
			"bufferView":57,
			"componentType":5126,
			"count":209,
			"type":"VEC2"
		},
		{
			"bufferView":58,
			"componentType":5126,
			"count":209,
			"type":"VEC2"
		},
		{
			"bufferView":59,
			"componentType":5126,
			"count":9,
			"max":[
				2.000000238418579,
				3.0000619888305664,
				-0.10000117868185043
			],
			"min":[
				-2,
				0.12240578979253769,
				-0.10000118613243103
			],
			"type":"VEC3"
		},
		{
			"bufferView":60,
			"componentType":5126,
			"count":9,
			"type":"VEC3"
		},
		{
			"bufferView":61,
			"componentType":5126,
			"count":9,
			"type":"VEC2"
		},
		{
			"bufferView":62,
			"componentType":5126,
			"count":9,
			"type":"VEC2"
		},
		{
			"bufferView":63,
			"componentType":5126,
			"count":9,
			"max":[
				2,
				3.000061511993408,
				0.10000116378068924
			],
			"min":[
				-2,
				0.12240566313266754,
				0.10000114887952805
			],
			"type":"VEC3"
		},
		{
			"bufferView":64,
			"componentType":5126,
			"count":9,
			"type":"VEC3"
		},
		{
			"bufferView":65,
			"componentType":5126,
			"count":9,
			"type":"VEC2"
		},
		{
			"bufferView":66,
			"componentType":5126,
			"count":9,
			"type":"VEC2"
		}
	],
	"bufferViews":[
		{
			"buffer":0,
			"byteLength":2508,
			"byteOffset":0,
			"target":34962
		},
		{
			"buffer":0,
			"byteLength":2508,
			"byteOffset":2508,
			"target":34962
		},
		{
			"buffer":0,
			"byteLength":1672,
			"byteOffset":5016,
			"target":34962
		},
		{
			"buffer":0,
			"byteLength":1672,
			"byteOffset":6688,
			"target":34962
		},
		{
			"buffer":0,
			"byteLength":660,
			"byteOffset":8360,
			"target":34963
		},
		{
			"buffer":0,
			"byteLength":108,
			"byteOffset":9020,
			"target":34962
		},
		{
			"buffer":0,
			"byteLength":108,
			"byteOffset":9128,
			"target":34962
		},
		{
			"buffer":0,
			"byteLength":72,
			"byteOffset":9236,
			"target":34962
		},
		{
			"buffer":0,
			"byteLength":72,
			"byteOffset":9308,
			"target":34962
		},
		{
			"buffer":0,
			"byteLength":42,
			"byteOffset":9380,
			"target":34963
		},
		{
			"buffer":0,
			"byteLength":108,
			"byteOffset":9424,
			"target":34962
		},
		{
			"buffer":0,
			"byteLength":108,
			"byteOffset":9532,
			"target":34962
		},
		{
			"buffer":0,
			"byteLength":72,
			"byteOffset":9640,
			"target":34962
		},
		{
			"buffer":0,
			"byteLength":72,
			"byteOffset":9712,
			"target":34962
		},
		{
			"buffer":0,
			"byteLength":624,
			"byteOffset":9784,
			"target":34962
		},
		{
			"buffer":0,
			"byteLength":624,
			"byteOffset":10408,
			"target":34962
		},
		{
			"buffer":0,
			"byteLength":416,
			"byteOffset":11032,
			"target":34962
		},
		{
			"buffer":0,
			"byteLength":416,
			"byteOffset":11448,
			"target":34962
		},
		{
			"buffer":0,
			"byteLength":156,
			"byteOffset":11864,
			"target":34963
		},
		{
			"buffer":0,
			"byteLength":48,
			"byteOffset":12020,
			"target":34962
		},
		{
			"buffer":0,
			"byteLength":48,
			"byteOffset":12068,
			"target":34962
		},
		{
			"buffer":0,
			"byteLength":32,
			"byteOffset":12116,
			"target":34962
		},
		{
			"buffer":0,
			"byteLength":32,
			"byteOffset":12148,
			"target":34962
		},
		{
			"buffer":0,
			"byteLength":12,
			"byteOffset":12180,
			"target":34963
		},
		{
			"buffer":0,
			"byteLength":48,
			"byteOffset":12192,
			"target":34962
		},
		{
			"buffer":0,
			"byteLength":48,
			"byteOffset":12240,
			"target":34962
		},
		{
			"buffer":0,
			"byteLength":32,
			"byteOffset":12288,
			"target":34962
		},
		{
			"buffer":0,
			"byteLength":32,
			"byteOffset":12320,
			"target":34962
		},
		{
			"buffer":0,
			"byteLength":936,
			"byteOffset":12352,
			"target":34962
		},
		{
			"buffer":0,
			"byteLength":936,
			"byteOffset":13288,
			"target":34962
		},
		{
			"buffer":0,
			"byteLength":624,
			"byteOffset":14224,
			"target":34962
		},
		{
			"buffer":0,
			"byteLength":624,
			"byteOffset":14848,
			"target":34962
		},
		{
			"buffer":0,
			"byteLength":252,
			"byteOffset":15472,
			"target":34963
		},
		{
			"buffer":0,
			"byteLength":36,
			"byteOffset":15724,
			"target":34962
		},
		{
			"buffer":0,
			"byteLength":36,
			"byteOffset":15760,
			"target":34962
		},
		{
			"buffer":0,
			"byteLength":24,
			"byteOffset":15796,
			"target":34962
		},
		{
			"buffer":0,
			"byteLength":24,
			"byteOffset":15820,
			"target":34962
		},
		{
			"buffer":0,
			"byteLength":6,
			"byteOffset":15844,
			"target":34963
		},
		{
			"buffer":0,
			"byteLength":36,
			"byteOffset":15852,
			"target":34962
		},
		{
			"buffer":0,
			"byteLength":36,
			"byteOffset":15888,
			"target":34962
		},
		{
			"buffer":0,
			"byteLength":24,
			"byteOffset":15924,
			"target":34962
		},
		{
			"buffer":0,
			"byteLength":24,
			"byteOffset":15948,
			"target":34962
		},
		{
			"buffer":0,
			"byteLength":948,
			"byteOffset":15972,
			"target":34962
		},
		{
			"buffer":0,
			"byteLength":948,
			"byteOffset":16920,
			"target":34962
		},
		{
			"buffer":0,
			"byteLength":632,
			"byteOffset":17868,
			"target":34962
		},
		{
			"buffer":0,
			"byteLength":632,
			"byteOffset":18500,
			"target":34962
		},
		{
			"buffer":0,
			"byteLength":252,
			"byteOffset":19132,
			"target":34963
		},
		{
			"buffer":0,
			"byteLength":36,
			"byteOffset":19384,
			"target":34962
		},
		{
			"buffer":0,
			"byteLength":36,
			"byteOffset":19420,
			"target":34962
		},
		{
			"buffer":0,
			"byteLength":24,
			"byteOffset":19456,
			"target":34962
		},
		{
			"buffer":0,
			"byteLength":24,
			"byteOffset":19480,
			"target":34962
		},
		{
			"buffer":0,
			"byteLength":36,
			"byteOffset":19504,
			"target":34962
		},
		{
			"buffer":0,
			"byteLength":36,
			"byteOffset":19540,
			"target":34962
		},
		{
			"buffer":0,
			"byteLength":24,
			"byteOffset":19576,
			"target":34962
		},
		{
			"buffer":0,
			"byteLength":24,
			"byteOffset":19600,
			"target":34962
		},
		{
			"buffer":0,
			"byteLength":2508,
			"byteOffset":19624,
			"target":34962
		},
		{
			"buffer":0,
			"byteLength":2508,
			"byteOffset":22132,
			"target":34962
		},
		{
			"buffer":0,
			"byteLength":1672,
			"byteOffset":24640,
			"target":34962
		},
		{
			"buffer":0,
			"byteLength":1672,
			"byteOffset":26312,
			"target":34962
		},
		{
			"buffer":0,
			"byteLength":108,
			"byteOffset":27984,
			"target":34962
		},
		{
			"buffer":0,
			"byteLength":108,
			"byteOffset":28092,
			"target":34962
		},
		{
			"buffer":0,
			"byteLength":72,
			"byteOffset":28200,
			"target":34962
		},
		{
			"buffer":0,
			"byteLength":72,
			"byteOffset":28272,
			"target":34962
		},
		{
			"buffer":0,
			"byteLength":108,
			"byteOffset":28344,
			"target":34962
		},
		{
			"buffer":0,
			"byteLength":108,
			"byteOffset":28452,
			"target":34962
		},
		{
			"buffer":0,
			"byteLength":72,
			"byteOffset":28560,
			"target":34962
		},
		{
			"buffer":0,
			"byteLength":72,
			"byteOffset":28632,
			"target":34962
		}
	],
	"buffers":[
		{
			"byteLength":28704,
			"uri":"SM_Wall_Inner_40dm_Door_01.bin"
		}
	]
}
