{
	"asset":{
		"generator":"Khronos glTF Blender I/O v5.0.21",
		"version":"2.0"
	},
	"scene":0,
	"scenes":[
		{
			"extras":{
				"NEXUS_ASSET_METADATA":{
					"asset_id":"asset_bc057b9a-96f6-4447-a09f-fb91598d3b43",
					"asset_name":"SM_Wall_Inner_LCorner_01",
					"export_type":"ASSET",
					"root_type":"STATIC",
					"script_path":"",
					"godot_groups":[],
					"collision_layer":1,
					"collision_mask":131,
					"physics_material_path":"",
					"nexus_metadata":{},
					"nexus_light_bake_mode":1
				}
			},
			"name":"SM_Wall_Inner_LCorner_01",
			"nodes":[
				0,
				1,
				2,
				3
			]
		}
	],
	"nodes":[
		{
			"extras":{
				"MaxHandle":"3980",
				"NEXUS_NODE_METADATA":{
					"uuid":"obj_e14ced88-b735-4802-ae09-3ec47de0a4e1",
					"discard_mesh":false
				}
			},
			"mesh":0,
			"name":"SM_Wall_Inner_LCorner_01_mesh"
		},
		{
			"extras":{
				"MaxHandle":"3980",
				"NEXUS_NODE_METADATA":{
					"uuid":"obj_e14ced88-b735-4802-ae09-3ec47de0a4e1",
					"discard_mesh":true,
					"nexus_collision_dims":{
						"shape":"BOX",
						"margin":1.0,
						"size_x":0.3089,
						"size_y":1.5,
						"size_z":0.1183,
						"radius":0.0,
						"height":0.0,
						"offset_x":0.1911,
						"offset_y":1.5,
						"offset_z":0.0003
					}
				}
			},
			"mesh":1,
			"name":"SM_Wall_Inner_LCorner_01_col.001"
		},
		{
			"extras":{
				"MaxHandle":"3980",
				"NEXUS_NODE_METADATA":{
					"uuid":"obj_e14ced88-b735-4802-ae09-3ec47de0a4e1",
					"discard_mesh":true,
					"nexus_collision_dims":{
						"shape":"BOX",
						"margin":1.0,
						"size_x":0.118,
						"size_y":1.5,
						"size_z":0.2,
						"radius":0.0,
						"height":0.0,
						"offset_x":0.0005,
						"offset_y":1.5,
						"offset_z":-0.3
					}
				}
			},
			"mesh":2,
			"name":"SM_Wall_Inner_LCorner_01_col.002"
		},
		{
			"extras":{
				"MaxHandle":"3980",
				"NEXUS_NODE_METADATA":{
					"uuid":"obj_e14ced88-b735-4802-ae09-3ec47de0a4e1",
					"discard_mesh":false,
					"nexus_mesh_collision_shape":"RESONANCE_STATIC",
					"nexus_resonance_material_path":"res://addons/nexus_resonance/materials/brick.tres"
				}
			},
			"mesh":3,
			"name":"SM_Wall_Inner_LCorner_01_reso"
		}
	],
	"materials":[
		{
			"doubleSided":true,
			"extras":{
				"nexus_material_id":"mat_7ba39fa3-600c-4376-aff8-ce6ccd502ff3"
			},
			"name":"DUMMY_M_WallFrame_01_mat_",
			"pbrMetallicRoughness":{
				"baseColorFactor":[
					0.800000011920929,
					0.800000011920929,
					0.800000011920929,
					1
				],
				"metallicFactor":0,
				"roughnessFactor":0.5
			}
		},
		{
			"doubleSided":true,
			"extras":{
				"nexus_material_id":"mat_59751b64-fe1b-4bf7-b2d9-ba6c90f52e34"
			},
			"name":"DUMMY_M_WallPaper_01_mat_",
			"pbrMetallicRoughness":{
				"baseColorFactor":[
					0.800000011920929,
					0.800000011920929,
					0.800000011920929,
					1
				],
				"metallicFactor":0,
				"roughnessFactor":0.5
			}
		}
	],
	"meshes":[
		{
			"name":"SM_Wall_Inner_16th_01.005",
			"primitives":[
				{
					"attributes":{
						"POSITION":0,
						"NORMAL":1,
						"TEXCOORD_0":2,
						"TEXCOORD_1":3
					},
					"indices":4,
					"material":0
				},
				{
					"attributes":{
						"POSITION":5,
						"NORMAL":6,
						"TEXCOORD_0":7,
						"TEXCOORD_1":8
					},
					"indices":9,
					"material":1
				}
			]
		},
		{
			"name":"SM_Wall_Inner_16th_01.017",
			"primitives":[
				{
					"attributes":{
						"POSITION":10,
						"NORMAL":11,
						"TEXCOORD_0":12,
						"TEXCOORD_1":13
					},
					"indices":14,
					"material":0
				},
				{
					"attributes":{
						"POSITION":15,
						"NORMAL":16,
						"TEXCOORD_0":17,
						"TEXCOORD_1":18
					},
					"indices":19,
					"material":1
				}
			]
		},
		{
			"name":"SM_Wall_Inner_16th_01.018",
			"primitives":[
				{
					"attributes":{
						"POSITION":20,
						"NORMAL":21,
						"TEXCOORD_0":22,
						"TEXCOORD_1":23
					},
					"indices":24,
					"material":0
				},
				{
					"attributes":{
						"POSITION":25,
						"NORMAL":26,
						"TEXCOORD_0":27,
						"TEXCOORD_1":28
					},
					"indices":29,
					"material":1
				}
			]
		},
		{
			"name":"SM_Wall_Inner_16th_01.004",
			"primitives":[
				{
					"attributes":{
						"POSITION":30,
						"NORMAL":31,
						"TEXCOORD_0":32,
						"TEXCOORD_1":33
					},
					"indices":4,
					"material":0
				},
				{
					"attributes":{
						"POSITION":34,
						"NORMAL":35,
						"TEXCOORD_0":36,
						"TEXCOORD_1":37
					},
					"indices":9,
					"material":1
				}
			]
		}
	],
	"accessors":[
		{
			"bufferView":0,
			"componentType":5126,
			"count":60,
			"max":[
				0.5000001192092896,
				0.12262618541717529,
				0.11854690313339233
			],
			"min":[
				-0.11779424548149109,
				-3.549115059324091e-15,
				-0.5000002980232239
			],
			"type":"VEC3"
		},
		{
			"bufferView":1,
			"componentType":5126,
			"count":60,
			"type":"VEC3"
		},
		{
			"bufferView":2,
			"componentType":5126,
			"count":60,
			"type":"VEC2"
		},
		{
			"bufferView":3,
			"componentType":5126,
			"count":60,
			"type":"VEC2"
		},
		{
			"bufferView":4,
			"componentType":5123,
			"count":108,
			"type":"SCALAR"
		},
		{
			"bufferView":5,
			"componentType":5126,
			"count":20,
			"max":[
				0.5000000596046448,
				2.9999990463256836,
				0.0999995619058609
			],
			"min":[
				-0.10000335425138474,
				0.12262618541717529,
				-0.5000002384185791
			],
			"type":"VEC3"
		},
		{
			"bufferView":6,
			"componentType":5126,
			"count":20,
			"type":"VEC3"
		},
		{
			"bufferView":7,
			"componentType":5126,
			"count":20,
			"type":"VEC2"
		},
		{
			"bufferView":8,
			"componentType":5126,
			"count":20,
			"type":"VEC2"
		},
		{
			"bufferView":9,
			"componentType":5123,
			"count":36,
			"type":"SCALAR"
		},
		{
			"bufferView":10,
			"componentType":5126,
			"count":42,
			"max":[
				0.5000001192092896,
				0.12262618541717529,
				0.11854690313339233
			],
			"min":[
				-0.11779424548149109,
				-3.549115059324091e-15,
				-0.11804269254207611
			],
			"type":"VEC3"
		},
		{
			"bufferView":11,
			"componentType":5126,
			"count":42,
			"type":"VEC3"
		},
		{
			"bufferView":12,
			"componentType":5126,
			"count":42,
			"type":"VEC2"
		},
		{
			"bufferView":13,
			"componentType":5126,
			"count":42,
			"type":"VEC2"
		},
		{
			"bufferView":14,
			"componentType":5123,
			"count":72,
			"type":"SCALAR"
		},
		{
			"bufferView":15,
			"componentType":5126,
			"count":14,
			"max":[
				0.5000000596046448,
				2.9999990463256836,
				0.0999995619058609
			],
			"min":[
				-0.10000333935022354,
				0.12262618541717529,
				-0.11804261803627014
			],
			"type":"VEC3"
		},
		{
			"bufferView":16,
			"componentType":5126,
			"count":14,
			"type":"VEC3"
		},
		{
			"bufferView":17,
			"componentType":5126,
			"count":14,
			"type":"VEC2"
		},
		{
			"bufferView":18,
			"componentType":5126,
			"count":14,
			"type":"VEC2"
		},
		{
			"bufferView":19,
			"componentType":5123,
			"count":24,
			"type":"SCALAR"
		},
		{
			"bufferView":20,
			"componentType":5126,
			"count":24,
			"max":[
				0.11854684352874756,
				0.12262618541717529,
				-0.10000169277191162
			],
			"min":[
				-0.11754216998815536,
				-7.258904440305006e-18,
				-0.5000002980232239
			],
			"type":"VEC3"
		},
		{
			"bufferView":21,
			"componentType":5126,
			"count":24,
			"type":"VEC3"
		},
		{
			"bufferView":22,
			"componentType":5126,
			"count":24,
			"type":"VEC2"
		},
		{
			"bufferView":23,
			"componentType":5126,
			"count":24,
			"type":"VEC2"
		},
		{
			"bufferView":24,
			"componentType":5123,
			"count":36,
			"type":"SCALAR"
		},
		{
			"bufferView":25,
			"componentType":5126,
			"count":8,
			"max":[
				0.09999951720237732,
				2.9999990463256836,
				-0.10000169277191162
			],
			"min":[
				-0.10000335425138474,
				0.12262618541717529,
				-0.5000002384185791
			],
			"type":"VEC3"
		},
		{
			"bufferView":26,
			"componentType":5126,
			"count":8,
			"type":"VEC3"
		},
		{
			"bufferView":27,
			"componentType":5126,
			"count":8,
			"type":"VEC2"
		},
		{
			"bufferView":28,
			"componentType":5126,
			"count":8,
			"type":"VEC2"
		},
		{
			"bufferView":29,
			"componentType":5123,
			"count":12,
			"type":"SCALAR"
		},
		{
			"bufferView":30,
			"componentType":5126,
			"count":60,
			"max":[
				0.5000001192092896,
				0.12262618541717529,
				0.11854690313339233
			],
			"min":[
				-0.11779424548149109,
				-3.549115059324091e-15,
				-0.5000002980232239
			],
			"type":"VEC3"
		},
		{
			"bufferView":31,
			"componentType":5126,
			"count":60,
			"type":"VEC3"
		},
		{
			"bufferView":32,
			"componentType":5126,
			"count":60,
			"type":"VEC2"
		},
		{
			"bufferView":33,
			"componentType":5126,
			"count":60,
			"type":"VEC2"
		},
		{
			"bufferView":34,
			"componentType":5126,
			"count":20,
			"max":[
				0.5000000596046448,
				2.9999990463256836,
				0.0999995619058609
			],
			"min":[
				-0.10000335425138474,
				0.12262618541717529,
				-0.5000002384185791
			],
			"type":"VEC3"
		},
		{
			"bufferView":35,
			"componentType":5126,
			"count":20,
			"type":"VEC3"
		},
		{
			"bufferView":36,
			"componentType":5126,
			"count":20,
			"type":"VEC2"
		},
		{
			"bufferView":37,
			"componentType":5126,
			"count":20,
			"type":"VEC2"
		}
	],
	"bufferViews":[
		{
			"buffer":0,
			"byteLength":720,
			"byteOffset":0,
			"target":34962
		},
		{
			"buffer":0,
			"byteLength":720,
			"byteOffset":720,
			"target":34962
		},
		{
			"buffer":0,
			"byteLength":480,
			"byteOffset":1440,
			"target":34962
		},
		{
			"buffer":0,
			"byteLength":480,
			"byteOffset":1920,
			"target":34962
		},
		{
			"buffer":0,
			"byteLength":216,
			"byteOffset":2400,
			"target":34963
		},
		{
			"buffer":0,
			"byteLength":240,
			"byteOffset":2616,
			"target":34962
		},
		{
			"buffer":0,
			"byteLength":240,
			"byteOffset":2856,
			"target":34962
		},
		{
			"buffer":0,
			"byteLength":160,
			"byteOffset":3096,
			"target":34962
		},
		{
			"buffer":0,
			"byteLength":160,
			"byteOffset":3256,
			"target":34962
		},
		{
			"buffer":0,
			"byteLength":72,
			"byteOffset":3416,
			"target":34963
		},
		{
			"buffer":0,
			"byteLength":504,
			"byteOffset":3488,
			"target":34962
		},
		{
			"buffer":0,
			"byteLength":504,
			"byteOffset":3992,
			"target":34962
		},
		{
			"buffer":0,
			"byteLength":336,
			"byteOffset":4496,
			"target":34962
		},
		{
			"buffer":0,
			"byteLength":336,
			"byteOffset":4832,
			"target":34962
		},
		{
			"buffer":0,
			"byteLength":144,
			"byteOffset":5168,
			"target":34963
		},
		{
			"buffer":0,
			"byteLength":168,
			"byteOffset":5312,
			"target":34962
		},
		{
			"buffer":0,
			"byteLength":168,
			"byteOffset":5480,
			"target":34962
		},
		{
			"buffer":0,
			"byteLength":112,
			"byteOffset":5648,
			"target":34962
		},
		{
			"buffer":0,
			"byteLength":112,
			"byteOffset":5760,
			"target":34962
		},
		{
			"buffer":0,
			"byteLength":48,
			"byteOffset":5872,
			"target":34963
		},
		{
			"buffer":0,
			"byteLength":288,
			"byteOffset":5920,
			"target":34962
		},
		{
			"buffer":0,
			"byteLength":288,
			"byteOffset":6208,
			"target":34962
		},
		{
			"buffer":0,
			"byteLength":192,
			"byteOffset":6496,
			"target":34962
		},
		{
			"buffer":0,
			"byteLength":192,
			"byteOffset":6688,
			"target":34962
		},
		{
			"buffer":0,
			"byteLength":72,
			"byteOffset":6880,
			"target":34963
		},
		{
			"buffer":0,
			"byteLength":96,
			"byteOffset":6952,
			"target":34962
		},
		{
			"buffer":0,
			"byteLength":96,
			"byteOffset":7048,
			"target":34962
		},
		{
			"buffer":0,
			"byteLength":64,
			"byteOffset":7144,
			"target":34962
		},
		{
			"buffer":0,
			"byteLength":64,
			"byteOffset":7208,
			"target":34962
		},
		{
			"buffer":0,
			"byteLength":24,
			"byteOffset":7272,
			"target":34963
		},
		{
			"buffer":0,
			"byteLength":720,
			"byteOffset":7296,
			"target":34962
		},
		{
			"buffer":0,
			"byteLength":720,
			"byteOffset":8016,
			"target":34962
		},
		{
			"buffer":0,
			"byteLength":480,
			"byteOffset":8736,
			"target":34962
		},
		{
			"buffer":0,
			"byteLength":480,
			"byteOffset":9216,
			"target":34962
		},
		{
			"buffer":0,
			"byteLength":240,
			"byteOffset":9696,
			"target":34962
		},
		{
			"buffer":0,
			"byteLength":240,
			"byteOffset":9936,
			"target":34962
		},
		{
			"buffer":0,
			"byteLength":160,
			"byteOffset":10176,
			"target":34962
		},
		{
			"buffer":0,
			"byteLength":160,
			"byteOffset":10336,
			"target":34962
		}
	],
	"buffers":[
		{
			"byteLength":10496,
			"uri":"SM_Wall_Inner_LCorner_01.bin"
		}
	]
}
