{
	"asset":{
		"generator":"Khronos glTF Blender I/O v5.0.21",
		"version":"2.0"
	},
	"scene":0,
	"scenes":[
		{
			"extras":{
				"NEXUS_ASSET_METADATA":{
					"asset_id":"asset_4d86121f-ee90-4b55-b3df-6b5954278a0d",
					"asset_name":"SM_Wall_Inner_05dm_01",
					"export_type":"ASSET",
					"root_type":"STATIC",
					"script_path":"",
					"godot_groups":[],
					"collision_layer":1,
					"collision_mask":131,
					"physics_material_path":"",
					"nexus_metadata":{},
					"nexus_light_bake_mode":1
				}
			},
			"name":"SM_Wall_Inner_05dm_01",
			"nodes":[
				0,
				1
			]
		}
	],
	"nodes":[
		{
			"extras":{
				"MaxHandle":"4341",
				"NEXUS_NODE_METADATA":{
					"uuid":"obj_361c68dc-cd9b-4bae-8011-18e5c3a1cbbf",
					"discard_mesh":false,
					"nexus_collision_dims":{
						"shape":"BOX",
						"margin":1.0,
						"size_x":0.25,
						"size_y":1.5,
						"size_z":0.118,
						"radius":0.0,
						"height":0.0,
						"offset_x":-0.25,
						"offset_y":1.5,
						"offset_z":0.0005
					}
				}
			},
			"mesh":0,
			"name":"SM_Wall_Inner_05dm_01"
		},
		{
			"extras":{
				"MaxHandle":"4341",
				"NEXUS_NODE_METADATA":{
					"uuid":"obj_361c68dc-cd9b-4bae-8011-18e5c3a1cbbf",
					"discard_mesh":true,
					"nexus_mesh_collision_shape":"RESONANCE_STATIC",
					"nexus_resonance_material_path":"res://addons/nexus_resonance/materials/brick.tres"
				}
			},
			"mesh":1,
			"name":"SM_Wall_Inner_05dm_01_reso"
		}
	],
	"materials":[
		{
			"doubleSided":true,
			"extras":{
				"nexus_material_id":"mat_7ba39fa3-600c-4376-aff8-ce6ccd502ff3"
			},
			"name":"DUMMY_M_WallFrame_01_mat_",
			"pbrMetallicRoughness":{
				"baseColorFactor":[
					0.800000011920929,
					0.800000011920929,
					0.800000011920929,
					1
				],
				"metallicFactor":0,
				"roughnessFactor":0.5
			}
		},
		{
			"doubleSided":true,
			"extras":{
				"nexus_material_id":"mat_59751b64-fe1b-4bf7-b2d9-ba6c90f52e34"
			},
			"name":"DUMMY_M_WallPaper_01_mat_",
			"pbrMetallicRoughness":{
				"baseColorFactor":[
					0.800000011920929,
					0.800000011920929,
					0.800000011920929,
					1
				],
				"metallicFactor":0,
				"roughnessFactor":0.5
			}
		}
	],
	"meshes":[
		{
			"name":"SM_Wall_Indoor_32nd_01",
			"primitives":[
				{
					"attributes":{
						"POSITION":0,
						"NORMAL":1,
						"TEXCOORD_0":2,
						"TEXCOORD_1":3
					},
					"indices":4,
					"material":0
				},
				{
					"attributes":{
						"POSITION":5,
						"NORMAL":6,
						"TEXCOORD_0":7,
						"TEXCOORD_1":8
					},
					"indices":9,
					"material":1
				}
			]
		},
		{
			"name":"SM_Wall_Indoor_32nd_01.001",
			"primitives":[
				{
					"attributes":{
						"POSITION":10,
						"NORMAL":11,
						"TEXCOORD_0":12,
						"TEXCOORD_1":13
					},
					"indices":4,
					"material":0
				},
				{
					"attributes":{
						"POSITION":14,
						"NORMAL":15,
						"TEXCOORD_0":16,
						"TEXCOORD_1":17
					},
					"indices":9,
					"material":1
				}
			]
		}
	],
	"accessors":[
		{
			"bufferView":0,
			"componentType":5126,
			"count":26,
			"max":[
				0,
				0.12262618541717529,
				0.11854686588048935
			],
			"min":[
				-0.5000038146972656,
				-7.258901958763168e-18,
				-0.11754218488931656
			],
			"type":"VEC3"
		},
		{
			"bufferView":1,
			"componentType":5126,
			"count":26,
			"type":"VEC3"
		},
		{
			"bufferView":2,
			"componentType":5126,
			"count":26,
			"type":"VEC2"
		},
		{
			"bufferView":3,
			"componentType":5126,
			"count":26,
			"type":"VEC2"
		},
		{
			"bufferView":4,
			"componentType":5123,
			"count":36,
			"type":"SCALAR"
		},
		{
			"bufferView":5,
			"componentType":5126,
			"count":8,
			"max":[
				1.907348590179936e-08,
				2.9999990463256836,
				0.09999906271696091
			],
			"min":[
				-0.5000038146972656,
				0.12262618541717529,
				-0.10000336170196533
			],
			"type":"VEC3"
		},
		{
			"bufferView":6,
			"componentType":5126,
			"count":8,
			"type":"VEC3"
		},
		{
			"bufferView":7,
			"componentType":5126,
			"count":8,
			"type":"VEC2"
		},
		{
			"bufferView":8,
			"componentType":5126,
			"count":8,
			"type":"VEC2"
		},
		{
			"bufferView":9,
			"componentType":5123,
			"count":12,
			"type":"SCALAR"
		},
		{
			"bufferView":10,
			"componentType":5126,
			"count":26,
			"max":[
				0,
				0.12262618541717529,
				0.11854686588048935
			],
			"min":[
				-0.5000038146972656,
				-7.258901958763168e-18,
				-0.11754218488931656
			],
			"type":"VEC3"
		},
		{
			"bufferView":11,
			"componentType":5126,
			"count":26,
			"type":"VEC3"
		},
		{
			"bufferView":12,
			"componentType":5126,
			"count":26,
			"type":"VEC2"
		},
		{
			"bufferView":13,
			"componentType":5126,
			"count":26,
			"type":"VEC2"
		},
		{
			"bufferView":14,
			"componentType":5126,
			"count":8,
			"max":[
				1.907348590179936e-08,
				2.9999990463256836,
				0.09999906271696091
			],
			"min":[
				-0.5000038146972656,
				0.12262618541717529,
				-0.10000336170196533
			],
			"type":"VEC3"
		},
		{
			"bufferView":15,
			"componentType":5126,
			"count":8,
			"type":"VEC3"
		},
		{
			"bufferView":16,
			"componentType":5126,
			"count":8,
			"type":"VEC2"
		},
		{
			"bufferView":17,
			"componentType":5126,
			"count":8,
			"type":"VEC2"
		}
	],
	"bufferViews":[
		{
			"buffer":0,
			"byteLength":312,
			"byteOffset":0,
			"target":34962
		},
		{
			"buffer":0,
			"byteLength":312,
			"byteOffset":312,
			"target":34962
		},
		{
			"buffer":0,
			"byteLength":208,
			"byteOffset":624,
			"target":34962
		},
		{
			"buffer":0,
			"byteLength":208,
			"byteOffset":832,
			"target":34962
		},
		{
			"buffer":0,
			"byteLength":72,
			"byteOffset":1040,
			"target":34963
		},
		{
			"buffer":0,
			"byteLength":96,
			"byteOffset":1112,
			"target":34962
		},
		{
			"buffer":0,
			"byteLength":96,
			"byteOffset":1208,
			"target":34962
		},
		{
			"buffer":0,
			"byteLength":64,
			"byteOffset":1304,
			"target":34962
		},
		{
			"buffer":0,
			"byteLength":64,
			"byteOffset":1368,
			"target":34962
		},
		{
			"buffer":0,
			"byteLength":24,
			"byteOffset":1432,
			"target":34963
		},
		{
			"buffer":0,
			"byteLength":312,
			"byteOffset":1456,
			"target":34962
		},
		{
			"buffer":0,
			"byteLength":312,
			"byteOffset":1768,
			"target":34962
		},
		{
			"buffer":0,
			"byteLength":208,
			"byteOffset":2080,
			"target":34962
		},
		{
			"buffer":0,
			"byteLength":208,
			"byteOffset":2288,
			"target":34962
		},
		{
			"buffer":0,
			"byteLength":96,
			"byteOffset":2496,
			"target":34962
		},
		{
			"buffer":0,
			"byteLength":96,
			"byteOffset":2592,
			"target":34962
		},
		{
			"buffer":0,
			"byteLength":64,
			"byteOffset":2688,
			"target":34962
		},
		{
			"buffer":0,
			"byteLength":64,
			"byteOffset":2752,
			"target":34962
		}
	],
	"buffers":[
		{
			"byteLength":2816,
			"uri":"SM_Wall_Inner_05dm_01.bin"
		}
	]
}
