{
	"asset":{
		"generator":"Khronos glTF Blender I/O v5.0.21",
		"version":"2.0"
	},
	"scene":0,
	"scenes":[
		{
			"extras":{
				"NEXUS_ASSET_METADATA":{
					"asset_id":"asset_30ac08f4-1c0e-480d-a540-b83a02ac2adb",
					"asset_name":"SM_Wall_Inner_End_01",
					"export_type":"ASSET",
					"root_type":"STATIC",
					"script_path":"",
					"godot_groups":[],
					"collision_layer":1,
					"collision_mask":131,
					"physics_material_path":"",
					"nexus_metadata":{},
					"nexus_light_bake_mode":1
				}
			},
			"name":"SM_Wall_Inner_End_01",
			"nodes":[
				0,
				1,
				2
			]
		}
	],
	"nodes":[
		{
			"extras":{
				"MaxHandle":"3980",
				"NEXUS_NODE_METADATA":{
					"uuid":"obj_e14ced88-b735-4802-ae09-3ec47de0a4e1",
					"discard_mesh":true,
					"nexus_collision_dims":{
						"shape":"BOX",
						"margin":1.0,
						"size_x":0.1182,
						"size_y":1.5,
						"size_z":0.1182,
						"radius":0.0,
						"height":0.0,
						"offset_x":0.0001,
						"offset_y":1.5,
						"offset_z":0.0004
					}
				}
			},
			"mesh":0,
			"name":"SM_Wall_Inner_End_01_col001"
		},
		{
			"extras":{
				"MaxHandle":"3980",
				"NEXUS_NODE_METADATA":{
					"uuid":"obj_e14ced88-b735-4802-ae09-3ec47de0a4e1",
					"discard_mesh":false
				}
			},
			"mesh":1,
			"name":"SM_Wall_Inner_End_01_mesh"
		},
		{
			"extras":{
				"MaxHandle":"3980",
				"NEXUS_NODE_METADATA":{
					"uuid":"obj_e14ced88-b735-4802-ae09-3ec47de0a4e1",
					"discard_mesh":false,
					"nexus_mesh_collision_shape":"RESONANCE_STATIC",
					"nexus_resonance_material_path":"res://addons/nexus_resonance/materials/brick.tres"
				}
			},
			"mesh":2,
			"name":"SM_Wall_Inner_End_01_reso"
		}
	],
	"materials":[
		{
			"doubleSided":true,
			"extras":{
				"nexus_material_id":"mat_7ba39fa3-600c-4376-aff8-ce6ccd502ff3"
			},
			"name":"DUMMY_M_WallFrame_01_mat_",
			"pbrMetallicRoughness":{
				"baseColorFactor":[
					0.800000011920929,
					0.800000011920929,
					0.800000011920929,
					1
				],
				"metallicFactor":0,
				"roughnessFactor":0.5
			}
		},
		{
			"doubleSided":true,
			"extras":{
				"nexus_material_id":"mat_59751b64-fe1b-4bf7-b2d9-ba6c90f52e34"
			},
			"name":"DUMMY_M_WallPaper_01_mat_",
			"pbrMetallicRoughness":{
				"baseColorFactor":[
					0.800000011920929,
					0.800000011920929,
					0.800000011920929,
					1
				],
				"metallicFactor":0,
				"roughnessFactor":0.5
			}
		}
	],
	"meshes":[
		{
			"name":"SM_Wall_Inner_16th_01.009",
			"primitives":[
				{
					"attributes":{
						"POSITION":0,
						"NORMAL":1,
						"TEXCOORD_0":2,
						"TEXCOORD_1":3
					},
					"indices":4,
					"material":0
				},
				{
					"attributes":{
						"POSITION":5,
						"NORMAL":6,
						"TEXCOORD_0":7,
						"TEXCOORD_1":8
					},
					"indices":9,
					"material":1
				}
			]
		},
		{
			"name":"SM_Wall_Inner_16th_01.019",
			"primitives":[
				{
					"attributes":{
						"POSITION":10,
						"NORMAL":11,
						"TEXCOORD_0":12,
						"TEXCOORD_1":13
					},
					"indices":14,
					"material":0
				},
				{
					"attributes":{
						"POSITION":15,
						"NORMAL":16,
						"TEXCOORD_0":17,
						"TEXCOORD_1":18
					},
					"indices":19,
					"material":1
				}
			]
		},
		{
			"name":"SM_Wall_Inner_16th_01.003",
			"primitives":[
				{
					"attributes":{
						"POSITION":20,
						"NORMAL":21,
						"TEXCOORD_0":22,
						"TEXCOORD_1":23
					},
					"indices":14,
					"material":0
				},
				{
					"attributes":{
						"POSITION":24,
						"NORMAL":25,
						"TEXCOORD_0":26,
						"TEXCOORD_1":27
					},
					"indices":19,
					"material":1
				}
			]
		}
	],
	"accessors":[
		{
			"bufferView":0,
			"componentType":5126,
			"count":36,
			"max":[
				0.11829476803541183,
				0.12262618541717529,
				0.11854685097932816
			],
			"min":[
				-0.11804646998643875,
				-7.105427357601002e-15,
				-0.11779247224330902
			],
			"type":"VEC3"
		},
		{
			"bufferView":1,
			"componentType":5126,
			"count":36,
			"type":"VEC3"
		},
		{
			"bufferView":2,
			"componentType":5126,
			"count":36,
			"type":"VEC2"
		},
		{
			"bufferView":3,
			"componentType":5126,
			"count":36,
			"type":"VEC2"
		},
		{
			"bufferView":4,
			"componentType":5123,
			"count":54,
			"type":"SCALAR"
		},
		{
			"bufferView":5,
			"componentType":5126,
			"count":12,
			"max":[
				0.09999952465295792,
				2.9999990463256836,
				0.09999954700469971
			],
			"min":[
				-0.11804646998643875,
				0.12262618541717529,
				-0.10000336170196533
			],
			"type":"VEC3"
		},
		{
			"bufferView":6,
			"componentType":5126,
			"count":12,
			"type":"VEC3"
		},
		{
			"bufferView":7,
			"componentType":5126,
			"count":12,
			"type":"VEC2"
		},
		{
			"bufferView":8,
			"componentType":5126,
			"count":12,
			"type":"VEC2"
		},
		{
			"bufferView":9,
			"componentType":5123,
			"count":18,
			"type":"SCALAR"
		},
		{
			"bufferView":10,
			"componentType":5126,
			"count":36,
			"max":[
				0.11829476803541183,
				0.12262618541717529,
				0.11854685097932816
			],
			"min":[
				-0.11804646998643875,
				-7.105427357601002e-15,
				-0.11779247224330902
			],
			"type":"VEC3"
		},
		{
			"bufferView":11,
			"componentType":5126,
			"count":36,
			"type":"VEC3"
		},
		{
			"bufferView":12,
			"componentType":5126,
			"count":36,
			"type":"VEC2"
		},
		{
			"bufferView":13,
			"componentType":5126,
			"count":36,
			"type":"VEC2"
		},
		{
			"bufferView":14,
			"componentType":5123,
			"count":54,
			"type":"SCALAR"
		},
		{
			"bufferView":15,
			"componentType":5126,
			"count":12,
			"max":[
				0.09999952465295792,
				2.9999990463256836,
				0.09999954700469971
			],
			"min":[
				-0.11804646998643875,
				0.12262618541717529,
				-0.10000336170196533
			],
			"type":"VEC3"
		},
		{
			"bufferView":16,
			"componentType":5126,
			"count":12,
			"type":"VEC3"
		},
		{
			"bufferView":17,
			"componentType":5126,
			"count":12,
			"type":"VEC2"
		},
		{
			"bufferView":18,
			"componentType":5126,
			"count":12,
			"type":"VEC2"
		},
		{
			"bufferView":19,
			"componentType":5123,
			"count":18,
			"type":"SCALAR"
		},
		{
			"bufferView":20,
			"componentType":5126,
			"count":36,
			"max":[
				0.11829476803541183,
				0.12262618541717529,
				0.11854685097932816
			],
			"min":[
				-0.11804646998643875,
				-7.105427357601002e-15,
				-0.11779247224330902
			],
			"type":"VEC3"
		},
		{
			"bufferView":21,
			"componentType":5126,
			"count":36,
			"type":"VEC3"
		},
		{
			"bufferView":22,
			"componentType":5126,
			"count":36,
			"type":"VEC2"
		},
		{
			"bufferView":23,
			"componentType":5126,
			"count":36,
			"type":"VEC2"
		},
		{
			"bufferView":24,
			"componentType":5126,
			"count":12,
			"max":[
				0.09999952465295792,
				2.9999990463256836,
				0.09999954700469971
			],
			"min":[
				-0.11804646998643875,
				0.12262618541717529,
				-0.10000336170196533
			],
			"type":"VEC3"
		},
		{
			"bufferView":25,
			"componentType":5126,
			"count":12,
			"type":"VEC3"
		},
		{
			"bufferView":26,
			"componentType":5126,
			"count":12,
			"type":"VEC2"
		},
		{
			"bufferView":27,
			"componentType":5126,
			"count":12,
			"type":"VEC2"
		}
	],
	"bufferViews":[
		{
			"buffer":0,
			"byteLength":432,
			"byteOffset":0,
			"target":34962
		},
		{
			"buffer":0,
			"byteLength":432,
			"byteOffset":432,
			"target":34962
		},
		{
			"buffer":0,
			"byteLength":288,
			"byteOffset":864,
			"target":34962
		},
		{
			"buffer":0,
			"byteLength":288,
			"byteOffset":1152,
			"target":34962
		},
		{
			"buffer":0,
			"byteLength":108,
			"byteOffset":1440,
			"target":34963
		},
		{
			"buffer":0,
			"byteLength":144,
			"byteOffset":1548,
			"target":34962
		},
		{
			"buffer":0,
			"byteLength":144,
			"byteOffset":1692,
			"target":34962
		},
		{
			"buffer":0,
			"byteLength":96,
			"byteOffset":1836,
			"target":34962
		},
		{
			"buffer":0,
			"byteLength":96,
			"byteOffset":1932,
			"target":34962
		},
		{
			"buffer":0,
			"byteLength":36,
			"byteOffset":2028,
			"target":34963
		},
		{
			"buffer":0,
			"byteLength":432,
			"byteOffset":2064,
			"target":34962
		},
		{
			"buffer":0,
			"byteLength":432,
			"byteOffset":2496,
			"target":34962
		},
		{
			"buffer":0,
			"byteLength":288,
			"byteOffset":2928,
			"target":34962
		},
		{
			"buffer":0,
			"byteLength":288,
			"byteOffset":3216,
			"target":34962
		},
		{
			"buffer":0,
			"byteLength":108,
			"byteOffset":3504,
			"target":34963
		},
		{
			"buffer":0,
			"byteLength":144,
			"byteOffset":3612,
			"target":34962
		},
		{
			"buffer":0,
			"byteLength":144,
			"byteOffset":3756,
			"target":34962
		},
		{
			"buffer":0,
			"byteLength":96,
			"byteOffset":3900,
			"target":34962
		},
		{
			"buffer":0,
			"byteLength":96,
			"byteOffset":3996,
			"target":34962
		},
		{
			"buffer":0,
			"byteLength":36,
			"byteOffset":4092,
			"target":34963
		},
		{
			"buffer":0,
			"byteLength":432,
			"byteOffset":4128,
			"target":34962
		},
		{
			"buffer":0,
			"byteLength":432,
			"byteOffset":4560,
			"target":34962
		},
		{
			"buffer":0,
			"byteLength":288,
			"byteOffset":4992,
			"target":34962
		},
		{
			"buffer":0,
			"byteLength":288,
			"byteOffset":5280,
			"target":34962
		},
		{
			"buffer":0,
			"byteLength":144,
			"byteOffset":5568,
			"target":34962
		},
		{
			"buffer":0,
			"byteLength":144,
			"byteOffset":5712,
			"target":34962
		},
		{
			"buffer":0,
			"byteLength":96,
			"byteOffset":5856,
			"target":34962
		},
		{
			"buffer":0,
			"byteLength":96,
			"byteOffset":5952,
			"target":34962
		}
	],
	"buffers":[
		{
			"byteLength":6048,
			"uri":"SM_Wall_Inner_End_01.bin"
		}
	]
}
