{
	"asset":{
		"generator":"Khronos glTF Blender I/O v5.0.21",
		"version":"2.0"
	},
	"scene":0,
	"scenes":[
		{
			"extras":{
				"NEXUS_ASSET_METADATA":{
					"asset_id":"asset_29c2e481-ded5-4ac6-a07c-72382d3bef9d",
					"asset_name":"SM_Wall_Inner_10dm_01",
					"export_type":"ASSET",
					"root_type":"STATIC",
					"script_path":"",
					"godot_groups":[],
					"collision_layer":1,
					"collision_mask":131,
					"physics_material_path":"",
					"nexus_metadata":{},
					"nexus_light_bake_mode":1
				}
			},
			"name":"SM_Wall_Inner_10dm_01",
			"nodes":[
				0,
				1
			]
		}
	],
	"nodes":[
		{
			"extras":{
				"MaxHandle":"3980",
				"NEXUS_NODE_METADATA":{
					"uuid":"obj_e14ced88-b735-4802-ae09-3ec47de0a4e1",
					"discard_mesh":false,
					"nexus_collision_dims":{
						"shape":"BOX",
						"margin":1.0,
						"size_x":0.5,
						"size_y":1.5,
						"size_z":0.118,
						"radius":0.0,
						"height":0.0,
						"offset_x":-0.0,
						"offset_y":1.5,
						"offset_z":0.0005
					}
				}
			},
			"mesh":0,
			"name":"SM_Wall_Inner_10dm_01"
		},
		{
			"extras":{
				"MaxHandle":"3980",
				"NEXUS_NODE_METADATA":{
					"uuid":"obj_e14ced88-b735-4802-ae09-3ec47de0a4e1",
					"discard_mesh":true,
					"nexus_mesh_collision_shape":"RESONANCE_STATIC",
					"nexus_resonance_material_path":"res://addons/nexus_resonance/materials/brick.tres"
				}
			},
			"mesh":1,
			"name":"SM_Wall_Inner_10dm_01_reso"
		}
	],
	"materials":[
		{
			"doubleSided":true,
			"extras":{
				"nexus_material_id":"mat_7ba39fa3-600c-4376-aff8-ce6ccd502ff3"
			},
			"name":"DUMMY_M_WallFrame_01_mat_",
			"pbrMetallicRoughness":{
				"baseColorFactor":[
					0.800000011920929,
					0.800000011920929,
					0.800000011920929,
					1
				],
				"metallicFactor":0,
				"roughnessFactor":0.5
			}
		},
		{
			"doubleSided":true,
			"extras":{
				"nexus_material_id":"mat_59751b64-fe1b-4bf7-b2d9-ba6c90f52e34"
			},
			"name":"DUMMY_M_WallPaper_01_mat_",
			"pbrMetallicRoughness":{
				"baseColorFactor":[
					0.800000011920929,
					0.800000011920929,
					0.800000011920929,
					1
				],
				"metallicFactor":0,
				"roughnessFactor":0.5
			}
		}
	],
	"meshes":[
		{
			"name":"SM_Wall_Inner_16th_01",
			"primitives":[
				{
					"attributes":{
						"POSITION":0,
						"NORMAL":1,
						"TEXCOORD_0":2,
						"TEXCOORD_1":3
					},
					"indices":4,
					"material":0
				},
				{
					"attributes":{
						"POSITION":5,
						"NORMAL":6,
						"TEXCOORD_0":7,
						"TEXCOORD_1":8
					},
					"indices":9,
					"material":1
				},
				{
					"attributes":{
						"POSITION":10,
						"NORMAL":11,
						"TEXCOORD_0":12,
						"TEXCOORD_1":13
					},
					"indices":14,
					"material":1
				}
			]
		},
		{
			"name":"SM_Wall_Inner_16th_01.001",
			"primitives":[
				{
					"attributes":{
						"POSITION":15,
						"NORMAL":16,
						"TEXCOORD_0":17,
						"TEXCOORD_1":18
					},
					"indices":19,
					"material":0
				},
				{
					"attributes":{
						"POSITION":20,
						"NORMAL":21,
						"TEXCOORD_0":22,
						"TEXCOORD_1":23
					},
					"indices":24,
					"material":1
				},
				{
					"attributes":{
						"POSITION":25,
						"NORMAL":26,
						"TEXCOORD_0":27,
						"TEXCOORD_1":28
					},
					"indices":29,
					"material":1
				}
			]
		}
	],
	"accessors":[
		{
			"bufferView":0,
			"componentType":5126,
			"count":48,
			"max":[
				0.5000001192092896,
				0.12262618541717529,
				0.11854690313339233
			],
			"min":[
				-0.5000038146972656,
				-7.105427357601002e-15,
				-0.11754218488931656
			],
			"type":"VEC3"
		},
		{
			"bufferView":1,
			"componentType":5126,
			"count":48,
			"type":"VEC3"
		},
		{
			"bufferView":2,
			"componentType":5126,
			"count":48,
			"type":"VEC2"
		},
		{
			"bufferView":3,
			"componentType":5126,
			"count":48,
			"type":"VEC2"
		},
		{
			"bufferView":4,
			"componentType":5123,
			"count":108,
			"type":"SCALAR"
		},
		{
			"bufferView":5,
			"componentType":5126,
			"count":8,
			"max":[
				0.5,
				2.9999990463256836,
				0.09999906271696091
			],
			"min":[
				-0.5000035166740417,
				0.12262618541717529,
				0.09999906271696091
			],
			"type":"VEC3"
		},
		{
			"bufferView":6,
			"componentType":5126,
			"count":8,
			"type":"VEC3"
		},
		{
			"bufferView":7,
			"componentType":5126,
			"count":8,
			"type":"VEC2"
		},
		{
			"bufferView":8,
			"componentType":5126,
			"count":8,
			"type":"VEC2"
		},
		{
			"bufferView":9,
			"componentType":5123,
			"count":18,
			"type":"SCALAR"
		},
		{
			"bufferView":10,
			"componentType":5126,
			"count":8,
			"max":[
				0.5000000596046448,
				2.9999990463256836,
				-0.10000335425138474
			],
			"min":[
				-0.5000038146972656,
				0.12262618541717529,
				-0.10000336170196533
			],
			"type":"VEC3"
		},
		{
			"bufferView":11,
			"componentType":5126,
			"count":8,
			"type":"VEC3"
		},
		{
			"bufferView":12,
			"componentType":5126,
			"count":8,
			"type":"VEC2"
		},
		{
			"bufferView":13,
			"componentType":5126,
			"count":8,
			"type":"VEC2"
		},
		{
			"bufferView":14,
			"componentType":5123,
			"count":18,
			"type":"SCALAR"
		},
		{
			"bufferView":15,
			"componentType":5126,
			"count":24,
			"max":[
				0.5000001192092896,
				0.12262618541717529,
				0.11854690313339233
			],
			"min":[
				-0.5000038146972656,
				-7.258904440305006e-18,
				-0.11754218488931656
			],
			"type":"VEC3"
		},
		{
			"bufferView":16,
			"componentType":5126,
			"count":24,
			"type":"VEC3"
		},
		{
			"bufferView":17,
			"componentType":5126,
			"count":24,
			"type":"VEC2"
		},
		{
			"bufferView":18,
			"componentType":5126,
			"count":24,
			"type":"VEC2"
		},
		{
			"bufferView":19,
			"componentType":5123,
			"count":36,
			"type":"SCALAR"
		},
		{
			"bufferView":20,
			"componentType":5126,
			"count":4,
			"max":[
				0.5,
				2.9999990463256836,
				0.09999906271696091
			],
			"min":[
				-0.5000035166740417,
				0.12262618541717529,
				0.09999906271696091
			],
			"type":"VEC3"
		},
		{
			"bufferView":21,
			"componentType":5126,
			"count":4,
			"type":"VEC3"
		},
		{
			"bufferView":22,
			"componentType":5126,
			"count":4,
			"type":"VEC2"
		},
		{
			"bufferView":23,
			"componentType":5126,
			"count":4,
			"type":"VEC2"
		},
		{
			"bufferView":24,
			"componentType":5123,
			"count":6,
			"type":"SCALAR"
		},
		{
			"bufferView":25,
			"componentType":5126,
			"count":4,
			"max":[
				0.5000000596046448,
				2.9999990463256836,
				-0.10000335425138474
			],
			"min":[
				-0.5000038146972656,
				0.12262618541717529,
				-0.10000336170196533
			],
			"type":"VEC3"
		},
		{
			"bufferView":26,
			"componentType":5126,
			"count":4,
			"type":"VEC3"
		},
		{
			"bufferView":27,
			"componentType":5126,
			"count":4,
			"type":"VEC2"
		},
		{
			"bufferView":28,
			"componentType":5126,
			"count":4,
			"type":"VEC2"
		},
		{
			"bufferView":29,
			"componentType":5123,
			"count":6,
			"type":"SCALAR"
		}
	],
	"bufferViews":[
		{
			"buffer":0,
			"byteLength":576,
			"byteOffset":0,
			"target":34962
		},
		{
			"buffer":0,
			"byteLength":576,
			"byteOffset":576,
			"target":34962
		},
		{
			"buffer":0,
			"byteLength":384,
			"byteOffset":1152,
			"target":34962
		},
		{
			"buffer":0,
			"byteLength":384,
			"byteOffset":1536,
			"target":34962
		},
		{
			"buffer":0,
			"byteLength":216,
			"byteOffset":1920,
			"target":34963
		},
		{
			"buffer":0,
			"byteLength":96,
			"byteOffset":2136,
			"target":34962
		},
		{
			"buffer":0,
			"byteLength":96,
			"byteOffset":2232,
			"target":34962
		},
		{
			"buffer":0,
			"byteLength":64,
			"byteOffset":2328,
			"target":34962
		},
		{
			"buffer":0,
			"byteLength":64,
			"byteOffset":2392,
			"target":34962
		},
		{
			"buffer":0,
			"byteLength":36,
			"byteOffset":2456,
			"target":34963
		},
		{
			"buffer":0,
			"byteLength":96,
			"byteOffset":2492,
			"target":34962
		},
		{
			"buffer":0,
			"byteLength":96,
			"byteOffset":2588,
			"target":34962
		},
		{
			"buffer":0,
			"byteLength":64,
			"byteOffset":2684,
			"target":34962
		},
		{
			"buffer":0,
			"byteLength":64,
			"byteOffset":2748,
			"target":34962
		},
		{
			"buffer":0,
			"byteLength":36,
			"byteOffset":2812,
			"target":34963
		},
		{
			"buffer":0,
			"byteLength":288,
			"byteOffset":2848,
			"target":34962
		},
		{
			"buffer":0,
			"byteLength":288,
			"byteOffset":3136,
			"target":34962
		},
		{
			"buffer":0,
			"byteLength":192,
			"byteOffset":3424,
			"target":34962
		},
		{
			"buffer":0,
			"byteLength":192,
			"byteOffset":3616,
			"target":34962
		},
		{
			"buffer":0,
			"byteLength":72,
			"byteOffset":3808,
			"target":34963
		},
		{
			"buffer":0,
			"byteLength":48,
			"byteOffset":3880,
			"target":34962
		},
		{
			"buffer":0,
			"byteLength":48,
			"byteOffset":3928,
			"target":34962
		},
		{
			"buffer":0,
			"byteLength":32,
			"byteOffset":3976,
			"target":34962
		},
		{
			"buffer":0,
			"byteLength":32,
			"byteOffset":4008,
			"target":34962
		},
		{
			"buffer":0,
			"byteLength":12,
			"byteOffset":4040,
			"target":34963
		},
		{
			"buffer":0,
			"byteLength":48,
			"byteOffset":4052,
			"target":34962
		},
		{
			"buffer":0,
			"byteLength":48,
			"byteOffset":4100,
			"target":34962
		},
		{
			"buffer":0,
			"byteLength":32,
			"byteOffset":4148,
			"target":34962
		},
		{
			"buffer":0,
			"byteLength":32,
			"byteOffset":4180,
			"target":34962
		},
		{
			"buffer":0,
			"byteLength":12,
			"byteOffset":4212,
			"target":34963
		}
	],
	"buffers":[
		{
			"byteLength":4224,
			"uri":"SM_Wall_Inner_10dm_01.bin"
		}
	]
}
