{
	"asset":{
		"generator":"Khronos glTF Blender I/O v5.0.21",
		"version":"2.0"
	},
	"scene":0,
	"scenes":[
		{
			"extras":{
				"NEXUS_ASSET_METADATA":{
					"asset_id":"asset_7475549d-844d-4d87-a1c9-c3ca9018dda7",
					"asset_name":"SM_FirstStage_01",
					"export_type":"ASSET",
					"root_type":"STATIC",
					"script_path":"",
					"godot_groups":[],
					"collision_layer":1,
					"collision_mask":131,
					"physics_material_path":"",
					"nexus_metadata":{},
					"nexus_light_bake_mode":1
				}
			},
			"name":"SM_FirstStage_01",
			"nodes":[
				0,
				1
			]
		}
	],
	"nodes":[
		{
			"extras":{
				"NEXUS_NODE_METADATA":{
					"uuid":"obj_69471359-18c7-4fbf-8e89-c2ee1174d255",
					"discard_mesh":false,
					"nexus_mesh_collision_shape":"TRIMESH",
					"nexus_collision_dims":{
						"shape":"TRIMESH",
						"margin":1.0,
						"size_x":0.0,
						"size_y":0.0,
						"size_z":0.0,
						"radius":0.0,
						"height":0.0,
						"offset_x":0.0,
						"offset_y":0.0,
						"offset_z":0.0
					}
				}
			},
			"mesh":0,
			"name":"Plane.002"
		},
		{
			"extras":{
				"NEXUS_NODE_METADATA":{
					"uuid":"obj_69471359-18c7-4fbf-8e89-c2ee1174d255",
					"discard_mesh":true,
					"nexus_mesh_collision_shape":"RESONANCE_STATIC",
					"nexus_resonance_material_path":"res://addons/nexus_resonance/materials/acoustic_ceiling_tile.tres"
				}
			},
			"mesh":1,
			"name":"Plane.003"
		}
	],
	"materials":[
		{
			"doubleSided":true,
			"extras":{
				"nexus_material_id":"mat_59751b64-fe1b-4bf7-b2d9-ba6c90f52e34"
			},
			"name":"DUMMY_M_WallPaper_01_mat_",
			"pbrMetallicRoughness":{
				"baseColorFactor":[
					0.800000011920929,
					0.800000011920929,
					0.800000011920929,
					1
				],
				"metallicFactor":0,
				"roughnessFactor":0.5
			}
		}
	],
	"meshes":[
		{
			"name":"Plane.001",
			"primitives":[
				{
					"attributes":{
						"POSITION":0,
						"NORMAL":1,
						"TEXCOORD_0":2
					},
					"indices":3,
					"material":0
				}
			]
		},
		{
			"name":"Plane.002",
			"primitives":[
				{
					"attributes":{
						"POSITION":4,
						"NORMAL":5,
						"TEXCOORD_0":6
					},
					"indices":3,
					"material":0
				}
			]
		}
	],
	"accessors":[
		{
			"bufferView":0,
			"componentType":5126,
			"count":148,
			"max":[
				21.500003814697266,
				0.250124454498291,
				22.51105499267578
			],
			"min":[
				-0.700005054473877,
				-5.960464477539063e-08,
				-0.705437421798706
			],
			"type":"VEC3"
		},
		{
			"bufferView":1,
			"componentType":5126,
			"count":148,
			"type":"VEC3"
		},
		{
			"bufferView":2,
			"componentType":5126,
			"count":148,
			"type":"VEC2"
		},
		{
			"bufferView":3,
			"componentType":5123,
			"count":348,
			"type":"SCALAR"
		},
		{
			"bufferView":4,
			"componentType":5126,
			"count":148,
			"max":[
				21.500003814697266,
				0.250124454498291,
				22.51105499267578
			],
			"min":[
				-0.700005054473877,
				-5.960464477539063e-08,
				-0.705437421798706
			],
			"type":"VEC3"
		},
		{
			"bufferView":5,
			"componentType":5126,
			"count":148,
			"type":"VEC3"
		},
		{
			"bufferView":6,
			"componentType":5126,
			"count":148,
			"type":"VEC2"
		}
	],
	"bufferViews":[
		{
			"buffer":0,
			"byteLength":1776,
			"byteOffset":0,
			"target":34962
		},
		{
			"buffer":0,
			"byteLength":1776,
			"byteOffset":1776,
			"target":34962
		},
		{
			"buffer":0,
			"byteLength":1184,
			"byteOffset":3552,
			"target":34962
		},
		{
			"buffer":0,
			"byteLength":696,
			"byteOffset":4736,
			"target":34963
		},
		{
			"buffer":0,
			"byteLength":1776,
			"byteOffset":5432,
			"target":34962
		},
		{
			"buffer":0,
			"byteLength":1776,
			"byteOffset":7208,
			"target":34962
		},
		{
			"buffer":0,
			"byteLength":1184,
			"byteOffset":8984,
			"target":34962
		}
	],
	"buffers":[
		{
			"byteLength":10168,
			"uri":"SM_FirstStage_01.bin"
		}
	]
}
