{
	"asset":{
		"generator":"Khronos glTF Blender I/O v5.0.21",
		"version":"2.0"
	},
	"scene":0,
	"scenes":[
		{
			"extras":{
				"NEXUS_ASSET_METADATA":{
					"asset_id":"asset_254d12e4-74d9-45c0-a1eb-9e96121ee870",
					"asset_name":"SM_Pole_01",
					"export_type":"ASSET",
					"root_type":"STATIC",
					"script_path":"",
					"godot_groups":[],
					"collision_layer":1,
					"collision_mask":131,
					"physics_material_path":"",
					"nexus_metadata":{},
					"nexus_light_bake_mode":1
				}
			},
			"name":"SM_Pole_01",
			"nodes":[
				0,
				1
			]
		}
	],
	"nodes":[
		{
			"extras":{
				"NEXUS_NODE_METADATA":{
					"uuid":"obj_f5efeb7a-62a2-4208-a6b1-5941a9c52a0a",
					"discard_mesh":false,
					"nexus_collision_dims":{
						"shape":"BOX",
						"margin":1.0,
						"size_x":0.044,
						"size_y":0.4,
						"size_z":0.044,
						"radius":0.0,
						"height":0.0,
						"offset_x":-0.0,
						"offset_y":0.0,
						"offset_z":-0.0
					}
				}
			},
			"mesh":0,
			"name":"Cube",
			"translation":[
				0,
				0.4000000059604645,
				0
			]
		},
		{
			"extras":{
				"NEXUS_NODE_METADATA":{
					"uuid":"obj_f5efeb7a-62a2-4208-a6b1-5941a9c52a0a",
					"discard_mesh":true,
					"nexus_mesh_collision_shape":"RESONANCE_STATIC",
					"nexus_resonance_material_path":"res://addons/nexus_resonance/materials/wood.tres"
				}
			},
			"mesh":1,
			"name":"Cube_reso",
			"translation":[
				0,
				0.4000000059604645,
				0
			]
		}
	],
	"materials":[
		{
			"doubleSided":true,
			"extras":{
				"nexus_material_id":"mat_7ba39fa3-600c-4376-aff8-ce6ccd502ff3"
			},
			"name":"DUMMY_M_WallFrame_01_mat_",
			"pbrMetallicRoughness":{
				"baseColorFactor":[
					0.800000011920929,
					0.800000011920929,
					0.800000011920929,
					1
				],
				"metallicFactor":0,
				"roughnessFactor":0.5
			}
		}
	],
	"meshes":[
		{
			"name":"Cube.003",
			"primitives":[
				{
					"attributes":{
						"POSITION":0,
						"NORMAL":1,
						"TEXCOORD_0":2
					},
					"indices":3,
					"material":0
				}
			]
		},
		{
			"name":"Cube.004",
			"primitives":[
				{
					"attributes":{
						"POSITION":4,
						"NORMAL":5,
						"TEXCOORD_0":6
					},
					"indices":3,
					"material":0
				}
			]
		}
	],
	"accessors":[
		{
			"bufferView":0,
			"componentType":5126,
			"count":168,
			"max":[
				0.04403960704803467,
				0.4000000059604645,
				0.04403960704803467
			],
			"min":[
				-0.044039636850357056,
				-0.4000000059604645,
				-0.04403960704803467
			],
			"type":"VEC3"
		},
		{
			"bufferView":1,
			"componentType":5126,
			"count":168,
			"type":"VEC3"
		},
		{
			"bufferView":2,
			"componentType":5126,
			"count":168,
			"type":"VEC2"
		},
		{
			"bufferView":3,
			"componentType":5123,
			"count":228,
			"type":"SCALAR"
		},
		{
			"bufferView":4,
			"componentType":5126,
			"count":168,
			"max":[
				0.04403960704803467,
				0.4000000059604645,
				0.04403960704803467
			],
			"min":[
				-0.044039636850357056,
				-0.4000000059604645,
				-0.04403960704803467
			],
			"type":"VEC3"
		},
		{
			"bufferView":5,
			"componentType":5126,
			"count":168,
			"type":"VEC3"
		},
		{
			"bufferView":6,
			"componentType":5126,
			"count":168,
			"type":"VEC2"
		}
	],
	"bufferViews":[
		{
			"buffer":0,
			"byteLength":2016,
			"byteOffset":0,
			"target":34962
		},
		{
			"buffer":0,
			"byteLength":2016,
			"byteOffset":2016,
			"target":34962
		},
		{
			"buffer":0,
			"byteLength":1344,
			"byteOffset":4032,
			"target":34962
		},
		{
			"buffer":0,
			"byteLength":456,
			"byteOffset":5376,
			"target":34963
		},
		{
			"buffer":0,
			"byteLength":2016,
			"byteOffset":5832,
			"target":34962
		},
		{
			"buffer":0,
			"byteLength":2016,
			"byteOffset":7848,
			"target":34962
		},
		{
			"buffer":0,
			"byteLength":1344,
			"byteOffset":9864,
			"target":34962
		}
	],
	"buffers":[
		{
			"byteLength":11208,
			"uri":"SM_Pole_01.bin"
		}
	]
}
