{
	"asset":{
		"generator":"Khronos glTF Blender I/O v5.0.21",
		"version":"2.0"
	},
	"scene":0,
	"scenes":[
		{
			"extras":{
				"NEXUS_ASSET_METADATA":{
					"asset_id":"asset_83418bbe-40bf-480c-8315-bdab1361f28b",
					"asset_name":"SM_Radio",
					"export_type":"ASSET",
					"root_type":"STATIC",
					"script_path":"",
					"godot_groups":[
						"prop"
					],
					"collision_layer":2,
					"collision_mask":131,
					"physics_material_path":"",
					"nexus_metadata":{},
					"nexus_light_bake_mode":1
				}
			},
			"name":"SM_Radio",
			"nodes":[
				0,
				1
			]
		}
	],
	"nodes":[
		{
			"extras":{
				"NEXUS_NODE_METADATA":{
					"uuid":"obj_a7e15c06-5772-480c-a530-7d2a7093d016",
					"discard_mesh":false,
					"nexus_collision_dims":{
						"shape":"BOX",
						"margin":1.0,
						"size_x":0.25,
						"size_y":0.125,
						"size_z":0.0625,
						"radius":0.0,
						"height":0.0,
						"offset_x":0.0,
						"offset_y":0.125,
						"offset_z":-0.0189
					}
				}
			},
			"mesh":0,
			"name":"radio_mesh"
		},
		{
			"extras":{
				"NEXUS_NODE_METADATA":{
					"uuid":"obj_b77ee8fd-7f1d-48a1-aa7c-5b79f9fa7c6a",
					"discard_mesh":false,
					"nexus_mesh_collision_shape":"RESONANCE_STATIC",
					"nexus_resonance_material_path":"res://addons/nexus_resonance/materials/plastic.tres"
				}
			},
			"mesh":1,
			"name":"radio_reso"
		}
	],
	"materials":[
		{
			"doubleSided":true,
			"extras":{
				"nexus_material_id":"mat_b03eb7c1-40fc-4a97-839f-5c5fd36a8144"
			},
			"name":"DUMMY_Material_mat_",
			"pbrMetallicRoughness":{
				"baseColorFactor":[
					0.800000011920929,
					0.800000011920929,
					0.800000011920929,
					1
				],
				"metallicFactor":0,
				"roughnessFactor":0.5
			}
		}
	],
	"meshes":[
		{
			"name":"Cube",
			"primitives":[
				{
					"attributes":{
						"POSITION":0,
						"NORMAL":1,
						"TEXCOORD_0":2
					},
					"indices":3,
					"material":0
				}
			]
		},
		{
			"name":"Cube.001",
			"primitives":[
				{
					"attributes":{
						"POSITION":4,
						"NORMAL":5,
						"TEXCOORD_0":6
					},
					"indices":7
				}
			]
		}
	],
	"accessors":[
		{
			"bufferView":0,
			"componentType":5126,
			"count":326,
			"max":[
				0.25,
				0.2499999850988388,
				0.043635617941617966
			],
			"min":[
				-0.25,
				0,
				-0.08136437088251114
			],
			"type":"VEC3"
		},
		{
			"bufferView":1,
			"componentType":5126,
			"count":326,
			"type":"VEC3"
		},
		{
			"bufferView":2,
			"componentType":5126,
			"count":326,
			"type":"VEC2"
		},
		{
			"bufferView":3,
			"componentType":5123,
			"count":672,
			"type":"SCALAR"
		},
		{
			"bufferView":4,
			"componentType":5126,
			"count":24,
			"max":[
				0.24593773484230042,
				0.23152780532836914,
				0.04379782825708389
			],
			"min":[
				-0.2457878142595291,
				0,
				-0.08134465664625168
			],
			"type":"VEC3"
		},
		{
			"bufferView":5,
			"componentType":5126,
			"count":24,
			"type":"VEC3"
		},
		{
			"bufferView":6,
			"componentType":5126,
			"count":24,
			"type":"VEC2"
		},
		{
			"bufferView":7,
			"componentType":5123,
			"count":36,
			"type":"SCALAR"
		}
	],
	"bufferViews":[
		{
			"buffer":0,
			"byteLength":3912,
			"byteOffset":0,
			"target":34962
		},
		{
			"buffer":0,
			"byteLength":3912,
			"byteOffset":3912,
			"target":34962
		},
		{
			"buffer":0,
			"byteLength":2608,
			"byteOffset":7824,
			"target":34962
		},
		{
			"buffer":0,
			"byteLength":1344,
			"byteOffset":10432,
			"target":34963
		},
		{
			"buffer":0,
			"byteLength":288,
			"byteOffset":11776,
			"target":34962
		},
		{
			"buffer":0,
			"byteLength":288,
			"byteOffset":12064,
			"target":34962
		},
		{
			"buffer":0,
			"byteLength":192,
			"byteOffset":12352,
			"target":34962
		},
		{
			"buffer":0,
			"byteLength":72,
			"byteOffset":12544,
			"target":34963
		}
	],
	"buffers":[
		{
			"byteLength":12616,
			"uri":"SM_Radio.bin"
		}
	]
}
