{
	"asset":{
		"generator":"Khronos glTF Blender I/O v5.0.21",
		"version":"2.0"
	},
	"scene":0,
	"scenes":[
		{
			"extras":{
				"NEXUS_ASSET_METADATA":{
					"asset_id":"asset_06ea0b68-f491-4c09-b0c5-60bed1bbd77b",
					"asset_name":"SM_Wall_Inner_XCorner_01",
					"export_type":"ASSET",
					"root_type":"STATIC",
					"script_path":"",
					"godot_groups":[],
					"collision_layer":1,
					"collision_mask":131,
					"physics_material_path":"",
					"nexus_metadata":{},
					"nexus_light_bake_mode":1
				}
			},
			"name":"SM_Wall_Inner_XCorner_01",
			"nodes":[
				0,
				1,
				2,
				3
			]
		}
	],
	"nodes":[
		{
			"extras":{
				"MaxHandle":"3980",
				"NEXUS_NODE_METADATA":{
					"uuid":"obj_e14ced88-b735-4802-ae09-3ec47de0a4e1",
					"discard_mesh":false
				}
			},
			"mesh":0,
			"name":"SM_Wall_Inner_XCorner_01_mesh",
			"rotation":[
				0,
				0.7071068286895752,
				0,
				0.7071068286895752
			]
		},
		{
			"extras":{
				"MaxHandle":"3980",
				"NEXUS_NODE_METADATA":{
					"uuid":"obj_e14ced88-b735-4802-ae09-3ec47de0a4e1",
					"discard_mesh":true,
					"nexus_collision_dims":{
						"shape":"BOX",
						"margin":1.0,
						"size_x":0.1182,
						"size_y":1.5,
						"size_z":0.5,
						"radius":0.0,
						"height":0.0,
						"offset_x":-0.0004,
						"offset_y":1.5,
						"offset_z":-0.0
					}
				}
			},
			"mesh":1,
			"name":"SM_Wall_Inner_XCorner_01_col001",
			"rotation":[
				0,
				0.7071068286895752,
				0,
				0.7071068286895752
			]
		},
		{
			"extras":{
				"MaxHandle":"3980",
				"NEXUS_NODE_METADATA":{
					"uuid":"obj_e14ced88-b735-4802-ae09-3ec47de0a4e1",
					"discard_mesh":true,
					"nexus_collision_dims":{
						"shape":"BOX",
						"margin":1.0,
						"size_x":0.5,
						"size_y":1.5,
						"size_z":0.1182,
						"radius":0.0,
						"height":0.0,
						"offset_x":-0.0,
						"offset_y":1.5,
						"offset_z":0.0004
					}
				}
			},
			"mesh":2,
			"name":"SM_Wall_Inner_XCorner_01_col002",
			"rotation":[
				0,
				0.7071068286895752,
				0,
				0.7071068286895752
			]
		},
		{
			"extras":{
				"MaxHandle":"3980",
				"NEXUS_NODE_METADATA":{
					"uuid":"obj_e14ced88-b735-4802-ae09-3ec47de0a4e1",
					"discard_mesh":false,
					"nexus_mesh_collision_shape":"RESONANCE_STATIC",
					"nexus_resonance_material_path":"res://addons/nexus_resonance/materials/brick.tres"
				}
			},
			"mesh":3,
			"name":"SM_Wall_Inner_XCorner_01_reso",
			"rotation":[
				0,
				0.7071068286895752,
				0,
				0.7071068286895752
			]
		}
	],
	"materials":[
		{
			"doubleSided":true,
			"extras":{
				"nexus_material_id":"mat_7ba39fa3-600c-4376-aff8-ce6ccd502ff3"
			},
			"name":"DUMMY_M_WallFrame_01_mat_",
			"pbrMetallicRoughness":{
				"baseColorFactor":[
					0.800000011920929,
					0.800000011920929,
					0.800000011920929,
					1
				],
				"metallicFactor":0,
				"roughnessFactor":0.5
			}
		},
		{
			"doubleSided":true,
			"extras":{
				"nexus_material_id":"mat_59751b64-fe1b-4bf7-b2d9-ba6c90f52e34"
			},
			"name":"DUMMY_M_WallPaper_01_mat_",
			"pbrMetallicRoughness":{
				"baseColorFactor":[
					0.800000011920929,
					0.800000011920929,
					0.800000011920929,
					1
				],
				"metallicFactor":0,
				"roughnessFactor":0.5
			}
		}
	],
	"meshes":[
		{
			"name":"SM_Wall_Inner_16th_01.008",
			"primitives":[
				{
					"attributes":{
						"POSITION":0,
						"NORMAL":1,
						"TEXCOORD_0":2,
						"TEXCOORD_1":3
					},
					"indices":4,
					"material":0
				},
				{
					"attributes":{
						"POSITION":5,
						"NORMAL":6,
						"TEXCOORD_0":7,
						"TEXCOORD_1":8
					},
					"indices":9,
					"material":1
				}
			]
		},
		{
			"name":"SM_Wall_Inner_16th_01.015",
			"primitives":[
				{
					"attributes":{
						"POSITION":10,
						"NORMAL":11,
						"TEXCOORD_0":12,
						"TEXCOORD_1":13
					},
					"indices":14,
					"material":0
				},
				{
					"attributes":{
						"POSITION":15,
						"NORMAL":16,
						"TEXCOORD_0":17,
						"TEXCOORD_1":18
					},
					"indices":19,
					"material":1
				}
			]
		},
		{
			"name":"SM_Wall_Inner_16th_01.016",
			"primitives":[
				{
					"attributes":{
						"POSITION":20,
						"NORMAL":21,
						"TEXCOORD_0":22,
						"TEXCOORD_1":23
					},
					"indices":24,
					"material":0
				},
				{
					"attributes":{
						"POSITION":25,
						"NORMAL":26,
						"TEXCOORD_0":27,
						"TEXCOORD_1":28
					},
					"indices":29,
					"material":1
				}
			]
		},
		{
			"name":"SM_Wall_Inner_16th_01.007",
			"primitives":[
				{
					"attributes":{
						"POSITION":30,
						"NORMAL":31,
						"TEXCOORD_0":32,
						"TEXCOORD_1":33
					},
					"indices":4,
					"material":0
				},
				{
					"attributes":{
						"POSITION":34,
						"NORMAL":35,
						"TEXCOORD_0":36,
						"TEXCOORD_1":37
					},
					"indices":9,
					"material":1
				}
			]
		}
	],
	"accessors":[
		{
			"bufferView":0,
			"componentType":5126,
			"count":80,
			"max":[
				0.5000001192092896,
				0.12262618541717529,
				0.5000002980232239
			],
			"min":[
				-0.5000038146972656,
				-3.556343214979486e-15,
				-0.5000039935112
			],
			"type":"VEC3"
		},
		{
			"bufferView":1,
			"componentType":5126,
			"count":80,
			"type":"VEC3"
		},
		{
			"bufferView":2,
			"componentType":5126,
			"count":80,
			"type":"VEC2"
		},
		{
			"bufferView":3,
			"componentType":5126,
			"count":80,
			"type":"VEC2"
		},
		{
			"bufferView":4,
			"componentType":5123,
			"count":144,
			"type":"SCALAR"
		},
		{
			"bufferView":5,
			"componentType":5126,
			"count":32,
			"max":[
				0.5000000596046448,
				2.9999990463256836,
				0.5000002384185791
			],
			"min":[
				-0.5000038146972656,
				0.12262618541717529,
				-0.5000039935112
			],
			"type":"VEC3"
		},
		{
			"bufferView":6,
			"componentType":5126,
			"count":32,
			"type":"VEC3"
		},
		{
			"bufferView":7,
			"componentType":5126,
			"count":32,
			"type":"VEC2"
		},
		{
			"bufferView":8,
			"componentType":5126,
			"count":32,
			"type":"VEC2"
		},
		{
			"bufferView":9,
			"componentType":5123,
			"count":48,
			"type":"SCALAR"
		},
		{
			"bufferView":10,
			"componentType":5126,
			"count":48,
			"max":[
				0.11779242753982544,
				0.12262618541717529,
				0.5000002980232239
			],
			"min":[
				-0.11854688823223114,
				-3.556343214979486e-15,
				-0.5000039935112
			],
			"type":"VEC3"
		},
		{
			"bufferView":11,
			"componentType":5126,
			"count":48,
			"type":"VEC3"
		},
		{
			"bufferView":12,
			"componentType":5126,
			"count":48,
			"type":"VEC2"
		},
		{
			"bufferView":13,
			"componentType":5126,
			"count":48,
			"type":"VEC2"
		},
		{
			"bufferView":14,
			"componentType":5123,
			"count":72,
			"type":"SCALAR"
		},
		{
			"bufferView":15,
			"componentType":5126,
			"count":16,
			"max":[
				0.10000335425138474,
				2.9999990463256836,
				0.5000002384185791
			],
			"min":[
				-0.09999953210353851,
				0.12262618541717529,
				-0.5000039935112
			],
			"type":"VEC3"
		},
		{
			"bufferView":16,
			"componentType":5126,
			"count":16,
			"type":"VEC3"
		},
		{
			"bufferView":17,
			"componentType":5126,
			"count":16,
			"type":"VEC2"
		},
		{
			"bufferView":18,
			"componentType":5126,
			"count":16,
			"type":"VEC2"
		},
		{
			"bufferView":19,
			"componentType":5123,
			"count":24,
			"type":"SCALAR"
		},
		{
			"bufferView":20,
			"componentType":5126,
			"count":48,
			"max":[
				0.5000001192092896,
				0.12262618541717529,
				0.11854690313339233
			],
			"min":[
				-0.5000038146972656,
				-3.556343214979486e-15,
				-0.11779434233903885
			],
			"type":"VEC3"
		},
		{
			"bufferView":21,
			"componentType":5126,
			"count":48,
			"type":"VEC3"
		},
		{
			"bufferView":22,
			"componentType":5126,
			"count":48,
			"type":"VEC2"
		},
		{
			"bufferView":23,
			"componentType":5126,
			"count":48,
			"type":"VEC2"
		},
		{
			"bufferView":24,
			"componentType":5123,
			"count":72,
			"type":"SCALAR"
		},
		{
			"bufferView":25,
			"componentType":5126,
			"count":16,
			"max":[
				0.5000000596046448,
				2.9999990463256836,
				0.0999995619058609
			],
			"min":[
				-0.5000038146972656,
				0.12262618541717529,
				-0.10000336170196533
			],
			"type":"VEC3"
		},
		{
			"bufferView":26,
			"componentType":5126,
			"count":16,
			"type":"VEC3"
		},
		{
			"bufferView":27,
			"componentType":5126,
			"count":16,
			"type":"VEC2"
		},
		{
			"bufferView":28,
			"componentType":5126,
			"count":16,
			"type":"VEC2"
		},
		{
			"bufferView":29,
			"componentType":5123,
			"count":24,
			"type":"SCALAR"
		},
		{
			"bufferView":30,
			"componentType":5126,
			"count":80,
			"max":[
				0.5000001192092896,
				0.12262618541717529,
				0.5000002980232239
			],
			"min":[
				-0.5000038146972656,
				-3.556343214979486e-15,
				-0.5000039935112
			],
			"type":"VEC3"
		},
		{
			"bufferView":31,
			"componentType":5126,
			"count":80,
			"type":"VEC3"
		},
		{
			"bufferView":32,
			"componentType":5126,
			"count":80,
			"type":"VEC2"
		},
		{
			"bufferView":33,
			"componentType":5126,
			"count":80,
			"type":"VEC2"
		},
		{
			"bufferView":34,
			"componentType":5126,
			"count":32,
			"max":[
				0.5000000596046448,
				2.9999990463256836,
				0.5000002384185791
			],
			"min":[
				-0.5000038146972656,
				0.12262618541717529,
				-0.5000039935112
			],
			"type":"VEC3"
		},
		{
			"bufferView":35,
			"componentType":5126,
			"count":32,
			"type":"VEC3"
		},
		{
			"bufferView":36,
			"componentType":5126,
			"count":32,
			"type":"VEC2"
		},
		{
			"bufferView":37,
			"componentType":5126,
			"count":32,
			"type":"VEC2"
		}
	],
	"bufferViews":[
		{
			"buffer":0,
			"byteLength":960,
			"byteOffset":0,
			"target":34962
		},
		{
			"buffer":0,
			"byteLength":960,
			"byteOffset":960,
			"target":34962
		},
		{
			"buffer":0,
			"byteLength":640,
			"byteOffset":1920,
			"target":34962
		},
		{
			"buffer":0,
			"byteLength":640,
			"byteOffset":2560,
			"target":34962
		},
		{
			"buffer":0,
			"byteLength":288,
			"byteOffset":3200,
			"target":34963
		},
		{
			"buffer":0,
			"byteLength":384,
			"byteOffset":3488,
			"target":34962
		},
		{
			"buffer":0,
			"byteLength":384,
			"byteOffset":3872,
			"target":34962
		},
		{
			"buffer":0,
			"byteLength":256,
			"byteOffset":4256,
			"target":34962
		},
		{
			"buffer":0,
			"byteLength":256,
			"byteOffset":4512,
			"target":34962
		},
		{
			"buffer":0,
			"byteLength":96,
			"byteOffset":4768,
			"target":34963
		},
		{
			"buffer":0,
			"byteLength":576,
			"byteOffset":4864,
			"target":34962
		},
		{
			"buffer":0,
			"byteLength":576,
			"byteOffset":5440,
			"target":34962
		},
		{
			"buffer":0,
			"byteLength":384,
			"byteOffset":6016,
			"target":34962
		},
		{
			"buffer":0,
			"byteLength":384,
			"byteOffset":6400,
			"target":34962
		},
		{
			"buffer":0,
			"byteLength":144,
			"byteOffset":6784,
			"target":34963
		},
		{
			"buffer":0,
			"byteLength":192,
			"byteOffset":6928,
			"target":34962
		},
		{
			"buffer":0,
			"byteLength":192,
			"byteOffset":7120,
			"target":34962
		},
		{
			"buffer":0,
			"byteLength":128,
			"byteOffset":7312,
			"target":34962
		},
		{
			"buffer":0,
			"byteLength":128,
			"byteOffset":7440,
			"target":34962
		},
		{
			"buffer":0,
			"byteLength":48,
			"byteOffset":7568,
			"target":34963
		},
		{
			"buffer":0,
			"byteLength":576,
			"byteOffset":7616,
			"target":34962
		},
		{
			"buffer":0,
			"byteLength":576,
			"byteOffset":8192,
			"target":34962
		},
		{
			"buffer":0,
			"byteLength":384,
			"byteOffset":8768,
			"target":34962
		},
		{
			"buffer":0,
			"byteLength":384,
			"byteOffset":9152,
			"target":34962
		},
		{
			"buffer":0,
			"byteLength":144,
			"byteOffset":9536,
			"target":34963
		},
		{
			"buffer":0,
			"byteLength":192,
			"byteOffset":9680,
			"target":34962
		},
		{
			"buffer":0,
			"byteLength":192,
			"byteOffset":9872,
			"target":34962
		},
		{
			"buffer":0,
			"byteLength":128,
			"byteOffset":10064,
			"target":34962
		},
		{
			"buffer":0,
			"byteLength":128,
			"byteOffset":10192,
			"target":34962
		},
		{
			"buffer":0,
			"byteLength":48,
			"byteOffset":10320,
			"target":34963
		},
		{
			"buffer":0,
			"byteLength":960,
			"byteOffset":10368,
			"target":34962
		},
		{
			"buffer":0,
			"byteLength":960,
			"byteOffset":11328,
			"target":34962
		},
		{
			"buffer":0,
			"byteLength":640,
			"byteOffset":12288,
			"target":34962
		},
		{
			"buffer":0,
			"byteLength":640,
			"byteOffset":12928,
			"target":34962
		},
		{
			"buffer":0,
			"byteLength":384,
			"byteOffset":13568,
			"target":34962
		},
		{
			"buffer":0,
			"byteLength":384,
			"byteOffset":13952,
			"target":34962
		},
		{
			"buffer":0,
			"byteLength":256,
			"byteOffset":14336,
			"target":34962
		},
		{
			"buffer":0,
			"byteLength":256,
			"byteOffset":14592,
			"target":34962
		}
	],
	"buffers":[
		{
			"byteLength":14848,
			"uri":"SM_Wall_Inner_XCorner_01.bin"
		}
	]
}
